<?xml version="1.0" encoding="UTF-8"?><svg xmlns="http://www.w3.org/2000/svg" xmlns:xlink="http://www.w3.org/1999/xlink" width="375pt" zoomAndPan="magnify" viewBox="0 0 375 374.999991" height="374.999991pt" preserveAspectRatio="xMidYMid meet" version="1.2"><defs><g/><clipPath xml:id="clip1" id="clip1"><path d="M 112.570312 173 L 262.5 173 L 262.5 322.605469 L 112.570312 322.605469 Z M 112.570312 173 "/></clipPath><clipPath xml:id="clip2" id="clip2"><path d="M 227.210938 270.386719 C 226.507812 270.28125 225.773438 270.503906 225.226562 270.984375 C 224.679688 271.464844 224.367188 272.160156 224.375 272.882812 L 224.445312 284.464844 L 212.863281 284.394531 C 212.050781 284.40625 211.433594 284.707031 210.957031 285.265625 C 210.476562 285.8125 210.261719 286.546875 210.367188 287.269531 L 211.582031 295.4375 L 148.59375 232.453125 L 153.820312 227.230469 L 205.886719 279.300781 C 206.378906 279.789062 207.011719 280.03125 207.660156 280.03125 C 208.304688 280.03125 208.941406 279.789062 209.429688 279.300781 C 210.40625 278.320312 210.40625 276.734375 209.429688 275.757812 L 157.359375 223.6875 L 163.835938 217.214844 L 200.878906 254.257812 C 201.367188 254.746094 202.003906 254.992188 202.648438 254.992188 C 203.296875 254.992188 203.933594 254.746094 204.421875 254.257812 C 205.398438 253.277344 205.398438 251.695312 204.421875 250.714844 L 167.375 213.671875 L 172.601562 208.449219 L 235.695312 271.542969 Z M 239.734375 309.476562 L 249.523438 299.675781 L 255.699219 315.699219 Z M 229.402344 275.738281 L 240.90625 277.304688 L 247.558594 294.570312 L 234.648438 307.480469 L 217.441406 300.769531 L 215.75 289.421875 L 226.949219 289.492188 C 227.664062 289.421875 228.257812 289.226562 228.730469 288.757812 C 229.207031 288.277344 229.472656 287.644531 229.472656 286.96875 Z M 138.578125 222.4375 L 162.582031 198.433594 L 169.058594 204.90625 L 145.054688 228.914062 Z M 152.566406 188.414062 L 159.042969 194.890625 L 135.039062 218.894531 L 128.5625 212.421875 Z M 118.046875 198.273438 C 117.714844 195.125 118.9375 192.152344 121.722656 189.207031 L 129.226562 181.703125 C 131.625 179.21875 134.097656 178.007812 136.796875 178.007812 C 136.992188 178.007812 137.179688 178.015625 137.367188 178.027344 C 142.316406 178.339844 146.816406 182.507812 149.007812 184.894531 L 124.816406 209.085938 C 122.527344 207.117188 118.546875 203.070312 118.046875 198.273438 Z M 154.335938 183.105469 C 154.160156 182.925781 145.476562 173.527344 137.707031 173.027344 C 133.304688 172.765625 129.21875 174.496094 125.648438 178.203125 L 118.132812 185.714844 C 114.28125 189.773438 112.570312 194.1875 113.066406 198.824219 C 113.96875 207.273438 122.019531 213.359375 123.417969 214.355469 L 213.402344 304.339844 C 213.65625 304.59375 213.949219 304.769531 214.261719 304.898438 L 246.777344 317.59375 L 135.039062 317.59375 C 133.660156 317.59375 132.535156 318.71875 132.535156 320.097656 C 132.535156 321.480469 133.660156 322.605469 135.039062 322.605469 L 260.078125 322.605469 C 260.414062 322.605469 260.734375 322.535156 261.039062 322.40625 C 261.363281 322.28125 261.636719 322.074219 261.878906 321.832031 C 262.066406 321.636719 262.210938 321.402344 262.328125 321.15625 C 262.359375 321.078125 262.386719 321 262.417969 320.921875 C 262.496094 320.707031 262.535156 320.480469 262.554688 320.246094 C 262.554688 320.199219 262.566406 320.050781 262.566406 320.019531 C 262.554688 319.746094 262.515625 319.472656 262.417969 319.199219 L 245.054688 274.125 C 245.054688 274.125 244.742188 273.507812 244.488281 273.253906 Z M 154.335938 183.105469 "/></clipPath><clipPath xml:id="clip3" id="clip3"><path d="M 227.210938 270.386719 C 226.507812 270.28125 225.773438 270.503906 225.226562 270.984375 C 224.679688 271.464844 224.367188 272.160156 224.375 272.882812 L 224.445312 284.464844 L 212.863281 284.394531 C 212.050781 284.40625 211.433594 284.707031 210.957031 285.265625 C 210.476562 285.8125 210.261719 286.546875 210.367188 287.269531 L 211.582031 295.4375 L 148.59375 232.453125 L 153.820312 227.230469 L 205.886719 279.300781 C 206.378906 279.789062 207.011719 280.03125 207.660156 280.03125 C 208.304688 280.03125 208.941406 279.789062 209.429688 279.300781 C 210.40625 278.320312 210.40625 276.734375 209.429688 275.757812 L 157.359375 223.6875 L 163.835938 217.214844 L 200.878906 254.257812 C 201.367188 254.746094 202.003906 254.992188 202.648438 254.992188 C 203.296875 254.992188 203.933594 254.746094 204.421875 254.257812 C 205.398438 253.277344 205.398438 251.695312 204.421875 250.714844 L 167.375 213.671875 L 172.601562 208.449219 L 235.695312 271.542969 Z M 239.734375 309.476562 L 249.523438 299.675781 L 255.699219 315.699219 Z M 229.402344 275.738281 L 240.90625 277.304688 L 247.558594 294.570312 L 234.648438 307.480469 L 217.441406 300.769531 L 215.75 289.421875 L 226.949219 289.492188 C 227.664062 289.421875 228.257812 289.226562 228.730469 288.757812 C 229.207031 288.277344 229.472656 287.644531 229.472656 286.96875 Z M 138.578125 222.4375 L 162.582031 198.433594 L 169.058594 204.90625 L 145.054688 228.914062 Z M 152.566406 188.414062 L 159.042969 194.890625 L 135.039062 218.894531 L 128.5625 212.421875 Z M 118.046875 198.273438 C 117.714844 195.125 118.9375 192.152344 121.722656 189.207031 L 129.226562 181.703125 C 131.625 179.21875 134.097656 178.007812 136.796875 178.007812 C 136.992188 178.007812 137.179688 178.015625 137.367188 178.027344 C 142.316406 178.339844 146.816406 182.507812 149.007812 184.894531 L 124.816406 209.085938 C 122.527344 207.117188 118.546875 203.070312 118.046875 198.273438 Z M 154.335938 183.105469 C 154.160156 182.925781 145.476562 173.527344 137.707031 173.027344 C 133.304688 172.765625 129.21875 174.496094 125.648438 178.203125 L 118.132812 185.714844 C 114.28125 189.773438 112.570312 194.1875 113.066406 198.824219 C 113.96875 207.273438 122.019531 213.359375 123.417969 214.355469 L 213.402344 304.339844 C 213.65625 304.59375 213.949219 304.769531 214.261719 304.898438 L 246.777344 317.59375 L 135.039062 317.59375 C 133.660156 317.59375 132.535156 318.71875 132.535156 320.097656 C 132.535156 321.480469 133.660156 322.605469 135.039062 322.605469 L 260.078125 322.605469 C 260.414062 322.605469 260.734375 322.535156 261.039062 322.40625 C 261.363281 322.28125 261.636719 322.074219 261.878906 321.832031 C 262.066406 321.636719 262.210938 321.402344 262.328125 321.15625 C 262.359375 321.078125 262.386719 321 262.417969 320.921875 C 262.496094 320.707031 262.535156 320.480469 262.554688 320.246094 C 262.554688 320.199219 262.566406 320.050781 262.566406 320.019531 C 262.554688 319.746094 262.515625 319.472656 262.417969 319.199219 L 245.054688 274.125 C 245.054688 274.125 244.742188 273.507812 244.488281 273.253906 L 154.335938 183.105469 "/></clipPath><linearGradient x1="-0.0333154" gradientTransform="matrix(148.275875,0,0,148.275875,117.508349,247.804012)" xmlns:xlink="http://www.w3.org/1999/xlink" y1="0" x2="0.97785" gradientUnits="userSpaceOnUse" y2="0" xlink:type="simple" xlink:actuate="onLoad" id="linear0" xlink:show="other" xml:id="linear0"><stop style="stop-color:rgb(27.799988%,37.998962%,67.498779%);stop-opacity:1;" offset="0"/><stop style="stop-color:rgb(27.799988%,37.998962%,67.498779%);stop-opacity:1;" offset="0.03125"/><stop style="stop-color:rgb(27.799988%,38.188171%,67.640686%);stop-opacity:1;" offset="0.046875"/><stop style="stop-color:rgb(27.799988%,38.572693%,67.790222%);stop-opacity:1;" offset="0.0546875"/><stop style="stop-color:rgb(27.799988%,38.963318%,67.979431%);stop-opacity:1;" offset="0.0625"/><stop style="stop-color:rgb(27.799988%,39.178467%,68.179321%);stop-opacity:1;" offset="0.0703125"/><stop style="stop-color:rgb(27.9953%,39.395142%,68.39447%);stop-opacity:1;" offset="0.078125"/><stop style="stop-color:rgb(28.19519%,39.785767%,68.59436%);stop-opacity:1;" offset="0.0859375"/><stop style="stop-color:rgb(28.199768%,40.176392%,68.785095%);stop-opacity:1;" offset="0.09375"/><stop style="stop-color:rgb(28.199768%,40.385437%,68.984985%);stop-opacity:1;" offset="0.101562"/><stop style="stop-color:rgb(28.199768%,40.600586%,69.198608%);stop-opacity:1;" offset="0.105469"/><stop style="stop-color:rgb(28.199768%,40.803528%,69.398499%);stop-opacity:1;" offset="0.109375"/><stop style="stop-color:rgb(28.199768%,40.99884%,69.398499%);stop-opacity:1;" offset="0.117187"/><stop style="stop-color:rgb(28.199768%,41.389465%,69.590759%);stop-opacity:1;" offset="0.125"/><stop style="stop-color:rgb(28.199768%,41.590881%,69.979858%);stop-opacity:1;" offset="0.132812"/><stop style="stop-color:rgb(28.199768%,41.781616%,70.187378%);stop-opacity:1;" offset="0.140625"/><stop style="stop-color:rgb(28.20282%,42.184448%,70.399475%);stop-opacity:1;" offset="0.144531"/><stop style="stop-color:rgb(28.207397%,42.404175%,70.599365%);stop-opacity:1;" offset="0.148437"/><stop style="stop-color:rgb(28.40271%,42.550659%,70.599365%);stop-opacity:1;" offset="0.15625"/><stop style="stop-color:rgb(28.598022%,42.697144%,70.793152%);stop-opacity:1;" offset="0.164062"/><stop style="stop-color:rgb(28.599548%,42.887878%,70.993042%);stop-opacity:1;" offset="0.171875"/><stop style="stop-color:rgb(28.599548%,43.273926%,71.183777%);stop-opacity:1;" offset="0.179688"/><stop style="stop-color:rgb(28.599548%,43.664551%,71.383667%);stop-opacity:1;" offset="0.1875"/><stop style="stop-color:rgb(28.599548%,44.07959%,71.598816%);stop-opacity:1;" offset="0.191406"/><stop style="stop-color:rgb(28.599548%,44.299316%,71.798706%);stop-opacity:1;" offset="0.195312"/><stop style="stop-color:rgb(28.599548%,44.299316%,71.798706%);stop-opacity:1;" offset="0.203125"/><stop style="stop-color:rgb(28.599548%,44.490051%,71.989441%);stop-opacity:1;" offset="0.210937"/><stop style="stop-color:rgb(28.599548%,44.877625%,72.189331%);stop-opacity:1;" offset="0.21875"/><stop style="stop-color:rgb(28.599548%,45.26825%,72.335815%);stop-opacity:1;" offset="0.226562"/><stop style="stop-color:rgb(28.799438%,45.483398%,72.488403%);stop-opacity:1;" offset="0.230469"/><stop style="stop-color:rgb(28.999329%,45.504761%,72.503662%);stop-opacity:1;" offset="0.234375"/><stop style="stop-color:rgb(28.999329%,45.700073%,72.698975%);stop-opacity:1;" offset="0.242187"/><stop style="stop-color:rgb(28.999329%,46.090698%,72.895813%);stop-opacity:1;" offset="0.25"/><stop style="stop-color:rgb(28.999329%,46.481323%,73.086548%);stop-opacity:1;" offset="0.257812"/><stop style="stop-color:rgb(28.999329%,46.687317%,73.471069%);stop-opacity:1;" offset="0.265625"/><stop style="stop-color:rgb(28.999329%,46.903992%,73.686218%);stop-opacity:1;" offset="0.269531"/><stop style="stop-color:rgb(28.999329%,47.108459%,73.707581%);stop-opacity:1;" offset="0.273438"/><stop style="stop-color:rgb(28.999329%,47.303772%,73.902893%);stop-opacity:1;" offset="0.28125"/><stop style="stop-color:rgb(28.999329%,47.645569%,74.098206%);stop-opacity:1;" offset="0.289062"/><stop style="stop-color:rgb(28.999329%,47.98584%,74.28894%);stop-opacity:1;" offset="0.296875"/><stop style="stop-color:rgb(29.18396%,48.188782%,74.488831%);stop-opacity:1;" offset="0.304688"/><stop style="stop-color:rgb(29.38385%,48.379517%,74.679565%);stop-opacity:1;" offset="0.3125"/><stop style="stop-color:rgb(29.399109%,48.780823%,74.880981%);stop-opacity:1;" offset="0.316406"/><stop style="stop-color:rgb(29.399109%,49.002075%,74.902344%);stop-opacity:1;" offset="0.320312"/><stop style="stop-color:rgb(29.399109%,49.197388%,75.097656%);stop-opacity:1;" offset="0.328125"/><stop style="stop-color:rgb(29.399109%,49.583435%,75.483704%);stop-opacity:1;" offset="0.34375"/><stop style="stop-color:rgb(29.399109%,49.969482%,75.686646%);stop-opacity:1;" offset="0.351562"/><stop style="stop-color:rgb(29.399109%,50.38147%,75.898743%);stop-opacity:1;" offset="0.355469"/><stop style="stop-color:rgb(29.399109%,50.59967%,76.098633%);stop-opacity:1;" offset="0.359375"/><stop style="stop-color:rgb(29.399109%,50.793457%,76.292419%);stop-opacity:1;" offset="0.375"/><stop style="stop-color:rgb(29.588318%,51.182556%,76.49231%);stop-opacity:1;" offset="0.382812"/><stop style="stop-color:rgb(29.788208%,51.573181%,76.683044%);stop-opacity:1;" offset="0.390625"/><stop style="stop-color:rgb(29.798889%,51.78833%,77.082825%);stop-opacity:1;" offset="0.394531"/><stop style="stop-color:rgb(29.798889%,51.808167%,77.2995%);stop-opacity:1;" offset="0.398437"/><stop style="stop-color:rgb(29.798889%,52.003479%,77.2995%);stop-opacity:1;" offset="0.40625"/><stop style="stop-color:rgb(29.798889%,52.345276%,77.445984%);stop-opacity:1;" offset="0.414062"/><stop style="stop-color:rgb(29.798889%,52.685547%,77.59552%);stop-opacity:1;" offset="0.421875"/><stop style="stop-color:rgb(29.798889%,53.076172%,77.784729%);stop-opacity:1;" offset="0.429687"/><stop style="stop-color:rgb(29.798889%,53.285217%,77.984619%);stop-opacity:1;" offset="0.4375"/><stop style="stop-color:rgb(29.798889%,53.500366%,78.199768%);stop-opacity:1;" offset="0.441406"/><stop style="stop-color:rgb(29.798889%,53.703308%,78.399658%);stop-opacity:1;" offset="0.445312"/><stop style="stop-color:rgb(29.798889%,53.898621%,78.399658%);stop-opacity:1;" offset="0.453125"/><stop style="stop-color:rgb(29.99115%,54.289246%,78.591919%);stop-opacity:1;" offset="0.460937"/><stop style="stop-color:rgb(30.19104%,54.492188%,78.791809%);stop-opacity:1;" offset="0.46875"/><stop style="stop-color:rgb(30.198669%,54.682922%,78.982544%);stop-opacity:1;" offset="0.476562"/><stop style="stop-color:rgb(30.198669%,55.085754%,79.185486%);stop-opacity:1;" offset="0.480469"/><stop style="stop-color:rgb(30.198669%,55.307007%,79.206848%);stop-opacity:1;" offset="0.484375"/><stop style="stop-color:rgb(30.198669%,55.502319%,79.402161%);stop-opacity:1;" offset="0.492188"/><stop style="stop-color:rgb(30.198669%,55.697632%,79.597473%);stop-opacity:1;" offset="0.5"/><stop style="stop-color:rgb(30.198669%,55.888367%,79.788208%);stop-opacity:1;" offset="0.507812"/><stop style="stop-color:rgb(30.198669%,56.274414%,79.988098%);stop-opacity:1;" offset="0.515625"/><stop style="stop-color:rgb(30.203247%,56.689453%,80.203247%);stop-opacity:1;" offset="0.519531"/><stop style="stop-color:rgb(30.209351%,56.90918%,80.409241%);stop-opacity:1;" offset="0.523438"/><stop style="stop-color:rgb(30.404663%,57.104492%,80.604553%);stop-opacity:1;" offset="0.53125"/><stop style="stop-color:rgb(30.599976%,57.443237%,80.990601%);stop-opacity:1;" offset="0.546875"/><stop style="stop-color:rgb(30.599976%,57.778931%,81.190491%);stop-opacity:1;" offset="0.554688"/><stop style="stop-color:rgb(30.599976%,58.16803%,81.381226%);stop-opacity:1;" offset="0.5625"/><stop style="stop-color:rgb(30.599976%,58.383179%,81.582642%);stop-opacity:1;" offset="0.570312"/><stop style="stop-color:rgb(30.599976%,58.599854%,81.799316%);stop-opacity:1;" offset="0.578125"/><stop style="stop-color:rgb(30.599976%,58.990479%,81.996155%);stop-opacity:1;" offset="0.585937"/><stop style="stop-color:rgb(30.599976%,59.381104%,82.18689%);stop-opacity:1;" offset="0.59375"/><stop style="stop-color:rgb(30.599976%,59.587097%,82.38678%);stop-opacity:1;" offset="0.601562"/><stop style="stop-color:rgb(30.799866%,59.802246%,82.548523%);stop-opacity:1;" offset="0.605469"/><stop style="stop-color:rgb(30.999756%,60.006714%,82.699585%);stop-opacity:1;" offset="0.609375"/><stop style="stop-color:rgb(30.999756%,60.202026%,82.699585%);stop-opacity:1;" offset="0.617188"/><stop style="stop-color:rgb(30.999756%,60.592651%,82.893372%);stop-opacity:1;" offset="0.621094"/><stop style="stop-color:rgb(30.999756%,60.78949%,83.088684%);stop-opacity:1;" offset="0.625"/><stop style="stop-color:rgb(30.999756%,60.978699%,83.279419%);stop-opacity:1;" offset="0.640625"/><stop style="stop-color:rgb(30.999756%,61.38916%,83.48999%);stop-opacity:1;" offset="0.644531"/><stop style="stop-color:rgb(30.999756%,61.610413%,83.511353%);stop-opacity:1;" offset="0.648437"/><stop style="stop-color:rgb(30.999756%,61.805725%,83.706665%);stop-opacity:1;" offset="0.65625"/><stop style="stop-color:rgb(30.999756%,62.19635%,84.09729%);stop-opacity:1;" offset="0.664062"/><stop style="stop-color:rgb(30.999756%,62.394714%,84.295654%);stop-opacity:1;" offset="0.671875"/><stop style="stop-color:rgb(30.999756%,62.539673%,84.486389%);stop-opacity:1;" offset="0.679688"/><stop style="stop-color:rgb(31.181335%,62.872314%,84.686279%);stop-opacity:1;" offset="0.6875"/><stop style="stop-color:rgb(31.381226%,63.28125%,84.898376%);stop-opacity:1;" offset="0.691406"/><stop style="stop-color:rgb(31.399536%,63.499451%,85.099792%);stop-opacity:1;" offset="0.695312"/><stop style="stop-color:rgb(31.399536%,63.499451%,85.099792%);stop-opacity:1;" offset="0.703125"/><stop style="stop-color:rgb(31.399536%,63.693237%,85.292053%);stop-opacity:1;" offset="0.710938"/><stop style="stop-color:rgb(31.399536%,64.082336%,85.491943%);stop-opacity:1;" offset="0.71875"/><stop style="stop-color:rgb(31.399536%,64.472961%,85.682678%);stop-opacity:1;" offset="0.726562"/><stop style="stop-color:rgb(31.399536%,64.68811%,85.887146%);stop-opacity:1;" offset="0.734375"/><stop style="stop-color:rgb(31.399536%,64.903259%,86.103821%);stop-opacity:1;" offset="0.742187"/><stop style="stop-color:rgb(31.399536%,65.293884%,86.299133%);stop-opacity:1;" offset="0.75"/><stop style="stop-color:rgb(31.399536%,65.684509%,86.489868%);stop-opacity:1;" offset="0.757812"/><stop style="stop-color:rgb(31.585693%,66.075134%,86.689758%);stop-opacity:1;" offset="0.765625"/><stop style="stop-color:rgb(31.785583%,66.290283%,86.898804%);stop-opacity:1;" offset="0.769531"/><stop style="stop-color:rgb(31.799316%,66.311646%,87.098694%);stop-opacity:1;" offset="0.773438"/><stop style="stop-color:rgb(31.799316%,66.506958%,87.10022%);stop-opacity:1;" offset="0.78125"/><stop style="stop-color:rgb(31.799316%,66.897583%,87.298584%);stop-opacity:1;" offset="0.789062"/><stop style="stop-color:rgb(31.799316%,67.288208%,87.640381%);stop-opacity:1;" offset="0.796875"/><stop style="stop-color:rgb(31.799316%,67.628479%,87.976074%);stop-opacity:1;" offset="0.8125"/><stop style="stop-color:rgb(31.799316%,67.988586%,88.18512%);stop-opacity:1;" offset="0.816406"/><stop style="stop-color:rgb(31.799316%,68.205261%,88.206482%);stop-opacity:1;" offset="0.820312"/><stop style="stop-color:rgb(31.799316%,68.400574%,88.401794%);stop-opacity:1;" offset="0.824219"/><stop style="stop-color:rgb(31.799316%,68.597412%,88.597107%);stop-opacity:1;" offset="0.828125"/><stop style="stop-color:rgb(31.993103%,68.597412%,88.597107%);stop-opacity:1;" offset="0.835938"/><stop style="stop-color:rgb(32.192993%,68.788147%,88.787842%);stop-opacity:1;" offset="0.84375"/><stop style="stop-color:rgb(32.199097%,69.172668%,88.989258%);stop-opacity:1;" offset="0.847656"/><stop style="stop-color:rgb(32.199097%,69.369507%,88.999939%);stop-opacity:1;" offset="0.851562"/><stop style="stop-color:rgb(32.199097%,69.584656%,89.199829%);stop-opacity:1;" offset="0.855469"/><stop style="stop-color:rgb(32.199097%,69.799805%,89.399719%);stop-opacity:1;" offset="0.859375"/><stop style="stop-color:rgb(32.199097%,69.995117%,89.595032%);stop-opacity:1;" offset="0.875"/><stop style="stop-color:rgb(32.199097%,70.385742%,89.794922%);stop-opacity:1;" offset="0.882812"/><stop style="stop-color:rgb(32.199097%,70.776367%,89.985657%);stop-opacity:1;" offset="0.890625"/><stop style="stop-color:rgb(32.199097%,71.185303%,90.19165%);stop-opacity:1;" offset="0.894531"/><stop style="stop-color:rgb(32.199097%,71.398926%,90.213013%);stop-opacity:1;" offset="0.898437"/><stop style="stop-color:rgb(32.200623%,71.400452%,90.405273%);stop-opacity:1;" offset="0.90625"/><stop style="stop-color:rgb(32.348633%,71.598816%,90.59906%);stop-opacity:1;" offset="0.914062"/><stop style="stop-color:rgb(32.496643%,71.989441%,90.791321%);stop-opacity:1;" offset="0.921875"/><stop style="stop-color:rgb(32.499695%,72.332764%,91.18042%);stop-opacity:1;" offset="0.929687"/><stop style="stop-color:rgb(32.499695%,72.489929%,91.386414%);stop-opacity:1;" offset="0.9375"/><stop style="stop-color:rgb(32.499695%,72.702026%,91.598511%);stop-opacity:1;" offset="0.941406"/><stop style="stop-color:rgb(32.499695%,72.906494%,91.799927%);stop-opacity:1;" offset="0.945312"/><stop style="stop-color:rgb(32.499695%,73.101807%,91.799927%);stop-opacity:1;" offset="0.953125"/><stop style="stop-color:rgb(32.499695%,73.492432%,91.993713%);stop-opacity:1;" offset="0.960937"/><stop style="stop-color:rgb(32.499695%,73.693848%,92.193604%);stop-opacity:1;" offset="0.96875"/><stop style="stop-color:rgb(32.499695%,73.884583%,92.338562%);stop-opacity:1;" offset="0.976562"/><stop style="stop-color:rgb(32.504272%,74.28894%,92.494202%);stop-opacity:1;" offset="0.980469"/><stop style="stop-color:rgb(32.510376%,74.510193%,92.510986%);stop-opacity:1;" offset="0.984375"/><stop style="stop-color:rgb(32.704163%,74.705505%,92.704773%);stop-opacity:1;" offset="0.992188"/><stop style="stop-color:rgb(32.899475%,75.09613%,92.89856%);stop-opacity:1;" offset="1"/></linearGradient><clipPath xml:id="clip4" id="clip4"><path d="M 112.5 317.59375 L 127.671875 317.59375 L 127.671875 322.605469 L 112.5 322.605469 Z M 112.5 317.59375 "/></clipPath><clipPath xml:id="clip5" id="clip5"><path d="M 115.003906 322.605469 L 125.167969 322.605469 C 126.554688 322.605469 127.671875 321.480469 127.671875 320.097656 C 127.671875 318.71875 126.554688 317.59375 125.167969 317.59375 L 115.003906 317.59375 C 113.625 317.59375 112.5 318.71875 112.5 320.097656 C 112.5 321.480469 113.625 322.605469 115.003906 322.605469 Z M 115.003906 322.605469 "/></clipPath><clipPath xml:id="clip6" id="clip6"><path d="M 115.003906 322.605469 L 125.167969 322.605469 C 126.554688 322.605469 127.671875 321.480469 127.671875 320.097656 C 127.671875 318.71875 126.554688 317.59375 125.167969 317.59375 L 115.003906 317.59375 C 113.625 317.59375 112.5 318.71875 112.5 320.097656 C 112.5 321.480469 113.625 322.605469 115.003906 322.605469 "/></clipPath><linearGradient x1="-0.0337772" gradientTransform="matrix(148.275875,0,0,148.275875,117.508349,320.099497)" xmlns:xlink="http://www.w3.org/1999/xlink" y1="0" x2="0.068544" gradientUnits="userSpaceOnUse" y2="0" xlink:type="simple" xlink:actuate="onLoad" id="linear1" xlink:show="other" xml:id="linear1"><stop style="stop-color:rgb(27.799988%,37.998962%,67.498779%);stop-opacity:1;" offset="0"/><stop style="stop-color:rgb(27.799988%,37.998962%,67.498779%);stop-opacity:1;" offset="0.25"/><stop style="stop-color:rgb(27.799988%,37.998962%,67.498779%);stop-opacity:1;" offset="0.375"/><stop style="stop-color:rgb(27.799988%,38.096619%,67.572021%);stop-opacity:1;" offset="0.40625"/><stop style="stop-color:rgb(27.799988%,38.291931%,67.718506%);stop-opacity:1;" offset="0.4375"/><stop style="stop-color:rgb(27.799988%,38.394165%,67.796326%);stop-opacity:1;" offset="0.5"/><stop style="stop-color:rgb(27.799988%,38.592529%,67.799377%);stop-opacity:1;" offset="0.5625"/><stop style="stop-color:rgb(27.799988%,38.885498%,67.892456%);stop-opacity:1;" offset="0.59375"/><stop style="stop-color:rgb(27.799988%,39.085388%,68.086243%);stop-opacity:1;" offset="0.625"/><stop style="stop-color:rgb(27.799988%,39.1922%,68.193054%);stop-opacity:1;" offset="0.6875"/><stop style="stop-color:rgb(27.990723%,39.390564%,68.389893%);stop-opacity:1;" offset="0.75"/><stop style="stop-color:rgb(28.190613%,39.590454%,68.589783%);stop-opacity:1;" offset="0.8125"/><stop style="stop-color:rgb(28.199768%,39.787292%,68.786621%);stop-opacity:1;" offset="0.875"/><stop style="stop-color:rgb(28.199768%,40.074158%,68.986511%);stop-opacity:1;" offset="0.90625"/><stop style="stop-color:rgb(28.199768%,40.270996%,68.998718%);stop-opacity:1;" offset="0.9375"/><stop style="stop-color:rgb(28.199768%,40.383911%,68.998718%);stop-opacity:1;" offset="1"/></linearGradient><clipPath xml:id="clip7" id="clip7"><path d="M 190.128906 204.90625 L 232.699219 204.90625 L 232.699219 247.476562 L 190.128906 247.476562 Z M 190.128906 204.90625 "/></clipPath><clipPath xml:id="clip8" id="clip8"><path d="M 190.863281 205.640625 C 189.886719 206.621094 189.886719 208.203125 190.863281 209.183594 L 228.425781 246.746094 C 228.914062 247.234375 229.550781 247.476562 230.195312 247.476562 C 230.839844 247.476562 231.476562 247.234375 231.964844 246.746094 C 232.945312 245.765625 232.945312 244.183594 231.964844 243.203125 L 194.402344 205.640625 C 193.425781 204.664062 191.839844 204.664062 190.863281 205.640625 Z M 190.863281 205.640625 "/></clipPath><clipPath xml:id="clip9" id="clip9"><path d="M 190.863281 205.640625 C 189.886719 206.621094 189.886719 208.203125 190.863281 209.183594 L 228.425781 246.746094 C 228.914062 247.234375 229.550781 247.476562 230.195312 247.476562 C 230.839844 247.476562 231.476562 247.234375 231.964844 246.746094 C 232.945312 245.765625 232.945312 244.183594 231.964844 243.203125 L 194.402344 205.640625 C 193.425781 204.664062 191.839844 204.664062 190.863281 205.640625 "/></clipPath><linearGradient x1="0.48977" gradientTransform="matrix(148.275875,0,0,148.275875,117.508349,226.19299)" xmlns:xlink="http://www.w3.org/1999/xlink" y1="0" x2="0.776876" gradientUnits="userSpaceOnUse" y2="0" xlink:type="simple" xlink:actuate="onLoad" id="linear2" xlink:show="other" xml:id="linear2"><stop style="stop-color:rgb(30.198669%,56.578064%,80.39856%);stop-opacity:1;" offset="0"/><stop style="stop-color:rgb(30.198669%,56.677246%,80.39856%);stop-opacity:1;" offset="0.015625"/><stop style="stop-color:rgb(30.235291%,56.874084%,80.435181%);stop-opacity:1;" offset="0.03125"/><stop style="stop-color:rgb(30.436707%,57.159424%,80.636597%);stop-opacity:1;" offset="0.0625"/><stop style="stop-color:rgb(30.599976%,57.472229%,80.828857%);stop-opacity:1;" offset="0.09375"/><stop style="stop-color:rgb(30.599976%,57.627869%,81.028748%);stop-opacity:1;" offset="0.125"/><stop style="stop-color:rgb(30.599976%,57.756042%,81.199646%);stop-opacity:1;" offset="0.140625"/><stop style="stop-color:rgb(30.599976%,57.952881%,81.225586%);stop-opacity:1;" offset="0.15625"/><stop style="stop-color:rgb(30.599976%,58.24585%,81.445312%);stop-opacity:1;" offset="0.1875"/><stop style="stop-color:rgb(30.599976%,58.538818%,81.738281%);stop-opacity:1;" offset="0.203125"/><stop style="stop-color:rgb(30.599976%,58.737183%,81.918335%);stop-opacity:1;" offset="0.21875"/><stop style="stop-color:rgb(30.599976%,58.935547%,81.999207%);stop-opacity:1;" offset="0.234375"/><stop style="stop-color:rgb(30.599976%,59.135437%,82.015991%);stop-opacity:1;" offset="0.25"/><stop style="stop-color:rgb(30.599976%,59.333801%,82.133484%);stop-opacity:1;" offset="0.265625"/><stop style="stop-color:rgb(30.599976%,59.532166%,82.316589%);stop-opacity:1;" offset="0.28125"/><stop style="stop-color:rgb(30.607605%,59.823608%,82.40509%);stop-opacity:1;" offset="0.3125"/><stop style="stop-color:rgb(30.807495%,60.20813%,82.563782%);stop-opacity:1;" offset="0.34375"/><stop style="stop-color:rgb(30.999756%,60.404968%,82.907104%);stop-opacity:1;" offset="0.375"/><stop style="stop-color:rgb(30.999756%,60.51178%,83.099365%);stop-opacity:1;" offset="0.390625"/><stop style="stop-color:rgb(30.999756%,60.71167%,83.103943%);stop-opacity:1;" offset="0.40625"/><stop style="stop-color:rgb(30.999756%,61.003113%,83.302307%);stop-opacity:1;" offset="0.4375"/><stop style="stop-color:rgb(30.999756%,61.294556%,83.595276%);stop-opacity:1;" offset="0.453125"/><stop style="stop-color:rgb(30.999756%,61.494446%,83.79364%);stop-opacity:1;" offset="0.46875"/><stop style="stop-color:rgb(30.999756%,61.69281%,83.895874%);stop-opacity:1;" offset="0.484375"/><stop style="stop-color:rgb(30.999756%,61.891174%,83.898926%);stop-opacity:1;" offset="0.5"/><stop style="stop-color:rgb(30.999756%,62.091064%,83.99353%);stop-opacity:1;" offset="0.515625"/><stop style="stop-color:rgb(30.999756%,62.289429%,84.188843%);stop-opacity:1;" offset="0.53125"/><stop style="stop-color:rgb(30.999756%,62.535095%,84.294128%);stop-opacity:1;" offset="0.5625"/><stop style="stop-color:rgb(31.185913%,62.876892%,84.484863%);stop-opacity:1;" offset="0.59375"/><stop style="stop-color:rgb(31.385803%,63.171387%,84.771729%);stop-opacity:1;" offset="0.609375"/><stop style="stop-color:rgb(31.399536%,63.369751%,84.970093%);stop-opacity:1;" offset="0.625"/><stop style="stop-color:rgb(31.399536%,63.661194%,85.261536%);stop-opacity:1;" offset="0.6875"/><stop style="stop-color:rgb(31.399536%,63.952637%,85.476685%);stop-opacity:1;" offset="0.703125"/><stop style="stop-color:rgb(31.399536%,64.151001%,85.499573%);stop-opacity:1;" offset="0.71875"/><stop style="stop-color:rgb(31.399536%,64.349365%,85.574341%);stop-opacity:1;" offset="0.734375"/><stop style="stop-color:rgb(31.399536%,64.547729%,85.748291%);stop-opacity:1;" offset="0.75"/><stop style="stop-color:rgb(31.399536%,64.74762%,85.946655%);stop-opacity:1;" offset="0.765625"/><stop style="stop-color:rgb(31.399536%,64.945984%,86.146545%);stop-opacity:1;" offset="0.78125"/><stop style="stop-color:rgb(31.399536%,65.238953%,86.271667%);stop-opacity:1;" offset="0.8125"/><stop style="stop-color:rgb(31.399536%,65.530396%,86.364746%);stop-opacity:1;" offset="0.828125"/><stop style="stop-color:rgb(31.399536%,65.72876%,86.529541%);stop-opacity:1;" offset="0.84375"/><stop style="stop-color:rgb(31.463623%,65.92865%,86.663818%);stop-opacity:1;" offset="0.859375"/><stop style="stop-color:rgb(31.626892%,66.127014%,86.698914%);stop-opacity:1;" offset="0.875"/><stop style="stop-color:rgb(31.762695%,66.262817%,86.860657%);stop-opacity:1;" offset="0.90625"/><stop style="stop-color:rgb(31.799316%,66.455078%,87.217712%);stop-opacity:1;" offset="0.9375"/><stop style="stop-color:rgb(31.799316%,66.7099%,87.45575%);stop-opacity:1;" offset="0.953125"/><stop style="stop-color:rgb(31.799316%,66.906738%,87.5%);stop-opacity:1;" offset="0.96875"/><stop style="stop-color:rgb(31.799316%,67.106628%,87.539673%);stop-opacity:1;" offset="0.984375"/><stop style="stop-color:rgb(31.799316%,67.304993%,87.654114%);stop-opacity:1;" offset="1"/></linearGradient><clipPath xml:id="clip10" id="clip10"><path d="M 215.171875 214.925781 L 240.210938 214.925781 L 240.210938 239.964844 L 215.171875 239.964844 Z M 215.171875 214.925781 "/></clipPath><clipPath xml:id="clip11" id="clip11"><path d="M 237.707031 239.964844 C 238.355469 239.964844 238.988281 239.722656 239.480469 239.230469 C 240.457031 238.253906 240.457031 236.667969 239.480469 235.691406 L 219.445312 215.65625 C 218.46875 214.679688 216.882812 214.679688 215.90625 215.65625 C 214.925781 216.636719 214.925781 218.222656 215.90625 219.199219 L 235.9375 239.230469 C 236.425781 239.722656 237.0625 239.964844 237.707031 239.964844 Z M 237.707031 239.964844 "/></clipPath><clipPath xml:id="clip12" id="clip12"><path d="M 237.707031 239.964844 C 238.355469 239.964844 238.988281 239.722656 239.480469 239.230469 C 240.457031 238.253906 240.457031 236.667969 239.480469 235.691406 L 219.445312 215.65625 C 218.46875 214.679688 216.882812 214.679688 215.90625 215.65625 C 214.925781 216.636719 214.925781 218.222656 215.90625 219.199219 L 235.9375 239.230469 C 236.425781 239.722656 237.0625 239.964844 237.707031 239.964844 "/></clipPath><linearGradient x1="0.658656" gradientTransform="matrix(148.275875,0,0,148.275875,117.508349,227.445081)" xmlns:xlink="http://www.w3.org/1999/xlink" y1="0" x2="0.827542" gradientUnits="userSpaceOnUse" y2="0" xlink:type="simple" xlink:actuate="onLoad" id="linear3" xlink:show="other" xml:id="linear3"><stop style="stop-color:rgb(31.399536%,63.09967%,84.698486%);stop-opacity:1;" offset="0"/><stop style="stop-color:rgb(31.399536%,63.157654%,84.75647%);stop-opacity:1;" offset="0.03125"/><stop style="stop-color:rgb(31.399536%,63.357544%,84.957886%);stop-opacity:1;" offset="0.0625"/><stop style="stop-color:rgb(31.399536%,63.548279%,85.099792%);stop-opacity:1;" offset="0.09375"/><stop style="stop-color:rgb(31.399536%,63.748169%,85.147095%);stop-opacity:1;" offset="0.125"/><stop style="stop-color:rgb(31.399536%,63.943481%,85.346985%);stop-opacity:1;" offset="0.15625"/><stop style="stop-color:rgb(31.399536%,64.143372%,85.499573%);stop-opacity:1;" offset="0.1875"/><stop style="stop-color:rgb(31.399536%,64.334106%,85.534668%);stop-opacity:1;" offset="0.21875"/><stop style="stop-color:rgb(31.399536%,64.533997%,85.734558%);stop-opacity:1;" offset="0.25"/><stop style="stop-color:rgb(31.399536%,64.727783%,85.899353%);stop-opacity:1;" offset="0.28125"/><stop style="stop-color:rgb(31.399536%,64.927673%,85.920715%);stop-opacity:1;" offset="0.3125"/><stop style="stop-color:rgb(31.399536%,65.118408%,86.120605%);stop-opacity:1;" offset="0.34375"/><stop style="stop-color:rgb(31.399536%,65.319824%,86.317444%);stop-opacity:1;" offset="0.375"/><stop style="stop-color:rgb(31.399536%,65.515137%,86.517334%);stop-opacity:1;" offset="0.40625"/><stop style="stop-color:rgb(31.407166%,65.715027%,86.698914%);stop-opacity:1;" offset="0.4375"/><stop style="stop-color:rgb(31.607056%,65.904236%,86.705017%);stop-opacity:1;" offset="0.46875"/><stop style="stop-color:rgb(31.799316%,66.104126%,86.904907%);stop-opacity:1;" offset="0.5"/><stop style="stop-color:rgb(31.799316%,66.491699%,87.098694%);stop-opacity:1;" offset="0.5625"/><stop style="stop-color:rgb(31.799316%,66.691589%,87.289429%);stop-opacity:1;" offset="0.59375"/><stop style="stop-color:rgb(31.799316%,66.888428%,87.490845%);stop-opacity:1;" offset="0.625"/><stop style="stop-color:rgb(31.799316%,67.266846%,87.634277%);stop-opacity:1;" offset="0.6875"/><stop style="stop-color:rgb(31.799316%,67.608643%,87.783813%);stop-opacity:1;" offset="0.75"/><stop style="stop-color:rgb(31.799316%,67.951965%,87.971497%);stop-opacity:1;" offset="0.78125"/><stop style="stop-color:rgb(31.799316%,68.171692%,88.171387%);stop-opacity:1;" offset="0.8125"/><stop style="stop-color:rgb(31.799316%,68.360901%,88.360596%);stop-opacity:1;" offset="0.84375"/><stop style="stop-color:rgb(31.799316%,68.560791%,88.560486%);stop-opacity:1;" offset="0.875"/><stop style="stop-color:rgb(31.956482%,68.756104%,88.598633%);stop-opacity:1;" offset="0.90625"/><stop style="stop-color:rgb(32.156372%,68.955994%,88.749695%);stop-opacity:1;" offset="0.9375"/><stop style="stop-color:rgb(32.199097%,69.145203%,88.949585%);stop-opacity:1;" offset="0.96875"/><stop style="stop-color:rgb(32.199097%,69.345093%,88.999939%);stop-opacity:1;" offset="1"/></linearGradient></defs><g xml:id="surface1" id="surface1"><g clip-rule="nonzero" clip-path="url(#clip1)"><g clip-rule="nonzero" clip-path="url(#clip2)"><g clip-rule="nonzero" clip-path="url(#clip3)"><path style=" stroke:none;fill-rule:nonzero;fill:url(#linear0);" d="M 112.570312 172.855469 L 112.570312 322.605469 L 262.5 322.605469 L 262.5 172.855469 Z M 112.570312 172.855469 "/></g></g></g><g clip-rule="nonzero" clip-path="url(#clip4)"><g clip-rule="nonzero" clip-path="url(#clip5)"><g clip-rule="nonzero" clip-path="url(#clip6)"><path style=" stroke:none;fill-rule:nonzero;fill:url(#linear1);" d="M 112.5 317.59375 L 112.5 322.605469 L 127.671875 322.605469 L 127.671875 317.59375 Z M 112.5 317.59375 "/></g></g></g><g clip-rule="nonzero" clip-path="url(#clip7)"><g clip-rule="nonzero" clip-path="url(#clip8)"><g clip-rule="nonzero" clip-path="url(#clip9)"><path style=" stroke:none;fill-rule:nonzero;fill:url(#linear2);" d="M 190.128906 204.90625 L 190.128906 247.476562 L 232.699219 247.476562 L 232.699219 204.90625 Z M 190.128906 204.90625 "/></g></g></g><g clip-rule="nonzero" clip-path="url(#clip10)"><g clip-rule="nonzero" clip-path="url(#clip11)"><g clip-rule="nonzero" clip-path="url(#clip12)"><path style=" stroke:none;fill-rule:nonzero;fill:url(#linear3);" d="M 215.171875 214.925781 L 215.171875 239.964844 L 240.210938 239.964844 L 240.210938 214.925781 Z M 215.171875 214.925781 "/></g></g></g><g style="fill:rgb(0%,29.019165%,67.83905%);fill-opacity:1;"><g transform="translate(107.220392, 155.376434)"><path style="stroke:none;" d="M 29.652344 -47.855469 C 39.925781 -57.265625 47.042969 -75.550781 40.589844 -88.761719 C 38.535156 -93.199219 33.277344 -97.609375 28.207031 -94.90625 C 25.496094 -93.441406 23.765625 -89.421875 22.410156 -86.816406 C 20.707031 -83.34375 19.167969 -79.710938 17.855469 -76.046875 C 15.066406 -68.558594 12.824219 -60.722656 10.996094 -52.921875 C 10.226562 -49.230469 9.585938 -45.476562 9.039062 -41.757812 C 8.671875 -39.703125 8.402344 -37.683594 8.257812 -35.597656 C 8.078125 -33.929688 7.394531 -31.554688 7.761719 -29.859375 C 7.457031 -31.683594 8.328125 -35.085938 8.597656 -37.109375 C 8.925781 -39.898438 9.351562 -42.71875 9.777344 -45.542969 C 10.851562 -51.160156 12.152344 -56.746094 13.707031 -62.203125 C 9.664062 -47.433594 7.296875 -31.84375 7.96875 -16.4375 L 7.105469 -20.210938 C 7.007812 -20.5 5.910156 -25.261719 5.847656 -25.132812 C 5.71875 -24.878906 5.691406 -24.652344 5.660156 -24.429688 C 5.089844 -27.660156 5.152344 -31.535156 4.964844 -34.898438 C 4.703125 -39.09375 4.160156 -43.191406 3.898438 -47.386719 C 3.671875 -51.804688 3.792969 -56.128906 4.109375 -60.523438 C 4.292969 -61.550781 5.449219 -72.867188 5.832031 -73.320312 C 5.257812 -72.800781 4.121094 -63.308594 3.851562 -60.96875 C 4.3125 -67.125 5.222656 -73.21875 7.0625 -79.097656 C 6.941406 -78.519531 6.785156 -77.71875 6.882812 -77.75 C 7.203125 -77.753906 8.578125 -81.863281 8.355469 -81.894531 C 8.164062 -81.828125 8.003906 -81.667969 7.941406 -81.539062 C 8.285156 -82.40625 8.796875 -82.796875 8.402344 -83.945312 C 7.78125 -85.445312 5.621094 -87.0625 3.984375 -87.144531 C 0.429688 -87.210938 -0.269531 -82.367188 -1.535156 -80.433594 C -3.523438 -77.183594 -3.6875 -73.59375 -4.328125 -69.839844 C -4.417969 -68.84375 -5.535156 -57.109375 -5.214844 -57.113281 L -5.164062 -54.773438 C -5.292969 -54.835938 -5.105469 -55.542969 -5.332031 -55.574219 C -6.355469 -55.4375 -5.828125 -46.085938 -5.792969 -45.351562 C -5.421875 -43.335938 -5.308594 -41.445312 -5.230469 -39.332031 C -5.1875 -38.273438 -5.210938 -37.089844 -5.039062 -35.96875 C -5.105469 -35.839844 -4.539062 -33.25 -4.484375 -34.339844 C -4.382812 -34.050781 -4.414062 -33.828125 -4.347656 -33.636719 C -4.476562 -33.699219 -4.511719 -33.792969 -4.542969 -33.890625 C -4.796875 -33.695312 -4.066406 -30.625 -4.03125 -30.210938 C -4.082031 -28.480469 -4.164062 -26.84375 -3.988281 -25.085938 C -3.601562 -20.828125 -2.382812 -16.640625 -1.195312 -12.550781 C -0.140625 -9.160156 0.667969 -4.296875 3.191406 -1.628906 C 5.488281 1.011719 10.105469 1.679688 11.804688 -2.117188 L 12.289062 -1.640625 C 11.648438 -5.703125 11.132812 -9.703125 11.003906 -13.835938 C 10.808594 -21.90625 11.671875 -29.699219 12.246094 -37.714844 C 12.414062 -40.34375 13.613281 -42.789062 14.199219 -45.453125 C 15.125 -49.945312 16.078125 -54.34375 17.226562 -58.804688 C 19.148438 -66.636719 21.644531 -74.667969 25.269531 -81.90625 C 25.964844 -83.324219 27.121094 -86.503906 29.011719 -86.617188 C 31.828125 -86.832031 32.585938 -80.558594 32.324219 -77.257812 L 32.328125 -76.9375 L 32.265625 -76.808594 L 32.296875 -76.710938 C 32.253906 -74.339844 31.886719 -71.964844 31.523438 -69.59375 C 31.492188 -69.6875 31.667969 -71.675781 31.667969 -71.675781 C 31.15625 -71.609375 29.894531 -65.285156 29.644531 -64.449219 C 28.613281 -61.207031 27.453125 -58.023438 25.910156 -55.03125 C 24.523438 -52.203125 22.847656 -49.59375 21.042969 -47.046875 C 19.898438 -45.691406 18.050781 -44.523438 17.132812 -43.136719 C 15.109375 -39.980469 23.648438 -37.875 25.910156 -39.398438 C 27.824219 -40.695312 28.929688 -42.464844 31.425781 -43 C 32.640625 -43.203125 33.824219 -43.179688 34.984375 -42.613281 C 35.078125 -42.644531 36.6875 -41.699219 37.140625 -41.316406 L 37.042969 -41.605469 C 37.882812 -40.714844 38.4375 -39.726562 38.894531 -38.703125 C 38.632812 -39.152344 38.019531 -39.691406 37.695312 -40.328125 C 38.054688 -39.273438 39.0625 -37.585938 39.285156 -37.554688 C 40.058594 -37.175781 40.222656 -32.949219 40.074219 -31.507812 C 39.777344 -28.621094 38.839844 -25.730469 37.742188 -22.996094 C 35.324219 -17.242188 31.746094 -12.054688 27.71875 -7.246094 C 23.464844 -2.148438 18.570312 2.632812 13.0625 6.554688 C 10.769531 8.304688 8.21875 9.605469 5.601562 11.039062 C 4.519531 11.625 3.429688 11.890625 4.785156 12.710938 C 6.203125 13.726562 10.453125 12.695312 12.054688 12.363281 C 15.125 11.953125 17.933594 10.777344 20.707031 9.183594 C 25.171875 6.582031 29.566406 3.148438 33.285156 -0.371094 C 42.21875 -8.679688 49.941406 -20.214844 49.707031 -32.773438 C 49.644531 -36.390625 49.003906 -40.453125 47.183594 -43.578125 C 43.414062 -49.890625 35.878906 -50.628906 29.652344 -47.855469 Z M 42.078125 -25.339844 C 42.03125 -23.289062 41.058594 -20.8125 40.050781 -19.074219 C 39.101562 -17.464844 37.859375 -16.398438 37.007812 -15.140625 L 39.082031 -19.707031 C 40.527344 -23.308594 41.460938 -26.519531 41.941406 -30.433594 L 42.027344 -31.746094 C 42.394531 -30.050781 42.226562 -27.101562 42.078125 -25.339844 Z M 39.976562 -70.238281 C 40.375 -72.195312 41.09375 -74.796875 41.328125 -77.234375 C 41.453125 -73.742188 41.191406 -70.761719 39.710938 -67.257812 C 39.144531 -66.101562 38.707031 -64.878906 38.171875 -63.625 C 38.925781 -65.808594 39.578125 -67.960938 39.976562 -70.238281 Z M -0.257812 -23.257812 C -0.371094 -21.71875 0.0625 -19.511719 0.652344 -18.105469 C -0.261719 -20.148438 -0.960938 -23.125 -1.074219 -25.332031 C -1.082031 -26.292969 -0.773438 -27.578125 -0.625 -28.699219 C -0.457031 -28.222656 -0.261719 -27.648438 -0.160156 -27.039062 C 0.0742188 -25.726562 -0.140625 -24.476562 -0.257812 -23.257812 Z M 3.570312 -56.160156 C 3.503906 -56.351562 3.535156 -56.578125 3.566406 -56.800781 Z M 17.734375 -74.828125 L 17.292969 -73.925781 Z M 3.789062 -60.519531 C 3.757812 -60.617188 3.789062 -60.839844 3.851562 -60.96875 Z M 3.789062 -60.519531 "/></g></g><g style="fill:rgb(0%,29.019165%,67.83905%);fill-opacity:1;"><g transform="translate(161.989574, 137.657028)"><path style="stroke:none;" d="M 39.136719 -27.890625 C 37.796875 -26.300781 37.019531 -23.726562 36 -21.847656 C 34.429688 -18.824219 32.859375 -15.902344 31.183594 -12.972656 C 28.027344 -7.332031 24.875 -1.589844 20.980469 3.582031 C 19.371094 5.796875 15.996094 11.144531 12.535156 10.917969 C 9.984375 10.644531 9.757812 6.292969 9.660156 4.371094 C 9.578125 2.75 9.59375 1.128906 9.71875 -0.402344 C 9.773438 -1.316406 10.425781 -4.394531 9.875 -5.175781 L 9.222656 -2.101562 C 9.261719 -3.320312 9.398438 -4.644531 9.636719 -5.875 C 9.527344 -6.070312 10.289062 -8.953125 10.445312 -9.875 C 10.847656 -11.921875 11.25 -13.972656 11.75 -16.027344 C 12.152344 -18.078125 12.558594 -20.027344 13.066406 -21.980469 C 13.476562 -23.828125 14.140625 -24.773438 15.179688 -26.246094 C 19.4375 -32.148438 23.265625 -38.535156 26.792969 -44.90625 C 28.089844 -47.304688 28.894531 -49.375 30.515625 -51.386719 C 32.910156 -54.148438 34.425781 -58.183594 35.875 -61.503906 C 38.335938 -66.90625 41.601562 -74.378906 40.675781 -80.519531 L 40.648438 -81.027344 L 40.542969 -81.121094 C 39.730469 -85.035156 35.847656 -89.503906 31.46875 -87.855469 C 29.179688 -87.027344 27.585938 -84.511719 26.257812 -82.71875 L 24.09375 -79.460938 C 23.617188 -78.828125 22.988281 -77.273438 22.523438 -76.4375 L 22.621094 -76.542969 L 19.671875 -70.8125 L 20.390625 -72.574219 C 19.878906 -72.648438 17.878906 -68.183594 17.601562 -67.660156 C 16.589844 -65.679688 15.675781 -63.707031 14.863281 -61.738281 C 13.050781 -57.585938 11.242188 -53.332031 10.152344 -48.914062 C 8.960938 -44.492188 7.5625 -40.15625 6.269531 -35.730469 C 5.578125 -33.359375 4.894531 -30.890625 4.308594 -28.527344 C 3.800781 -26.570312 2.546875 -23.363281 2.953125 -21.355469 L 3.257812 -21.371094 C 2.992188 -20.648438 2.824219 -19.929688 2.660156 -19.210938 C 2.730469 -19.820312 2.691406 -20.53125 2.78125 -20.738281 C 2.3125 -20.003906 2.539062 -17.578125 2.449219 -17.371094 C 1.417969 -11.839844 0.179688 -6.300781 0.0703125 -0.613281 C 0.0429688 4.765625 0.410156 11.847656 4.863281 15.574219 C 9.84375 19.679688 15.15625 16.460938 18.90625 12.515625 C 23.324219 7.722656 26.996094 2.15625 30.363281 -3.292969 C 33.453125 -8.324219 35.816406 -13.621094 38.601562 -18.632812 C 39.710938 -20.71875 40.921875 -22.8125 41.414062 -25.066406 C 41.734375 -26.707031 41.335938 -30.441406 39.136719 -27.890625 Z M 24.617188 -63.457031 C 26.390625 -68.417969 28.15625 -73.480469 30.753906 -78.179688 C 31.402344 -79.332031 35.644531 -85.636719 35.71875 -80.265625 L 35.722656 -80.164062 C 35.8125 -74.488281 32.480469 -68.328125 30.304688 -63.347656 L 26.460938 -55.234375 C 25.171875 -52.734375 22.898438 -49.574219 22.226562 -46.902344 C 22.75 -48.550781 24.449219 -50.972656 25.28125 -52.539062 C 26.667969 -55.144531 27.855469 -57.742188 29.140625 -60.34375 C 31.234375 -64.917969 33.523438 -69.703125 34.992188 -74.648438 C 31.140625 -60.855469 23.296875 -47.769531 16.433594 -35.339844 C 18.90625 -44.394531 21.339844 -54.261719 24.617188 -63.457031 Z M 21.011719 -70.375 C 21.925781 -72.347656 23.664062 -74.0625 24.578125 -75.933594 C 22.675781 -71.574219 20.242188 -67.59375 18.226562 -63.433594 C 18.222656 -63.535156 18.210938 -63.734375 18.308594 -63.84375 C 19.101562 -66.117188 20.007812 -68.191406 21.011719 -70.375 Z M 4.59375 -17.078125 C 4.503906 -16.871094 4.507812 -16.769531 4.507812 -16.769531 C 3.441406 -13.875 3.539062 -10.023438 3.089844 -6.957031 C 3.023438 -6.242188 2.855469 -5.625 2.890625 -4.917969 L 2.875 -5.222656 L 2.738281 -1.96875 C 2.753906 -5.621094 2.964844 -9.386719 3.488281 -12.960938 L 3.496094 -12.863281 C 3.675781 -15.203125 4.074219 -17.355469 4.476562 -17.375 C 4.675781 -17.488281 4.691406 -17.183594 4.59375 -17.078125 Z M 4.59375 -17.078125 "/></g></g><g style="fill:rgb(0%,29.019165%,67.83905%);fill-opacity:1;"><g transform="translate(192.196317, 135.315434)"><path style="stroke:none;" d="M 49.960938 -17.660156 C 49.960938 -17.660156 50.046875 -17.542969 49.976562 -17.761719 C 49.589844 -18.539062 48.808594 -18.148438 48.078125 -18.058594 C 45.082031 -17.917969 41.96875 -17.691406 38.886719 -17.664062 C 40.554688 -21.09375 42.253906 -24.722656 43.238281 -28.359375 C 43.660156 -29.730469 43.996094 -31.214844 43.917969 -32.664062 C 43.859375 -33.597656 43.703125 -34.542969 43.328125 -35.425781 C 43.328125 -35.425781 42.363281 -37.113281 42.539062 -36.265625 L 42.453125 -36.382812 L 42.179688 -37.246094 L 42.515625 -36.78125 C 42.710938 -37.367188 41.183594 -38.738281 41.183594 -38.738281 C 39.074219 -41.632812 35.972656 -44.070312 32.269531 -42.707031 C 29.980469 -41.835938 27.964844 -40.101562 26.246094 -38.324219 C 25.636719 -37.699219 25.007812 -36.980469 24.484375 -36.242188 C 23.957031 -35.503906 22.945312 -32.996094 22.28125 -32.691406 C 21.71875 -32.371094 20.203125 -32.507812 19.4375 -32.214844 C 18.375 -31.972656 17.394531 -31.617188 16.5 -31.140625 C 14.410156 -30.242188 12.640625 -28.777344 10.96875 -27.296875 C 8.0625 -24.472656 6.292969 -21.058594 4.089844 -18.125 C -0.078125 -12.523438 2.164062 -3.964844 7.609375 -0.132812 C 9.371094 1.066406 11.507812 1.816406 13.542969 1.929688 C 15.691406 1.960938 17.867188 1.175781 19.65625 0.226562 C 21.332031 -0.636719 24.949219 -2.117188 25.816406 -3.722656 C 25.832031 -3.824219 25.617188 -3.753906 25.269531 -3.503906 L 28.707031 -6.449219 C 28.792969 -6.332031 27.835938 -5.457031 27.835938 -5.457031 C 28.488281 -5.046875 32.925781 -9.78125 33.390625 -10.121094 C 34.28125 -11.210938 35.183594 -12.402344 36.175781 -13.476562 C 37.015625 -14.265625 36.800781 -14.195312 37.867188 -14.441406 C 37.75 -14.355469 39.113281 -14.550781 39.3125 -14.519531 C 40.445312 -14.546875 52.28125 -13.5 49.960938 -17.660156 Z M 12.148438 -2.90625 L 12.050781 -2.921875 C 3.554688 -3.027344 15.9375 -19.128906 16.296875 -20.097656 L 15.554688 -19.289062 C 17.527344 -22.054688 19.308594 -24.238281 20.136719 -24.925781 C 20.445312 -19.75 25.550781 -16.996094 29.859375 -15.703125 C 26.042969 -10.355469 19.359375 -3.101562 12.148438 -2.90625 Z M 36.234375 -27.515625 C 35.09375 -24.824219 33.910156 -21.21875 32.011719 -18.953125 C 31.355469 -18.03125 31.703125 -18.28125 30.671875 -18.242188 C 30.039062 -18.136719 28.769531 -18.539062 28.183594 -18.734375 C 27.097656 -19.007812 25.828125 -19.414062 25.140625 -20.242188 C 23.925781 -21.664062 24.425781 -23.53125 24.894531 -25.203125 C 25.363281 -26.871094 26.117188 -28.394531 26.96875 -29.902344 C 27.363281 -30.453125 29.769531 -33.355469 29.566406 -34.003906 C 29.511719 -34.320312 28.128906 -32.691406 28.011719 -32.609375 C 28.785156 -33.613281 29.480469 -34.121094 30.09375 -34.742188 C 29.992188 -34.757812 30.109375 -34.84375 30.238281 -35.027344 L 30.222656 -34.925781 L 30.355469 -35.109375 C 30.355469 -35.109375 30.371094 -35.210938 30.472656 -35.195312 C 32.289062 -36.960938 36.699219 -40.878906 38.214844 -37.460938 C 39.304688 -34.621094 37.128906 -29.941406 36.234375 -27.515625 Z M 30.355469 -35.109375 L 30.472656 -35.195312 C 30.457031 -35.09375 30.355469 -35.109375 30.355469 -35.109375 Z M 30.355469 -35.109375 "/></g></g><g style="fill:rgb(0%,29.019165%,67.83905%);fill-opacity:1;"><g transform="translate(225.41008, 139.55638)"><path style="stroke:none;" d="M 57.023438 -2.984375 C 57.761719 -5.855469 53.929688 -4.246094 52.78125 -3.839844 C 50.6875 -3.273438 48.578125 -2.929688 46.484375 -2.359375 C 43.714844 -1.742188 40.960938 -0.894531 38.210938 -0.0507812 C 37.097656 0.261719 29.988281 2.941406 29.632812 2.46875 C 33.046875 -1.609375 37.589844 -5.226562 41.921875 -8.601562 C 45.875 -11.582031 42.46875 -16.914062 37.933594 -16.796875 C 36.617188 -16.785156 34.554688 -15.21875 33.382812 -14.496094 C 30.566406 -12.6875 27.769531 -10.660156 24.953125 -8.855469 L 20.851562 -6.042969 C 20.414062 -5.78125 17.5625 -3.882812 17.84375 -3.769531 C 17.9375 -3.730469 18.070312 -3.785156 18.199219 -3.839844 C 15.292969 -2.074219 11.269531 0.00390625 8.101562 0.792969 C 3.652344 2.039062 8.839844 -5.035156 9.84375 -6.15625 C 12.976562 -9.804688 16.964844 -12.878906 20.992188 -15.503906 C 21.597656 -15.914062 29.4375 -20.375 31.777344 -21.277344 C 29.511719 -20.5625 21.882812 -16.34375 20.617188 -15.65625 C 25.378906 -18.746094 32.957031 -23.640625 38.96875 -22.28125 L 37.558594 -22.308594 C 38.761719 -22.039062 41.253906 -20.910156 41.253906 -20.910156 L 41.089844 -21.308594 C 41.441406 -20.832031 41.570312 -20.34375 42.132812 -20.113281 C 44.515625 -19.25 45.484375 -23.230469 44.914062 -24.777344 C 44.273438 -27.230469 41.203125 -29.359375 38.722656 -29.714844 C 37.988281 -29.792969 37.554688 -29.535156 36.765625 -29.746094 C 35.84375 -29.902344 35.265625 -30.359375 34.003906 -30.21875 C 31.742188 -30.046875 29.613281 -29.382812 27.5 -28.496094 C 26.21875 -28.035156 13.269531 -22.050781 13.773438 -21.40625 C 13.960938 -21.328125 14.222656 -21.441406 14.355469 -21.496094 L 11.804688 -19.800781 C 11.75 -19.933594 12.484375 -20.398438 12.390625 -20.4375 C 12.09375 -20.777344 8.953125 -18.449219 8.746094 -18.207031 C 7.195312 -17.089844 5.753906 -15.707031 4.746094 -14.039062 C 3.566406 -12.222656 2.59375 -10.101562 1.789062 -8.132812 C 1.253906 -6.820312 0.808594 -5.46875 0.6875 -4.097656 C 0.703125 -3.871094 0.949219 -1.253906 1.144531 -2.269531 L 1.160156 -1.496094 C 1.0625 -1.535156 1.007812 -1.667969 0.953125 -1.800781 C 0.308594 -1.296875 2.574219 3.347656 3.113281 3.898438 C 4.253906 5.128906 5.71875 5.289062 7.472656 5.019531 C 11.332031 4.40625 14.945312 1.722656 18.328125 -0.398438 C 21.972656 -2.628906 25.941406 -4.839844 29.363281 -7.597656 L 24.316406 -1.125 C 22.359375 1.25 20.246094 5.089844 17.675781 6.558594 C 15.011719 7.988281 11.621094 8.792969 8.886719 9.863281 C 6.054688 10.898438 3.226562 11.933594 0.46875 13.324219 C -3.511719 15.308594 -7.425781 17.652344 -11.148438 20.070312 C -15.476562 22.898438 -19.074219 26.355469 -19.074219 31.714844 C -19.035156 36.4375 -16.71875 41.761719 -11.570312 42.550781 C -7.117188 43.164062 -4.238281 40.398438 -1.152344 37.9375 C 8.457031 30.480469 15.867188 20.375 23.457031 10.890625 C 24.578125 9.488281 25.511719 8.007812 27.132812 7.246094 C 28.71875 6.582031 30.546875 6.125 32.28125 5.628906 C 35.863281 4.355469 39.464844 3.308594 43.199219 2.207031 L 53.167969 -0.507812 C 54.773438 -0.949219 56.671875 -1.046875 57.023438 -2.984375 Z M 10.804688 15.351562 C 10.839844 15.257812 9.835938 16.378906 10.007812 16.230469 C 5.699219 21.148438 1.488281 26.105469 -3.359375 30.472656 C -5.78125 32.65625 -16.566406 41.382812 -15.449219 32.210938 C -14.804688 26.347656 -7.289062 22.410156 -2.8125 19.753906 C 2.628906 16.613281 7.972656 13.976562 13.800781 11.761719 C 12.851562 13.015625 11.808594 14.230469 10.804688 15.351562 Z M 7.746094 21.765625 C 6.34375 23.597656 4.84375 25.394531 3.195312 27.019531 C 1.699219 28.269531 0 29.21875 -1.457031 30.375 C 1.726562 27.40625 4.921875 24.660156 7.863281 21.484375 Z M 17.226562 -14.851562 C 16.242188 -14.050781 15.015625 -13.457031 13.84375 -12.734375 C 15.28125 -14.113281 16.644531 -15.308594 18.664062 -16.234375 C 19.0625 -16.402344 19.722656 -16.679688 20.195312 -17.035156 Z M 16.136719 -12.453125 L 14.792969 -11.578125 C 15.777344 -12.378906 16.855469 -13.144531 18.027344 -13.871094 Z M 16.136719 -12.453125 "/></g></g></g></svg>