<?xml version="1.0" encoding="UTF-8"?><svg xmlns="http://www.w3.org/2000/svg" xmlns:xlink="http://www.w3.org/1999/xlink" width="375pt" zoomAndPan="magnify" viewBox="0 0 375 374.999991" height="374.999991pt" preserveAspectRatio="xMidYMid meet" version="1.2"><defs><g/><clipPath xml:id="clip1" id="clip1"><path d="M 142 142 L 172 142 L 172 172 L 142 172 Z M 142 142 "/></clipPath><clipPath xml:id="clip2" id="clip2"><path d="M 85.34375 191.410156 L 191.410156 85.34375 L 289.523438 183.457031 L 183.457031 289.523438 Z M 85.34375 191.410156 "/></clipPath><clipPath xml:id="clip3" id="clip3"><path d="M 85.34375 191.410156 L 191.410156 85.34375 L 289.523438 183.457031 L 183.457031 289.523438 Z M 85.34375 191.410156 "/></clipPath><clipPath xml:id="clip4" id="clip4"><path d="M 129 145 L 138 145 L 138 154 L 129 154 Z M 129 145 "/></clipPath><clipPath xml:id="clip5" id="clip5"><path d="M 85.34375 191.410156 L 191.410156 85.34375 L 289.523438 183.457031 L 183.457031 289.523438 Z M 85.34375 191.410156 "/></clipPath><clipPath xml:id="clip6" id="clip6"><path d="M 85.34375 191.410156 L 191.410156 85.34375 L 289.523438 183.457031 L 183.457031 289.523438 Z M 85.34375 191.410156 "/></clipPath><clipPath xml:id="clip7" id="clip7"><path d="M 145 130 L 154 130 L 154 138 L 145 138 Z M 145 130 "/></clipPath><clipPath xml:id="clip8" id="clip8"><path d="M 85.34375 191.410156 L 191.410156 85.34375 L 289.523438 183.457031 L 183.457031 289.523438 Z M 85.34375 191.410156 "/></clipPath><clipPath xml:id="clip9" id="clip9"><path d="M 85.34375 191.410156 L 191.410156 85.34375 L 289.523438 183.457031 L 183.457031 289.523438 Z M 85.34375 191.410156 "/></clipPath><clipPath xml:id="clip10" id="clip10"><path d="M 160 191 L 232 191 L 232 246 L 160 246 Z M 160 191 "/></clipPath><clipPath xml:id="clip11" id="clip11"><path d="M 85.34375 191.410156 L 191.410156 85.34375 L 289.523438 183.457031 L 183.457031 289.523438 Z M 85.34375 191.410156 "/></clipPath><clipPath xml:id="clip12" id="clip12"><path d="M 85.34375 191.410156 L 191.410156 85.34375 L 289.523438 183.457031 L 183.457031 289.523438 Z M 85.34375 191.410156 "/></clipPath><clipPath xml:id="clip13" id="clip13"><path d="M 150 150 L 203 150 L 203 204 L 150 204 Z M 150 150 "/></clipPath><clipPath xml:id="clip14" id="clip14"><path d="M 85.34375 191.410156 L 191.410156 85.34375 L 289.523438 183.457031 L 183.457031 289.523438 Z M 85.34375 191.410156 "/></clipPath><clipPath xml:id="clip15" id="clip15"><path d="M 85.34375 191.410156 L 191.410156 85.34375 L 289.523438 183.457031 L 183.457031 289.523438 Z M 85.34375 191.410156 "/></clipPath><clipPath xml:id="clip16" id="clip16"><path d="M 191 161 L 245 161 L 245 233 L 191 233 Z M 191 161 "/></clipPath><clipPath xml:id="clip17" id="clip17"><path d="M 85.34375 191.410156 L 191.410156 85.34375 L 289.523438 183.457031 L 183.457031 289.523438 Z M 85.34375 191.410156 "/></clipPath><clipPath xml:id="clip18" id="clip18"><path d="M 85.34375 191.410156 L 191.410156 85.34375 L 289.523438 183.457031 L 183.457031 289.523438 Z M 85.34375 191.410156 "/></clipPath><clipPath xml:id="clip19" id="clip19"><path d="M 95 179 L 147 179 L 147 200 L 95 200 Z M 95 179 "/></clipPath><clipPath xml:id="clip20" id="clip20"><path d="M 85.34375 191.410156 L 191.410156 85.34375 L 289.523438 183.457031 L 183.457031 289.523438 Z M 85.34375 191.410156 "/></clipPath><clipPath xml:id="clip21" id="clip21"><path d="M 85.34375 191.410156 L 191.410156 85.34375 L 289.523438 183.457031 L 183.457031 289.523438 Z M 85.34375 191.410156 "/></clipPath><clipPath xml:id="clip22" id="clip22"><path d="M 144 214 L 159 214 L 159 252 L 144 252 Z M 144 214 "/></clipPath><clipPath xml:id="clip23" id="clip23"><path d="M 85.34375 191.410156 L 191.410156 85.34375 L 289.523438 183.457031 L 183.457031 289.523438 Z M 85.34375 191.410156 "/></clipPath><clipPath xml:id="clip24" id="clip24"><path d="M 85.34375 191.410156 L 191.410156 85.34375 L 289.523438 183.457031 L 183.457031 289.523438 Z M 85.34375 191.410156 "/></clipPath><clipPath xml:id="clip25" id="clip25"><path d="M 179 237 L 194 237 L 194 282 L 179 282 Z M 179 237 "/></clipPath><clipPath xml:id="clip26" id="clip26"><path d="M 85.34375 191.410156 L 191.410156 85.34375 L 289.523438 183.457031 L 183.457031 289.523438 Z M 85.34375 191.410156 "/></clipPath><clipPath xml:id="clip27" id="clip27"><path d="M 85.34375 191.410156 L 191.410156 85.34375 L 289.523438 183.457031 L 183.457031 289.523438 Z M 85.34375 191.410156 "/></clipPath><clipPath xml:id="clip28" id="clip28"><path d="M 179 95 L 200 95 L 200 148 L 179 148 Z M 179 95 "/></clipPath><clipPath xml:id="clip29" id="clip29"><path d="M 85.34375 191.410156 L 191.410156 85.34375 L 289.523438 183.457031 L 183.457031 289.523438 Z M 85.34375 191.410156 "/></clipPath><clipPath xml:id="clip30" id="clip30"><path d="M 85.34375 191.410156 L 191.410156 85.34375 L 289.523438 183.457031 L 183.457031 289.523438 Z M 85.34375 191.410156 "/></clipPath><clipPath xml:id="clip31" id="clip31"><path d="M 214 144 L 252 144 L 252 159 L 214 159 Z M 214 144 "/></clipPath><clipPath xml:id="clip32" id="clip32"><path d="M 85.34375 191.410156 L 191.410156 85.34375 L 289.523438 183.457031 L 183.457031 289.523438 Z M 85.34375 191.410156 "/></clipPath><clipPath xml:id="clip33" id="clip33"><path d="M 85.34375 191.410156 L 191.410156 85.34375 L 289.523438 183.457031 L 183.457031 289.523438 Z M 85.34375 191.410156 "/></clipPath><clipPath xml:id="clip34" id="clip34"><path d="M 237 179 L 282 179 L 282 194 L 237 194 Z M 237 179 "/></clipPath><clipPath xml:id="clip35" id="clip35"><path d="M 85.34375 191.410156 L 191.410156 85.34375 L 289.523438 183.457031 L 183.457031 289.523438 Z M 85.34375 191.410156 "/></clipPath><clipPath xml:id="clip36" id="clip36"><path d="M 85.34375 191.410156 L 191.410156 85.34375 L 289.523438 183.457031 L 183.457031 289.523438 Z M 85.34375 191.410156 "/></clipPath></defs><g xml:id="surface1" id="surface1"><g clip-rule="nonzero" clip-path="url(#clip1)"><g clip-rule="nonzero" clip-path="url(#clip2)"><g clip-rule="nonzero" clip-path="url(#clip3)"><path style=" stroke:none;fill-rule:nonzero;fill:rgb(100%,100%,100%);fill-opacity:1;" d="M 146.949219 170.925781 C 147.335938 169.507812 147.8125 168.125 148.378906 166.769531 C 148.945312 165.414062 149.597656 164.101562 150.335938 162.832031 C 151.074219 161.5625 151.890625 160.34375 152.785156 159.179688 C 153.679688 158.015625 154.648438 156.914062 155.6875 155.878906 C 156.722656 154.839844 157.824219 153.871094 158.988281 152.976562 C 160.152344 152.082031 161.371094 151.265625 162.640625 150.527344 C 163.910156 149.789062 165.222656 149.136719 166.578125 148.570312 C 167.933594 148.003906 169.316406 147.527344 170.734375 147.140625 C 171.054688 147.046875 171.320312 146.867188 171.527344 146.601562 C 171.734375 146.339844 171.847656 146.039062 171.859375 145.703125 C 171.875 145.371094 171.792969 145.0625 171.609375 144.78125 C 171.429688 144.5 171.183594 144.296875 170.871094 144.175781 C 169.929688 143.773438 168.964844 143.441406 167.972656 143.179688 C 166.984375 142.917969 165.980469 142.730469 164.964844 142.613281 C 163.945312 142.496094 162.925781 142.453125 161.902344 142.484375 C 160.878906 142.515625 159.863281 142.621094 158.855469 142.800781 C 157.847656 142.980469 156.855469 143.230469 155.882812 143.554688 C 154.910156 143.875 153.964844 144.269531 153.050781 144.726562 C 152.136719 145.1875 151.257812 145.710938 150.417969 146.296875 C 149.578125 146.882812 148.78125 147.527344 148.035156 148.226562 C 147.339844 148.976562 146.699219 149.769531 146.113281 150.609375 C 145.53125 151.449219 145.011719 152.324219 144.554688 153.238281 C 144.097656 154.15625 143.710938 155.097656 143.390625 156.066406 C 143.070312 157.039062 142.820312 158.027344 142.644531 159.035156 C 142.464844 160.039062 142.363281 161.054688 142.332031 162.074219 C 142.300781 163.097656 142.34375 164.113281 142.460938 165.128906 C 142.578125 166.144531 142.765625 167.144531 143.027344 168.132812 C 143.289062 169.121094 143.621094 170.085938 144.019531 171.023438 C 144.148438 171.324219 144.347656 171.558594 144.621094 171.734375 C 144.894531 171.910156 145.191406 171.992188 145.515625 171.980469 C 145.839844 171.96875 146.132812 171.867188 146.394531 171.675781 C 146.65625 171.480469 146.84375 171.234375 146.949219 170.925781 Z M 146.949219 170.925781 "/></g></g></g><g clip-rule="nonzero" clip-path="url(#clip4)"><g clip-rule="nonzero" clip-path="url(#clip5)"><g clip-rule="nonzero" clip-path="url(#clip6)"><path style=" stroke:none;fill-rule:nonzero;fill:rgb(100%,100%,100%);fill-opacity:1;" d="M 136.476562 146.667969 C 136.296875 146.484375 136.101562 146.324219 135.886719 146.183594 C 135.675781 146.042969 135.449219 145.921875 135.214844 145.824219 C 134.976562 145.726562 134.734375 145.65625 134.484375 145.605469 C 134.234375 145.558594 133.980469 145.535156 133.722656 145.535156 C 133.46875 145.535156 133.214844 145.5625 132.964844 145.613281 C 132.714844 145.667969 132.472656 145.742188 132.234375 145.84375 C 132 145.941406 131.777344 146.0625 131.566406 146.207031 C 131.355469 146.351562 131.160156 146.515625 130.980469 146.699219 C 130.800781 146.878906 130.640625 147.078125 130.5 147.292969 C 130.359375 147.507812 130.242188 147.730469 130.148438 147.96875 C 130.054688 148.207031 129.980469 148.453125 129.933594 148.703125 C 129.890625 148.953125 129.867188 149.207031 129.871094 149.464844 C 129.875 149.71875 129.902344 149.972656 129.957031 150.222656 C 130.007812 150.472656 130.085938 150.714844 130.1875 150.949219 C 130.289062 151.183594 130.414062 151.40625 130.558594 151.613281 C 130.703125 151.824219 130.871094 152.019531 131.054688 152.195312 C 131.238281 152.371094 131.4375 152.53125 131.652344 152.667969 C 131.867188 152.804688 132.09375 152.921875 132.332031 153.011719 C 132.570312 153.105469 132.816406 153.175781 133.066406 153.21875 C 133.320312 153.261719 133.574219 153.28125 133.828125 153.273438 C 134.082031 153.269531 134.335938 153.238281 134.585938 153.179688 C 134.835938 153.125 135.078125 153.046875 135.308594 152.941406 C 135.542969 152.835938 135.765625 152.710938 135.972656 152.5625 C 136.183594 152.414062 136.375 152.25 136.550781 152.0625 C 136.898438 151.695312 137.164062 151.277344 137.34375 150.808594 C 137.527344 150.339844 137.617188 149.851562 137.609375 149.347656 C 137.605469 148.84375 137.503906 148.359375 137.304688 147.894531 C 137.109375 147.433594 136.835938 147.023438 136.476562 146.667969 Z M 136.476562 146.667969 "/></g></g></g><g clip-rule="nonzero" clip-path="url(#clip7)"><g clip-rule="nonzero" clip-path="url(#clip8)"><g clip-rule="nonzero" clip-path="url(#clip9)"><path style=" stroke:none;fill-rule:nonzero;fill:rgb(100%,100%,100%);fill-opacity:1;" d="M 151.875 131.269531 C 151.511719 130.90625 151.09375 130.625 150.621094 130.429688 C 150.144531 130.234375 149.652344 130.136719 149.140625 130.136719 C 148.625 130.136719 148.132812 130.234375 147.65625 130.433594 C 147.183594 130.628906 146.765625 130.910156 146.402344 131.273438 C 146.039062 131.636719 145.757812 132.054688 145.5625 132.527344 C 145.363281 133.003906 145.265625 133.496094 145.265625 134.011719 C 145.265625 134.523438 145.363281 135.015625 145.558594 135.492188 C 145.757812 135.964844 146.035156 136.382812 146.398438 136.746094 C 146.761719 137.109375 147.179688 137.386719 147.652344 137.585938 C 148.128906 137.78125 148.621094 137.878906 149.132812 137.878906 C 149.648438 137.878906 150.140625 137.777344 150.617188 137.582031 C 151.089844 137.386719 151.507812 137.105469 151.871094 136.742188 C 152.234375 136.378906 152.515625 135.960938 152.710938 135.484375 C 152.90625 135.011719 153.007812 134.519531 153.007812 134.003906 C 153.007812 133.492188 152.910156 132.996094 152.714844 132.523438 C 152.515625 132.050781 152.238281 131.632812 151.875 131.269531 Z M 151.875 131.269531 "/></g></g></g><g clip-rule="nonzero" clip-path="url(#clip10)"><g clip-rule="nonzero" clip-path="url(#clip11)"><g clip-rule="nonzero" clip-path="url(#clip12)"><path style=" stroke:none;fill-rule:nonzero;fill:rgb(100%,100%,100%);fill-opacity:1;" d="M 230.054688 240.703125 C 230.304688 240.566406 230.53125 240.402344 230.742188 240.210938 C 230.949219 240.019531 231.136719 239.804688 231.296875 239.570312 C 231.457031 239.335938 231.589844 239.089844 231.691406 238.824219 C 231.792969 238.558594 231.867188 238.289062 231.90625 238.007812 C 231.945312 237.726562 231.953125 237.445312 231.929688 237.164062 C 231.902344 236.878906 231.847656 236.605469 231.757812 236.335938 C 231.667969 236.066406 231.550781 235.8125 231.402344 235.570312 C 231.253906 235.328125 231.082031 235.105469 230.882812 234.90625 L 189.171875 193.191406 C 188.886719 192.910156 188.578125 192.652344 188.246094 192.429688 C 187.914062 192.203125 187.5625 192.011719 187.191406 191.855469 C 186.820312 191.699219 186.441406 191.578125 186.046875 191.492188 C 185.652344 191.410156 185.253906 191.363281 184.851562 191.355469 C 184.453125 191.347656 184.050781 191.378906 183.65625 191.445312 C 183.257812 191.515625 182.875 191.621094 182.496094 191.765625 C 182.121094 191.910156 181.761719 192.085938 181.417969 192.296875 C 181.078125 192.511719 180.757812 192.753906 180.464844 193.027344 C 174.992188 198.109375 169.269531 202.898438 163.304688 207.390625 C 163 207.621094 162.722656 207.878906 162.464844 208.160156 C 162.210938 208.445312 161.984375 208.75 161.785156 209.074219 C 161.589844 209.402344 161.425781 209.742188 161.292969 210.101562 C 161.160156 210.457031 161.0625 210.824219 161 211.199219 C 160.9375 211.578125 160.914062 211.957031 160.921875 212.335938 C 160.933594 212.71875 160.980469 213.09375 161.0625 213.464844 C 161.144531 213.839844 161.261719 214.199219 161.410156 214.550781 C 161.5625 214.898438 161.746094 215.230469 161.960938 215.546875 C 164.425781 219.097656 167.195312 222.402344 170.261719 225.453125 C 188.90625 244.101562 213.953125 249.996094 230.054688 240.703125 Z M 230.054688 240.703125 "/></g></g></g><g clip-rule="nonzero" clip-path="url(#clip13)"><g clip-rule="nonzero" clip-path="url(#clip14)"><g clip-rule="nonzero" clip-path="url(#clip15)"><path style=" stroke:none;fill-rule:nonzero;fill:rgb(100%,100%,100%);fill-opacity:1;" d="M 161.339844 202.167969 C 168.953125 196.292969 176.152344 189.945312 182.9375 183.128906 C 189.753906 176.34375 196.101562 169.144531 201.976562 161.53125 C 202.210938 161.222656 202.40625 160.890625 202.566406 160.539062 C 202.722656 160.183594 202.835938 159.816406 202.902344 159.4375 C 202.972656 159.054688 203 158.671875 202.976562 158.285156 C 202.957031 157.898438 202.890625 157.519531 202.777344 157.148438 C 202.667969 156.78125 202.515625 156.425781 202.320312 156.09375 C 202.125 155.757812 201.894531 155.453125 201.628906 155.171875 C 201.363281 154.894531 201.066406 154.648438 200.738281 154.4375 C 200.414062 154.230469 200.070312 154.0625 199.703125 153.933594 C 193.632812 151.714844 187.359375 150.703125 180.894531 150.902344 L 180.605469 150.921875 L 178.136719 151.136719 L 177.792969 151.175781 C 175.859375 151.417969 173.960938 151.816406 172.089844 152.363281 L 171.535156 152.574219 C 170.789062 152.785156 170.0625 153.054688 169.371094 153.324219 L 168.703125 153.574219 L 166.902344 154.414062 L 166.136719 154.800781 L 164.527344 155.757812 L 163.722656 156.253906 L 162.171875 157.386719 L 161.578125 157.980469 C 160.945312 158.609375 160.199219 159.167969 159.570312 159.796875 C 158.9375 160.429688 158.265625 161.101562 157.75 161.808594 L 157.15625 162.402344 L 156.023438 163.953125 L 155.546875 164.738281 L 154.589844 166.347656 L 154.203125 167.113281 L 153.378906 168.894531 L 153.09375 169.601562 C 152.824219 170.289062 152.554688 171.019531 152.34375 171.765625 L 152.191406 172.183594 C 151.621094 174.074219 151.207031 175.992188 150.945312 177.945312 L 150.90625 178.292969 L 150.695312 180.761719 L 150.675781 181.046875 C 150.480469 187.53125 151.503906 193.8125 153.742188 199.894531 C 153.871094 200.261719 154.039062 200.605469 154.246094 200.929688 C 154.457031 201.257812 154.699219 201.554688 154.980469 201.820312 C 155.261719 202.085938 155.566406 202.316406 155.902344 202.511719 C 156.234375 202.707031 156.589844 202.859375 156.957031 202.96875 C 157.328125 203.082031 157.707031 203.148438 158.09375 203.167969 C 158.480469 203.191406 158.863281 203.164062 159.246094 203.09375 C 159.625 203.027344 159.992188 202.914062 160.347656 202.757812 C 160.699219 202.597656 161.03125 202.402344 161.339844 202.167969 Z M 161.339844 202.167969 "/></g></g></g><g clip-rule="nonzero" clip-path="url(#clip16)"><g clip-rule="nonzero" clip-path="url(#clip17)"><g clip-rule="nonzero" clip-path="url(#clip18)"><path style=" stroke:none;fill-rule:nonzero;fill:rgb(100%,100%,100%);fill-opacity:1;" d="M 240.511719 230.246094 C 249.804688 214.144531 243.910156 189.097656 225.261719 170.453125 C 222.203125 167.394531 218.898438 164.628906 215.355469 162.152344 C 215.039062 161.9375 214.707031 161.753906 214.359375 161.605469 C 214.007812 161.453125 213.648438 161.335938 213.273438 161.253906 C 212.902344 161.171875 212.527344 161.125 212.144531 161.113281 C 211.765625 161.105469 211.386719 161.128906 211.007812 161.191406 C 210.632812 161.253906 210.265625 161.351562 209.910156 161.484375 C 209.550781 161.617188 209.210938 161.78125 208.882812 161.976562 C 208.554688 162.175781 208.253906 162.402344 207.96875 162.65625 C 207.6875 162.914062 207.429688 163.195312 207.199219 163.496094 C 202.707031 169.464844 197.917969 175.183594 192.835938 180.65625 C 192.5625 180.949219 192.320312 181.269531 192.105469 181.613281 C 191.894531 181.953125 191.71875 182.3125 191.574219 182.6875 C 191.429688 183.066406 191.324219 183.449219 191.253906 183.847656 C 191.1875 184.242188 191.15625 184.644531 191.164062 185.046875 C 191.171875 185.445312 191.21875 185.84375 191.300781 186.238281 C 191.386719 186.632812 191.507812 187.011719 191.664062 187.382812 C 191.820312 187.753906 192.011719 188.105469 192.238281 188.4375 C 192.460938 188.769531 192.71875 189.078125 193 189.363281 L 234.714844 231.074219 C 234.914062 231.273438 235.136719 231.445312 235.378906 231.59375 C 235.621094 231.742188 235.875 231.859375 236.144531 231.949219 C 236.414062 232.039062 236.6875 232.09375 236.972656 232.121094 C 237.253906 232.144531 237.535156 232.136719 237.816406 232.097656 C 238.097656 232.058594 238.367188 231.984375 238.632812 231.882812 C 238.898438 231.78125 239.144531 231.648438 239.378906 231.488281 C 239.613281 231.328125 239.828125 231.140625 240.019531 230.933594 C 240.210938 230.722656 240.375 230.496094 240.511719 230.246094 Z M 240.511719 230.246094 "/></g></g></g><g clip-rule="nonzero" clip-path="url(#clip19)"><g clip-rule="nonzero" clip-path="url(#clip20)"><g clip-rule="nonzero" clip-path="url(#clip21)"><path style=" stroke:none;fill-rule:nonzero;fill:rgb(100%,100%,100%);fill-opacity:1;" d="M 103.175781 179.96875 L 98.257812 179.992188 C 97.894531 179.992188 97.550781 180.0625 97.214844 180.199219 C 96.882812 180.335938 96.589844 180.535156 96.335938 180.789062 C 96.078125 181.042969 95.882812 181.339844 95.746094 181.671875 C 95.605469 182.003906 95.535156 182.351562 95.535156 182.710938 C 95.535156 183.070312 95.605469 183.417969 95.742188 183.75 C 95.878906 184.082031 96.078125 184.378906 96.332031 184.632812 C 96.585938 184.886719 96.878906 185.082031 97.210938 185.222656 C 97.546875 185.359375 97.890625 185.425781 98.253906 185.425781 L 103.171875 185.441406 C 104.230469 185.4375 105.140625 185.800781 105.90625 186.53125 L 114.875 195.5 C 115.710938 196.339844 116.644531 197.046875 117.675781 197.625 C 118.707031 198.199219 119.800781 198.625 120.953125 198.898438 C 122.101562 199.167969 123.269531 199.277344 124.453125 199.222656 C 125.632812 199.167969 126.785156 198.949219 127.90625 198.574219 L 145.136719 192.820312 C 145.496094 192.703125 145.816406 192.511719 146.09375 192.246094 C 146.453125 191.882812 146.691406 191.457031 146.808594 190.960938 C 146.925781 190.464844 146.90625 189.972656 146.746094 189.488281 C 146.632812 189.148438 146.460938 188.84375 146.226562 188.574219 C 145.992188 188.304688 145.71875 188.085938 145.398438 187.925781 C 145.078125 187.765625 144.742188 187.671875 144.386719 187.644531 C 144.027344 187.617188 143.679688 187.660156 143.339844 187.769531 L 126.113281 193.523438 C 125.472656 193.726562 124.820312 193.835938 124.152344 193.859375 C 123.480469 193.882812 122.820312 193.8125 122.171875 193.652344 C 121.523438 193.492188 120.90625 193.246094 120.324219 192.917969 C 119.742188 192.585938 119.214844 192.183594 118.746094 191.710938 L 109.738281 182.703125 C 108.867188 181.832031 107.863281 181.160156 106.726562 180.6875 C 105.589844 180.214844 104.40625 179.976562 103.175781 179.96875 Z M 103.175781 179.96875 "/></g></g></g><g clip-rule="nonzero" clip-path="url(#clip22)"><g clip-rule="nonzero" clip-path="url(#clip23)"><g clip-rule="nonzero" clip-path="url(#clip24)"><path style=" stroke:none;fill-rule:nonzero;fill:rgb(100%,100%,100%);fill-opacity:1;" d="M 147.226562 244.664062 L 145.308594 246.578125 C 145.054688 246.832031 144.859375 247.125 144.722656 247.457031 C 144.585938 247.789062 144.515625 248.132812 144.515625 248.492188 C 144.515625 248.851562 144.582031 249.199219 144.722656 249.527344 C 144.859375 249.859375 145.054688 250.152344 145.308594 250.40625 C 145.5625 250.660156 145.851562 250.855469 146.183594 250.992188 C 146.515625 251.128906 146.859375 251.199219 147.21875 251.199219 C 147.578125 251.199219 147.925781 251.128906 148.257812 250.992188 C 148.585938 250.855469 148.878906 250.65625 149.132812 250.402344 L 151.050781 248.488281 C 151.617188 247.921875 152.109375 247.292969 152.523438 246.605469 C 152.9375 245.917969 153.261719 245.191406 153.496094 244.421875 C 153.730469 243.652344 153.867188 242.867188 153.910156 242.066406 C 153.949219 241.265625 153.890625 240.472656 153.734375 239.683594 L 151.597656 228.816406 C 151.382812 227.84375 151.414062 226.882812 151.691406 225.929688 C 151.964844 224.972656 152.453125 224.144531 153.152344 223.4375 L 157.558594 219.03125 C 157.8125 218.777344 158.007812 218.484375 158.144531 218.152344 C 158.28125 217.820312 158.351562 217.476562 158.351562 217.117188 C 158.351562 216.757812 158.28125 216.414062 158.144531 216.082031 C 158.007812 215.75 157.8125 215.457031 157.558594 215.203125 C 157.304688 214.949219 157.015625 214.753906 156.683594 214.617188 C 156.351562 214.480469 156.003906 214.414062 155.648438 214.414062 C 155.289062 214.414062 154.941406 214.480469 154.609375 214.617188 C 154.277344 214.757812 153.984375 214.953125 153.730469 215.207031 L 149.328125 219.609375 C 148.667969 220.269531 148.101562 220.996094 147.621094 221.792969 C 147.144531 222.589844 146.769531 223.433594 146.5 224.324219 C 146.230469 225.214844 146.074219 226.125 146.03125 227.054688 C 145.984375 227.984375 146.054688 228.902344 146.238281 229.8125 L 148.414062 240.757812 C 148.550781 241.46875 148.511719 242.167969 148.300781 242.859375 C 148.089844 243.546875 147.730469 244.148438 147.226562 244.664062 Z M 147.226562 244.664062 "/></g></g></g><g clip-rule="nonzero" clip-path="url(#clip25)"><g clip-rule="nonzero" clip-path="url(#clip26)"><g clip-rule="nonzero" clip-path="url(#clip27)"><path style=" stroke:none;fill-rule:nonzero;fill:rgb(100%,100%,100%);fill-opacity:1;" d="M 179.722656 240.433594 L 179.714844 255.015625 C 179.703125 256.71875 180.019531 258.355469 180.667969 259.929688 C 181.320312 261.503906 182.25 262.886719 183.457031 264.082031 L 186.230469 266.855469 C 186.75 267.371094 187.136719 267.972656 187.390625 268.65625 C 187.648438 269.34375 187.753906 270.050781 187.703125 270.777344 L 187.296875 278.835938 C 187.273438 279.195312 187.320312 279.542969 187.433594 279.882812 C 187.550781 280.21875 187.726562 280.523438 187.964844 280.792969 C 188.199219 281.0625 188.480469 281.277344 188.800781 281.433594 C 189.121094 281.59375 189.460938 281.683594 189.820312 281.707031 C 190.632812 281.757812 191.328125 281.496094 191.90625 280.917969 C 192.386719 280.4375 192.648438 279.855469 192.691406 279.175781 L 193.097656 271.121094 C 193.203125 269.613281 192.988281 268.15625 192.457031 266.742188 C 191.929688 265.332031 191.128906 264.09375 190.0625 263.027344 L 187.382812 260.347656 C 186.691406 259.652344 186.15625 258.851562 185.777344 257.945312 C 185.398438 257.035156 185.210938 256.089844 185.207031 255.105469 L 185.214844 240.523438 C 185.246094 240.148438 185.199219 239.78125 185.074219 239.425781 C 184.949219 239.070312 184.761719 238.753906 184.503906 238.476562 C 184.25 238.199219 183.949219 237.988281 183.601562 237.835938 C 183.257812 237.683594 182.898438 237.609375 182.519531 237.609375 C 182.144531 237.609375 181.78125 237.6875 181.4375 237.835938 C 181.089844 237.988281 180.789062 238.203125 180.53125 238.480469 C 180.277344 238.757812 180.085938 239.074219 179.960938 239.429688 C 179.839844 239.785156 179.789062 240.152344 179.820312 240.527344 Z M 179.722656 240.433594 "/></g></g></g><g clip-rule="nonzero" clip-path="url(#clip28)"><g clip-rule="nonzero" clip-path="url(#clip29)"><g clip-rule="nonzero" clip-path="url(#clip30)"><path style=" stroke:none;fill-rule:nonzero;fill:rgb(100%,100%,100%);fill-opacity:1;" d="M 179.800781 98.449219 L 179.777344 103.367188 C 179.785156 104.597656 180.023438 105.78125 180.496094 106.917969 C 180.96875 108.054688 181.640625 109.058594 182.511719 109.929688 L 191.480469 118.898438 C 191.960938 119.375 192.371094 119.910156 192.703125 120.503906 C 193.035156 121.097656 193.28125 121.722656 193.4375 122.382812 C 193.59375 123.046875 193.65625 123.714844 193.625 124.394531 C 193.59375 125.074219 193.472656 125.734375 193.253906 126.378906 L 187.5 143.609375 C 187.390625 143.949219 187.347656 144.296875 187.375 144.652344 C 187.402344 145.007812 187.496094 145.347656 187.660156 145.667969 C 187.820312 145.984375 188.035156 146.261719 188.304688 146.496094 C 188.578125 146.726562 188.882812 146.902344 189.222656 147.011719 C 189.722656 147.179688 190.230469 147.195312 190.746094 147.0625 C 191.257812 146.933594 191.695312 146.671875 192.054688 146.285156 C 192.363281 145.984375 192.582031 145.625 192.707031 145.210938 L 198.363281 128.078125 C 198.738281 126.964844 198.953125 125.820312 199.011719 124.644531 C 199.066406 123.46875 198.960938 122.308594 198.695312 121.164062 C 198.429688 120.019531 198.011719 118.929688 197.441406 117.902344 C 196.875 116.871094 196.175781 115.941406 195.347656 115.105469 L 186.339844 106.097656 C 185.609375 105.332031 185.246094 104.421875 185.25 103.363281 L 185.253906 98.464844 C 185.253906 98.101562 185.183594 97.757812 185.046875 97.425781 C 184.910156 97.089844 184.714844 96.796875 184.457031 96.542969 C 184.203125 96.289062 183.910156 96.09375 183.578125 95.957031 C 183.246094 95.820312 182.898438 95.75 182.539062 95.75 C 182.179688 95.75 181.832031 95.820312 181.5 95.957031 C 181.167969 96.09375 180.871094 96.292969 180.617188 96.546875 C 180.363281 96.800781 180.167969 97.09375 180.027344 97.425781 C 179.890625 97.761719 179.820312 98.105469 179.820312 98.46875 Z M 179.800781 98.449219 "/></g></g></g><g clip-rule="nonzero" clip-path="url(#clip31)"><g clip-rule="nonzero" clip-path="url(#clip32)"><g clip-rule="nonzero" clip-path="url(#clip33)"><path style=" stroke:none;fill-rule:nonzero;fill:rgb(100%,100%,100%);fill-opacity:1;" d="M 250.269531 149.269531 C 250.523438 149.015625 250.71875 148.722656 250.855469 148.390625 C 250.996094 148.058594 251.0625 147.714844 251.0625 147.355469 C 251.0625 146.996094 250.996094 146.648438 250.859375 146.320312 C 250.722656 145.988281 250.527344 145.695312 250.273438 145.441406 C 250.019531 145.1875 249.726562 144.992188 249.394531 144.855469 C 249.0625 144.71875 248.71875 144.648438 248.359375 144.648438 C 248 144.648438 247.65625 144.71875 247.324219 144.855469 C 246.992188 144.992188 246.699219 145.191406 246.445312 145.445312 L 244.53125 147.359375 C 244.015625 147.867188 243.414062 148.226562 242.722656 148.433594 C 242.03125 148.644531 241.332031 148.683594 240.625 148.546875 L 229.679688 146.375 C 228.761719 146.1875 227.835938 146.117188 226.898438 146.164062 C 225.964844 146.210938 225.046875 146.371094 224.152344 146.644531 C 223.257812 146.921875 222.410156 147.300781 221.605469 147.789062 C 220.804688 148.273438 220.078125 148.851562 219.417969 149.519531 L 215.015625 153.921875 C 214.761719 154.179688 214.566406 154.46875 214.425781 154.800781 C 214.289062 155.132812 214.222656 155.480469 214.222656 155.839844 C 214.21875 156.195312 214.289062 156.542969 214.425781 156.875 C 214.5625 157.207031 214.757812 157.496094 215.011719 157.75 C 215.265625 158.003906 215.558594 158.199219 215.890625 158.335938 C 216.222656 158.472656 216.566406 158.542969 216.925781 158.542969 C 217.285156 158.542969 217.628906 158.472656 217.960938 158.335938 C 218.292969 158.199219 218.585938 158.003906 218.839844 157.75 L 223.246094 153.34375 C 223.953125 152.644531 224.78125 152.15625 225.738281 151.882812 C 226.691406 151.605469 227.652344 151.574219 228.625 151.789062 L 239.511719 153.90625 C 240.296875 154.0625 241.09375 154.121094 241.894531 154.082031 C 242.695312 154.039062 243.480469 153.902344 244.25 153.667969 C 245.015625 153.433594 245.746094 153.109375 246.433594 152.695312 C 247.121094 152.28125 247.75 151.792969 248.316406 151.222656 Z M 250.269531 149.269531 "/></g></g></g><g clip-rule="nonzero" clip-path="url(#clip34)"><g clip-rule="nonzero" clip-path="url(#clip35)"><g clip-rule="nonzero" clip-path="url(#clip36)"><path style=" stroke:none;fill-rule:nonzero;fill:rgb(100%,100%,100%);fill-opacity:1;" d="M 278.453125 187.296875 L 270.394531 187.703125 C 269.714844 187.75 269.046875 187.664062 268.398438 187.441406 C 267.753906 187.21875 267.175781 186.878906 266.664062 186.421875 L 263.988281 183.746094 C 262.792969 182.535156 261.40625 181.605469 259.832031 180.957031 C 258.257812 180.308594 256.621094 179.988281 254.917969 180 L 240.238281 179.914062 C 239.898438 179.941406 239.578125 180.027344 239.269531 180.179688 C 238.964844 180.328125 238.695312 180.527344 238.460938 180.777344 C 238.230469 181.027344 238.050781 181.308594 237.929688 181.628906 C 237.804688 181.945312 237.742188 182.273438 237.742188 182.617188 C 237.742188 182.957031 237.800781 183.285156 237.925781 183.601562 C 238.050781 183.917969 238.226562 184.203125 238.460938 184.453125 C 238.691406 184.703125 238.960938 184.902344 239.265625 185.050781 C 239.574219 185.199219 239.898438 185.285156 240.238281 185.3125 L 254.820312 185.300781 C 255.804688 185.304688 256.75 185.496094 257.65625 185.875 C 258.5625 186.25 259.367188 186.785156 260.0625 187.480469 L 262.835938 190.253906 C 263.902344 191.320312 265.140625 192.121094 266.550781 192.648438 C 267.964844 193.179688 269.421875 193.394531 270.929688 193.289062 L 278.984375 192.882812 C 279.664062 192.839844 280.246094 192.578125 280.726562 192.097656 C 281.304688 191.519531 281.566406 190.824219 281.515625 190.011719 C 281.515625 189.816406 281.5 189.625 281.460938 189.433594 C 281.421875 189.246094 281.363281 189.058594 281.285156 188.882812 C 281.207031 188.707031 281.109375 188.539062 280.996094 188.382812 C 280.878906 188.226562 280.75 188.082031 280.605469 187.953125 C 280.460938 187.824219 280.304688 187.710938 280.132812 187.617188 C 279.964844 187.523438 279.785156 187.445312 279.601562 187.390625 C 279.414062 187.332031 279.226562 187.296875 279.03125 187.28125 C 278.839844 187.265625 278.644531 187.269531 278.453125 187.296875 Z M 278.453125 187.296875 "/></g></g></g><g style="fill:rgb(0%,0%,0%);fill-opacity:1;"><g transform="translate(101.571092, 86.705147)"><path style="stroke:none;" d="M 27.9375 -14.328125 C 27.9375 -11.089844 25.199219 -8.425781 21.960938 -8.425781 L 15.121094 -8.425781 L 15.121094 -20.230469 L 21.960938 -20.230469 C 25.199219 -20.230469 27.9375 -17.496094 27.9375 -14.328125 Z M 24.550781 -34.777344 C 24.550781 -31.679688 21.960938 -29.089844 18.863281 -29.089844 L 15.121094 -29.089844 L 15.121094 -40.464844 L 18.863281 -40.464844 C 21.960938 -40.464844 24.550781 -37.945312 24.550781 -34.777344 Z M 38.953125 -14.039062 C 38.953125 -20.664062 34.488281 -25.054688 29.015625 -26.351562 C 32.6875 -28.007812 34.847656 -31.753906 34.847656 -36.71875 C 34.847656 -43.414062 29.519531 -48.960938 21.167969 -48.960938 L 4.320312 -48.960938 L 4.320312 0 L 24.121094 0 C 33.480469 0 38.953125 -5.617188 38.953125 -14.039062 Z M 38.953125 -14.039062 "/></g></g><g style="fill:rgb(0%,0%,0%);fill-opacity:1;"><g transform="translate(155.643072, 86.705147)"><path style="stroke:none;" d="M 32.902344 -48.960938 L 32.902344 -20.664062 C 32.902344 -13.894531 30.886719 -10.078125 23.472656 -10.078125 C 16.128906 -10.078125 14.039062 -13.894531 14.039062 -20.664062 L 14.039062 -48.960938 L 3.238281 -48.960938 L 3.238281 -19.078125 C 3.238281 -6.046875 10.726562 0.71875 23.472656 0.71875 C 36.214844 0.71875 43.703125 -6.046875 43.703125 -19.078125 L 43.703125 -48.960938 Z M 32.902344 -48.960938 "/></g></g><g style="fill:rgb(0%,0%,0%);fill-opacity:1;"><g transform="translate(216.987039, 86.705147)"><path style="stroke:none;" d="M 28.800781 -39.601562 C 33.550781 -39.601562 38.449219 -37.65625 40.824219 -32.472656 L 52.703125 -32.472656 C 49.320312 -42.625 39.601562 -49.679688 28.800781 -49.679688 C 14.976562 -49.679688 3.601562 -38.304688 3.601562 -24.480469 C 3.601562 -10.65625 14.976562 0.71875 28.800781 0.71875 C 42.769531 0.71875 53.929688 -10.585938 53.929688 -24.480469 L 53.929688 -26.136719 L 29.808594 -26.136719 L 29.808594 -18 L 42.265625 -18 C 39.601562 -10.585938 33.550781 -9.070312 28.800781 -9.070312 C 21.023438 -9.070312 14.542969 -16.054688 14.542969 -24.335938 C 14.542969 -32.617188 21.023438 -39.601562 28.800781 -39.601562 Z M 28.800781 -39.601562 "/></g></g><g style="fill:rgb(0%,0%,0%);fill-opacity:1;"><g transform="translate(96.547421, 337.858571)"><path style="stroke:none;" d="M 42.121094 -24.550781 C 42.121094 -16.992188 35.28125 -10.078125 27.71875 -10.078125 C 20.160156 -10.078125 13.320312 -16.992188 13.320312 -24.550781 C 13.320312 -32.113281 20.160156 -38.953125 27.71875 -38.953125 C 35.28125 -38.953125 42.121094 -32.113281 42.121094 -24.550781 Z M 52.921875 -24.480469 C 52.921875 -38.015625 41.257812 -49.679688 27.71875 -49.679688 C 14.183594 -49.679688 2.519531 -38.015625 2.519531 -24.480469 C 2.519531 -10.945312 14.183594 0.71875 27.71875 0.71875 C 41.257812 0.71875 52.921875 -10.945312 52.921875 -24.480469 Z M 52.921875 -24.480469 "/></g></g><g style="fill:rgb(0%,0%,0%);fill-opacity:1;"><g transform="translate(166.38739, 337.858571)"><path style="stroke:none;" d="M 32.902344 -48.960938 L 32.902344 -20.664062 C 32.902344 -13.894531 30.886719 -10.078125 23.472656 -10.078125 C 16.128906 -10.078125 14.039062 -13.894531 14.039062 -20.664062 L 14.039062 -48.960938 L 3.238281 -48.960938 L 3.238281 -19.078125 C 3.238281 -6.046875 10.726562 0.71875 23.472656 0.71875 C 36.214844 0.71875 43.703125 -6.046875 43.703125 -19.078125 L 43.703125 -48.960938 Z M 32.902344 -48.960938 "/></g></g><g style="fill:rgb(0%,0%,0%);fill-opacity:1;"><g transform="translate(227.731358, 337.858571)"><path style="stroke:none;" d="M 25.128906 -39.167969 L 39.097656 -39.167969 L 39.097656 -48.960938 L 0.359375 -48.960938 L 0.359375 -39.167969 L 14.328125 -39.167969 L 14.328125 0 L 25.128906 0 Z M 25.128906 -39.167969 "/></g></g></g></svg>