<?xml version="1.0" encoding="utf-8"?>
<!-- Generator: Adobe Illustrator 25.4.1, SVG Export Plug-In . SVG Version: 6.00 Build 0)  -->
<svg version="1.1" xmlns="http://www.w3.org/2000/svg" xmlns:xlink="http://www.w3.org/1999/xlink" x="0px" y="0px"
	 viewBox="0 0 500 500" style="enable-background:new 0 0 500 500;" xml:space="preserve">
<style type="text/css">
	.st0{fill:#FF95A2;}
	.st1{fill:#FFFFFF;}
	.st2{fill:#CCCCCC;}
	.st3{fill:#BAD459;}
	.st4{fill:#1A1A1A;}
	.st5{fill:#9CA076;}
	.st6{fill:#737860;}
	.st7{fill:#9CB93E;}
	.st8{fill:#D7E475;}
	.st9{fill:#C4C4C4;}
	.st10{fill:#AF0035;}
	.st11{fill:#B9DAE9;}
	.st12{fill:#8BB0CC;}
	.st13{fill:#FF5574;}
</style>
<g id="Background">
	<rect class="st0" width="500" height="500"/>
</g>
<g id="Layer_1">
	<g>
		<path class="st1" d="M240.8,300.7c0,0-0.1,0-0.1,0c0,0,0,0,0,0c0,0-0.1,0-0.1,0c0,0-0.1,0-0.1,0c0,0-0.1,0-0.1,0c0,0-0.1,0-0.1,0
			c0,0,0,0,0,0c0,0,0,0,0,0c-0.1,0-0.1,0-0.2,0.1c0,0-0.1,0-0.1,0c0,0-0.1,0-0.1,0.1c0,0-0.1,0-0.1,0.1c0,0-0.1,0-0.1,0.1
			c0,0-0.1,0-0.1,0.1c0,0-0.1,0-0.1,0.1c0,0-0.1,0.1-0.1,0.1c0,0-0.1,0.1-0.1,0.1c0,0-0.1,0.1-0.1,0.1c0,0-0.1,0.1-0.1,0.1
			c0,0-0.1,0.1-0.1,0.1c0,0-0.1,0.1-0.1,0.1c0,0-0.1,0.1-0.1,0.1c0,0,0,0.1-0.1,0.1c0,0,0,0.1-0.1,0.1c0,0,0,0.1-0.1,0.1
			c0,0,0,0.1-0.1,0.1c0,0,0,0.1,0,0.1c0,0,0,0.1,0,0.1c0,0,0,0.1,0,0.1c0,0,0,0.1,0,0.1c0,0,0,0.1,0,0.1c0,0,0,0.1,0,0.1
			c0,0,0,0.1,0,0.1c0,0,0,0,0,0c0,0,0,0.1,0,0.1c0,0,0,0,0,0c0,0,0,0.1,0,0.1c0,0,0,0.1,0,0.1c0,0,0,0.1,0,0.1c0,0,0,0.1,0,0.1
			c0,0,0,0,0,0c0,0,0,0,0,0c0,0.1,0,0.1,0.1,0.2c0,0,0,0.1,0.1,0.1c0,0,0,0.1,0.1,0.1c0,0,0,0.1,0.1,0.1c0,0,0,0.1,0.1,0.1
			c0,0,0,0.1,0.1,0.1c0,0,0.1,0.1,0.1,0.1c0,0,0.1,0.1,0.1,0.1c0,0,0.1,0.1,0.1,0.1c0,0,0.1,0.1,0.1,0.1c0,0,0.1,0.1,0.1,0.1
			c0,0,0.1,0.1,0.1,0.1c0,0,0.1,0.1,0.1,0.1c0,0,0.1,0,0.1,0.1c0,0,0.1,0,0.1,0.1c0,0,0.1,0,0.1,0.1c0,0,0.1,0,0.1,0.1
			c0,0,0.1,0,0.1,0c0,0,0.1,0,0.1,0c0,0,0.1,0,0.1,0c0,0,0.1,0,0.1,0c0,0,0.1,0,0.1,0c0,0,0.1,0,0.1,0c0,0,0.1,0,0.1,0
			c0,0,0.1,0,0.1,0c0,0,0,0,0.1,0c0,0,0.1,0,0.1,0c0,0,0,0,0,0c0,0,0.1,0,0.1,0c0,0,0.1,0,0.1,0c0,0,0.1,0,0.1,0c0,0,0.1,0,0.1,0
			c0,0,0,0,0,0c0,0,0,0,0,0c0.1,0,0.1,0,0.2-0.1c0,0,0.1,0,0.1,0c0,0,0.1,0,0.1-0.1c0,0,0.1,0,0.1-0.1c0,0,0.1,0,0.1-0.1
			c0,0,0.1,0,0.1-0.1c0,0,0.1,0,0.1-0.1c0,0,0.1-0.1,0.1-0.1c0,0,0.1-0.1,0.1-0.1c0,0,0.1-0.1,0.1-0.1c0,0,0.1-0.1,0.1-0.1
			c0,0,0.1-0.1,0.1-0.1c0,0,0.1-0.1,0.1-0.1c0,0,0.1-0.1,0.1-0.1c0,0,0-0.1,0.1-0.1c0,0,0-0.1,0.1-0.1c0,0,0-0.1,0.1-0.1
			c0,0,0-0.1,0.1-0.1c0,0,0-0.1,0-0.1c0,0,0-0.1,0-0.1c0,0,0-0.1,0-0.1c0,0,0-0.1,0-0.1c0,0,0-0.1,0-0.1c0,0,0-0.1,0-0.1
			c0,0,0-0.1,0-0.1c0,0,0,0,0,0c0,0,0-0.1,0-0.1c0,0,0,0,0,0c0,0,0-0.1,0-0.1c0,0,0-0.1,0-0.1c0,0,0-0.1,0-0.1c0,0,0-0.1,0-0.1
			c0,0,0,0,0,0c0,0,0,0,0,0c0-0.1,0-0.1-0.1-0.2c0,0,0-0.1-0.1-0.1c0,0,0-0.1-0.1-0.1c0,0,0-0.1-0.1-0.1c0,0,0-0.1-0.1-0.1
			c0,0-0.1-0.1-0.1-0.1c0,0-0.1-0.1-0.1-0.1c0,0-0.1-0.1-0.1-0.1c0,0-0.1-0.1-0.1-0.1c0,0-0.1-0.1-0.1-0.1c0,0-0.1-0.1-0.1-0.1
			c0,0-0.1-0.1-0.1-0.1c0,0-0.1-0.1-0.1-0.1c0,0-0.1,0-0.1-0.1c0,0-0.1,0-0.1-0.1c0,0-0.1,0-0.1-0.1c0,0-0.1,0-0.1-0.1
			c0,0-0.1,0-0.1,0c0,0-0.1,0-0.1,0c0,0-0.1,0-0.1,0c0,0-0.1,0-0.1,0c0,0-0.1,0-0.1,0c0,0-0.1,0-0.1,0c0,0-0.1,0-0.1,0
			C240.9,300.7,240.9,300.7,240.8,300.7C240.8,300.7,240.8,300.7,240.8,300.7L240.8,300.7z M240.8,300.7"/>
		<path class="st1" d="M240.8,300.7c0,0-0.1,0-0.1,0c0,0,0,0,0,0c0,0-0.1,0-0.1,0c0,0-0.1,0-0.1,0c0,0-0.1,0-0.1,0c0,0-0.1,0-0.1,0
			c0,0,0,0,0,0c0,0,0,0,0,0c-0.1,0-0.1,0-0.2,0.1c0,0-0.1,0-0.1,0c0,0-0.1,0-0.1,0.1c0,0-0.1,0-0.1,0.1c0,0-0.1,0-0.1,0.1
			c0,0-0.1,0-0.1,0.1c0,0-0.1,0-0.1,0.1c0,0-0.1,0.1-0.1,0.1c0,0-0.1,0.1-0.1,0.1c0,0-0.1,0.1-0.1,0.1c0,0-0.1,0.1-0.1,0.1
			c0,0-0.1,0.1-0.1,0.1c0,0-0.1,0.1-0.1,0.1c0,0-0.1,0.1-0.1,0.1c0,0,0,0.1-0.1,0.1c0,0,0,0.1-0.1,0.1c0,0,0,0.1-0.1,0.1
			c0,0,0,0.1-0.1,0.1c0,0,0,0.1,0,0.1c0,0,0,0.1,0,0.1c0,0,0,0.1,0,0.1c0,0,0,0.1,0,0.1c0,0,0,0.1,0,0.1c0,0,0,0.1,0,0.1
			c0,0,0,0.1,0,0.1c0,0,0,0,0,0c0,0,0,0.1,0,0.1c0,0,0,0,0,0c0,0,0,0.1,0,0.1c0,0,0,0.1,0,0.1c0,0,0,0.1,0,0.1c0,0,0,0.1,0,0.1
			c0,0,0,0,0,0c0,0,0,0,0,0c0,0.1,0,0.1,0.1,0.2c0,0,0,0.1,0.1,0.1c0,0,0,0.1,0.1,0.1c0,0,0,0.1,0.1,0.1c0,0,0,0.1,0.1,0.1
			c0,0,0,0.1,0.1,0.1c0,0,0.1,0.1,0.1,0.1c0,0,0.1,0.1,0.1,0.1c0,0,0.1,0.1,0.1,0.1c0,0,0.1,0.1,0.1,0.1c0,0,0.1,0.1,0.1,0.1
			c0,0,0.1,0.1,0.1,0.1c0,0,0.1,0.1,0.1,0.1c0,0,0.1,0,0.1,0.1c0,0,0.1,0,0.1,0.1c0,0,0.1,0,0.1,0.1c0,0,0.1,0,0.1,0.1
			c0,0,0.1,0,0.1,0c0,0,0.1,0,0.1,0c0,0,0.1,0,0.1,0c0,0,0.1,0,0.1,0c0,0,0.1,0,0.1,0c0,0,0.1,0,0.1,0c0,0,0.1,0,0.1,0
			c0,0,0.1,0,0.1,0c0,0,0,0,0.1,0c0,0,0.1,0,0.1,0c0,0,0,0,0,0c0,0,0.1,0,0.1,0c0,0,0.1,0,0.1,0c0,0,0.1,0,0.1,0c0,0,0.1,0,0.1,0
			c0,0,0,0,0,0c0,0,0,0,0,0c0.1,0,0.1,0,0.2-0.1c0,0,0.1,0,0.1,0c0,0,0.1,0,0.1-0.1c0,0,0.1,0,0.1-0.1c0,0,0.1,0,0.1-0.1
			c0,0,0.1,0,0.1-0.1c0,0,0.1,0,0.1-0.1c0,0,0.1-0.1,0.1-0.1c0,0,0.1-0.1,0.1-0.1c0,0,0.1-0.1,0.1-0.1c0,0,0.1-0.1,0.1-0.1
			c0,0,0.1-0.1,0.1-0.1c0,0,0.1-0.1,0.1-0.1c0,0,0.1-0.1,0.1-0.1c0,0,0-0.1,0.1-0.1c0,0,0-0.1,0.1-0.1c0,0,0-0.1,0.1-0.1
			c0,0,0-0.1,0.1-0.1c0,0,0-0.1,0-0.1c0,0,0-0.1,0-0.1c0,0,0-0.1,0-0.1c0,0,0-0.1,0-0.1c0,0,0-0.1,0-0.1c0,0,0-0.1,0-0.1
			c0,0,0-0.1,0-0.1c0,0,0,0,0,0c0,0,0-0.1,0-0.1c0,0,0,0,0,0c0,0,0-0.1,0-0.1c0,0,0-0.1,0-0.1c0,0,0-0.1,0-0.1c0,0,0-0.1,0-0.1
			c0,0,0,0,0,0c0,0,0,0,0,0c0-0.1,0-0.1-0.1-0.2c0,0,0-0.1-0.1-0.1c0,0,0-0.1-0.1-0.1c0,0,0-0.1-0.1-0.1c0,0,0-0.1-0.1-0.1
			c0,0-0.1-0.1-0.1-0.1c0,0-0.1-0.1-0.1-0.1c0,0-0.1-0.1-0.1-0.1c0,0-0.1-0.1-0.1-0.1c0,0-0.1-0.1-0.1-0.1c0,0-0.1-0.1-0.1-0.1
			c0,0-0.1-0.1-0.1-0.1c0,0-0.1-0.1-0.1-0.1c0,0-0.1,0-0.1-0.1c0,0-0.1,0-0.1-0.1c0,0-0.1,0-0.1-0.1c0,0-0.1,0-0.1-0.1
			c0,0-0.1,0-0.1,0c0,0-0.1,0-0.1,0c0,0-0.1,0-0.1,0c0,0-0.1,0-0.1,0c0,0-0.1,0-0.1,0c0,0-0.1,0-0.1,0c0,0-0.1,0-0.1,0
			C240.9,300.7,240.9,300.7,240.8,300.7C240.8,300.7,240.8,300.7,240.8,300.7L240.8,300.7z M240.8,300.7"/>
		<path class="st1" d="M240.8,300.7c0,0-0.1,0-0.1,0c0,0,0,0,0,0c0,0-0.1,0-0.1,0c0,0-0.1,0-0.1,0c0,0-0.1,0-0.1,0c0,0-0.1,0-0.1,0
			c0,0,0,0,0,0c0,0,0,0,0,0c-0.1,0-0.1,0-0.2,0.1c0,0-0.1,0-0.1,0c0,0-0.1,0-0.1,0.1c0,0-0.1,0-0.1,0.1c0,0-0.1,0-0.1,0.1
			c0,0-0.1,0-0.1,0.1c0,0-0.1,0-0.1,0.1c0,0-0.1,0.1-0.1,0.1c0,0-0.1,0.1-0.1,0.1c0,0-0.1,0.1-0.1,0.1c0,0-0.1,0.1-0.1,0.1
			c0,0-0.1,0.1-0.1,0.1c0,0-0.1,0.1-0.1,0.1c0,0-0.1,0.1-0.1,0.1c0,0,0,0.1-0.1,0.1c0,0,0,0.1-0.1,0.1c0,0,0,0.1-0.1,0.1
			c0,0,0,0.1-0.1,0.1c0,0,0,0.1,0,0.1c0,0,0,0.1,0,0.1c0,0,0,0.1,0,0.1c0,0,0,0.1,0,0.1c0,0,0,0.1,0,0.1c0,0,0,0.1,0,0.1
			c0,0,0,0.1,0,0.1c0,0,0,0,0,0c0,0,0,0.1,0,0.1c0,0,0,0,0,0c0,0,0,0.1,0,0.1c0,0,0,0.1,0,0.1c0,0,0,0.1,0,0.1c0,0,0,0.1,0,0.1
			c0,0,0,0,0,0c0,0,0,0,0,0c0,0.1,0,0.1,0.1,0.2c0,0,0,0.1,0.1,0.1c0,0,0,0.1,0.1,0.1c0,0,0,0.1,0.1,0.1c0,0,0,0.1,0.1,0.1
			c0,0,0,0.1,0.1,0.1c0,0,0.1,0.1,0.1,0.1c0,0,0.1,0.1,0.1,0.1c0,0,0.1,0.1,0.1,0.1c0,0,0.1,0.1,0.1,0.1c0,0,0.1,0.1,0.1,0.1
			c0,0,0.1,0.1,0.1,0.1c0,0,0.1,0.1,0.1,0.1c0,0,0.1,0,0.1,0.1c0,0,0.1,0,0.1,0.1c0,0,0.1,0,0.1,0.1c0,0,0.1,0,0.1,0.1
			c0,0,0.1,0,0.1,0c0,0,0.1,0,0.1,0c0,0,0.1,0,0.1,0c0,0,0.1,0,0.1,0c0,0,0.1,0,0.1,0c0,0,0.1,0,0.1,0c0,0,0.1,0,0.1,0
			c0,0,0.1,0,0.1,0c0,0,0,0,0.1,0c0,0,0.1,0,0.1,0c0,0,0,0,0,0c0,0,0.1,0,0.1,0c0,0,0.1,0,0.1,0c0,0,0.1,0,0.1,0c0,0,0.1,0,0.1,0
			c0,0,0,0,0,0c0,0,0,0,0,0c0.1,0,0.1,0,0.2-0.1c0,0,0.1,0,0.1,0c0,0,0.1,0,0.1-0.1c0,0,0.1,0,0.1-0.1c0,0,0.1,0,0.1-0.1
			c0,0,0.1,0,0.1-0.1c0,0,0.1,0,0.1-0.1c0,0,0.1-0.1,0.1-0.1c0,0,0.1-0.1,0.1-0.1c0,0,0.1-0.1,0.1-0.1c0,0,0.1-0.1,0.1-0.1
			c0,0,0.1-0.1,0.1-0.1c0,0,0.1-0.1,0.1-0.1c0,0,0.1-0.1,0.1-0.1c0,0,0-0.1,0.1-0.1c0,0,0-0.1,0.1-0.1c0,0,0-0.1,0.1-0.1
			c0,0,0-0.1,0.1-0.1c0,0,0-0.1,0-0.1c0,0,0-0.1,0-0.1c0,0,0-0.1,0-0.1c0,0,0-0.1,0-0.1c0,0,0-0.1,0-0.1c0,0,0-0.1,0-0.1
			c0,0,0-0.1,0-0.1c0,0,0,0,0,0c0,0,0-0.1,0-0.1c0,0,0,0,0,0c0,0,0-0.1,0-0.1c0,0,0-0.1,0-0.1c0,0,0-0.1,0-0.1c0,0,0-0.1,0-0.1
			c0,0,0,0,0,0c0,0,0,0,0,0c0-0.1,0-0.1-0.1-0.2c0,0,0-0.1-0.1-0.1c0,0,0-0.1-0.1-0.1c0,0,0-0.1-0.1-0.1c0,0,0-0.1-0.1-0.1
			c0,0-0.1-0.1-0.1-0.1c0,0-0.1-0.1-0.1-0.1c0,0-0.1-0.1-0.1-0.1c0,0-0.1-0.1-0.1-0.1c0,0-0.1-0.1-0.1-0.1c0,0-0.1-0.1-0.1-0.1
			c0,0-0.1-0.1-0.1-0.1c0,0-0.1-0.1-0.1-0.1c0,0-0.1,0-0.1-0.1c0,0-0.1,0-0.1-0.1c0,0-0.1,0-0.1-0.1c0,0-0.1,0-0.1-0.1
			c0,0-0.1,0-0.1,0c0,0-0.1,0-0.1,0c0,0-0.1,0-0.1,0c0,0-0.1,0-0.1,0c0,0-0.1,0-0.1,0c0,0-0.1,0-0.1,0c0,0-0.1,0-0.1,0
			C240.9,300.7,240.9,300.7,240.8,300.7C240.8,300.7,240.8,300.7,240.8,300.7L240.8,300.7z M240.8,300.7"/>
		<path class="st1" d="M240.8,300.7c0,0-0.1,0-0.1,0c0,0,0,0,0,0c0,0-0.1,0-0.1,0c0,0-0.1,0-0.1,0c0,0-0.1,0-0.1,0c0,0-0.1,0-0.1,0
			c0,0,0,0,0,0c0,0,0,0,0,0c-0.1,0-0.1,0-0.2,0.1c0,0-0.1,0-0.1,0c0,0-0.1,0-0.1,0.1c0,0-0.1,0-0.1,0.1c0,0-0.1,0-0.1,0.1
			c0,0-0.1,0-0.1,0.1c0,0-0.1,0-0.1,0.1c0,0-0.1,0.1-0.1,0.1c0,0-0.1,0.1-0.1,0.1c0,0-0.1,0.1-0.1,0.1c0,0-0.1,0.1-0.1,0.1
			c0,0-0.1,0.1-0.1,0.1c0,0-0.1,0.1-0.1,0.1c0,0-0.1,0.1-0.1,0.1c0,0,0,0.1-0.1,0.1c0,0,0,0.1-0.1,0.1c0,0,0,0.1-0.1,0.1
			c0,0,0,0.1-0.1,0.1c0,0,0,0.1,0,0.1c0,0,0,0.1,0,0.1c0,0,0,0.1,0,0.1c0,0,0,0.1,0,0.1c0,0,0,0.1,0,0.1c0,0,0,0.1,0,0.1
			c0,0,0,0.1,0,0.1c0,0,0,0,0,0c0,0,0,0.1,0,0.1c0,0,0,0,0,0c0,0,0,0.1,0,0.1c0,0,0,0.1,0,0.1c0,0,0,0.1,0,0.1c0,0,0,0.1,0,0.1
			c0,0,0,0,0,0c0,0,0,0,0,0c0,0.1,0,0.1,0.1,0.2c0,0,0,0.1,0.1,0.1c0,0,0,0.1,0.1,0.1c0,0,0,0.1,0.1,0.1c0,0,0,0.1,0.1,0.1
			c0,0,0,0.1,0.1,0.1c0,0,0.1,0.1,0.1,0.1c0,0,0.1,0.1,0.1,0.1c0,0,0.1,0.1,0.1,0.1c0,0,0.1,0.1,0.1,0.1c0,0,0.1,0.1,0.1,0.1
			c0,0,0.1,0.1,0.1,0.1c0,0,0.1,0.1,0.1,0.1c0,0,0.1,0,0.1,0.1c0,0,0.1,0,0.1,0.1c0,0,0.1,0,0.1,0.1c0,0,0.1,0,0.1,0.1
			c0,0,0.1,0,0.1,0c0,0,0.1,0,0.1,0c0,0,0.1,0,0.1,0c0,0,0.1,0,0.1,0c0,0,0.1,0,0.1,0c0,0,0.1,0,0.1,0c0,0,0.1,0,0.1,0
			c0,0,0.1,0,0.1,0c0,0,0,0,0.1,0c0,0,0.1,0,0.1,0c0,0,0,0,0,0c0,0,0.1,0,0.1,0c0,0,0.1,0,0.1,0c0,0,0.1,0,0.1,0c0,0,0.1,0,0.1,0
			c0,0,0,0,0,0c0,0,0,0,0,0c0.1,0,0.1,0,0.2-0.1c0,0,0.1,0,0.1,0c0,0,0.1,0,0.1-0.1c0,0,0.1,0,0.1-0.1c0,0,0.1,0,0.1-0.1
			c0,0,0.1,0,0.1-0.1c0,0,0.1,0,0.1-0.1c0,0,0.1-0.1,0.1-0.1c0,0,0.1-0.1,0.1-0.1c0,0,0.1-0.1,0.1-0.1c0,0,0.1-0.1,0.1-0.1
			c0,0,0.1-0.1,0.1-0.1c0,0,0.1-0.1,0.1-0.1c0,0,0.1-0.1,0.1-0.1c0,0,0-0.1,0.1-0.1c0,0,0-0.1,0.1-0.1c0,0,0-0.1,0.1-0.1
			c0,0,0-0.1,0.1-0.1c0,0,0-0.1,0-0.1c0,0,0-0.1,0-0.1c0,0,0-0.1,0-0.1c0,0,0-0.1,0-0.1c0,0,0-0.1,0-0.1c0,0,0-0.1,0-0.1
			c0,0,0-0.1,0-0.1c0,0,0,0,0,0c0,0,0-0.1,0-0.1c0,0,0,0,0,0c0,0,0-0.1,0-0.1c0,0,0-0.1,0-0.1c0,0,0-0.1,0-0.1c0,0,0-0.1,0-0.1
			c0,0,0,0,0,0c0,0,0,0,0,0c0-0.1,0-0.1-0.1-0.2c0,0,0-0.1-0.1-0.1c0,0,0-0.1-0.1-0.1c0,0,0-0.1-0.1-0.1c0,0,0-0.1-0.1-0.1
			c0,0-0.1-0.1-0.1-0.1c0,0-0.1-0.1-0.1-0.1c0,0-0.1-0.1-0.1-0.1c0,0-0.1-0.1-0.1-0.1c0,0-0.1-0.1-0.1-0.1c0,0-0.1-0.1-0.1-0.1
			c0,0-0.1-0.1-0.1-0.1c0,0-0.1-0.1-0.1-0.1c0,0-0.1,0-0.1-0.1c0,0-0.1,0-0.1-0.1c0,0-0.1,0-0.1-0.1c0,0-0.1,0-0.1-0.1
			c0,0-0.1,0-0.1,0c0,0-0.1,0-0.1,0c0,0-0.1,0-0.1,0c0,0-0.1,0-0.1,0c0,0-0.1,0-0.1,0c0,0-0.1,0-0.1,0c0,0-0.1,0-0.1,0
			C240.9,300.7,240.9,300.7,240.8,300.7C240.8,300.7,240.8,300.7,240.8,300.7L240.8,300.7z M240.8,300.7"/>
		<path class="st1" d="M240.8,300.7c0,0-0.1,0-0.1,0c0,0,0,0,0,0c0,0-0.1,0-0.1,0c0,0-0.1,0-0.1,0c0,0-0.1,0-0.1,0c0,0-0.1,0-0.1,0
			c0,0,0,0,0,0c0,0,0,0,0,0c-0.1,0-0.1,0-0.2,0.1c0,0-0.1,0-0.1,0c0,0-0.1,0-0.1,0.1c0,0-0.1,0-0.1,0.1c0,0-0.1,0-0.1,0.1
			c0,0-0.1,0-0.1,0.1c0,0-0.1,0-0.1,0.1c0,0-0.1,0.1-0.1,0.1c0,0-0.1,0.1-0.1,0.1c0,0-0.1,0.1-0.1,0.1c0,0-0.1,0.1-0.1,0.1
			c0,0-0.1,0.1-0.1,0.1c0,0-0.1,0.1-0.1,0.1c0,0-0.1,0.1-0.1,0.1c0,0,0,0.1-0.1,0.1c0,0,0,0.1-0.1,0.1c0,0,0,0.1-0.1,0.1
			c0,0,0,0.1-0.1,0.1c0,0,0,0.1,0,0.1c0,0,0,0.1,0,0.1c0,0,0,0.1,0,0.1c0,0,0,0.1,0,0.1c0,0,0,0.1,0,0.1c0,0,0,0.1,0,0.1
			c0,0,0,0.1,0,0.1c0,0,0,0,0,0c0,0,0,0.1,0,0.1c0,0,0,0,0,0c0,0,0,0.1,0,0.1c0,0,0,0.1,0,0.1c0,0,0,0.1,0,0.1c0,0,0,0.1,0,0.1
			c0,0,0,0,0,0c0,0,0,0,0,0c0,0.1,0,0.1,0.1,0.2c0,0,0,0.1,0.1,0.1c0,0,0,0.1,0.1,0.1c0,0,0,0.1,0.1,0.1c0,0,0,0.1,0.1,0.1
			c0,0,0,0.1,0.1,0.1c0,0,0.1,0.1,0.1,0.1c0,0,0.1,0.1,0.1,0.1c0,0,0.1,0.1,0.1,0.1c0,0,0.1,0.1,0.1,0.1c0,0,0.1,0.1,0.1,0.1
			c0,0,0.1,0.1,0.1,0.1c0,0,0.1,0.1,0.1,0.1c0,0,0.1,0,0.1,0.1c0,0,0.1,0,0.1,0.1c0,0,0.1,0,0.1,0.1c0,0,0.1,0,0.1,0.1
			c0,0,0.1,0,0.1,0c0,0,0.1,0,0.1,0c0,0,0.1,0,0.1,0c0,0,0.1,0,0.1,0c0,0,0.1,0,0.1,0c0,0,0.1,0,0.1,0c0,0,0.1,0,0.1,0
			c0,0,0.1,0,0.1,0c0,0,0,0,0.1,0c0,0,0.1,0,0.1,0c0,0,0,0,0,0c0,0,0.1,0,0.1,0c0,0,0.1,0,0.1,0c0,0,0.1,0,0.1,0c0,0,0.1,0,0.1,0
			c0,0,0,0,0,0c0,0,0,0,0,0c0.1,0,0.1,0,0.2-0.1c0,0,0.1,0,0.1,0c0,0,0.1,0,0.1-0.1c0,0,0.1,0,0.1-0.1c0,0,0.1,0,0.1-0.1
			c0,0,0.1,0,0.1-0.1c0,0,0.1,0,0.1-0.1c0,0,0.1-0.1,0.1-0.1c0,0,0.1-0.1,0.1-0.1c0,0,0.1-0.1,0.1-0.1c0,0,0.1-0.1,0.1-0.1
			c0,0,0.1-0.1,0.1-0.1c0,0,0.1-0.1,0.1-0.1c0,0,0.1-0.1,0.1-0.1c0,0,0-0.1,0.1-0.1c0,0,0-0.1,0.1-0.1c0,0,0-0.1,0.1-0.1
			c0,0,0-0.1,0.1-0.1c0,0,0-0.1,0-0.1c0,0,0-0.1,0-0.1c0,0,0-0.1,0-0.1c0,0,0-0.1,0-0.1c0,0,0-0.1,0-0.1c0,0,0-0.1,0-0.1
			c0,0,0-0.1,0-0.1c0,0,0,0,0,0c0,0,0-0.1,0-0.1c0,0,0,0,0,0c0,0,0-0.1,0-0.1c0,0,0-0.1,0-0.1c0,0,0-0.1,0-0.1c0,0,0-0.1,0-0.1
			c0,0,0,0,0,0c0,0,0,0,0,0c0-0.1,0-0.1-0.1-0.2c0,0,0-0.1-0.1-0.1c0,0,0-0.1-0.1-0.1c0,0,0-0.1-0.1-0.1c0,0,0-0.1-0.1-0.1
			c0,0-0.1-0.1-0.1-0.1c0,0-0.1-0.1-0.1-0.1c0,0-0.1-0.1-0.1-0.1c0,0-0.1-0.1-0.1-0.1c0,0-0.1-0.1-0.1-0.1c0,0-0.1-0.1-0.1-0.1
			c0,0-0.1-0.1-0.1-0.1c0,0-0.1-0.1-0.1-0.1c0,0-0.1,0-0.1-0.1c0,0-0.1,0-0.1-0.1c0,0-0.1,0-0.1-0.1c0,0-0.1,0-0.1-0.1
			c0,0-0.1,0-0.1,0c0,0-0.1,0-0.1,0c0,0-0.1,0-0.1,0c0,0-0.1,0-0.1,0c0,0-0.1,0-0.1,0c0,0-0.1,0-0.1,0c0,0-0.1,0-0.1,0
			C240.9,300.7,240.9,300.7,240.8,300.7C240.8,300.7,240.8,300.7,240.8,300.7L240.8,300.7z M240.8,300.7"/>
		<path class="st1" d="M240.8,300.7c0,0-0.1,0-0.1,0c0,0,0,0,0,0c0,0-0.1,0-0.1,0c0,0-0.1,0-0.1,0c0,0-0.1,0-0.1,0c0,0-0.1,0-0.1,0
			c0,0,0,0,0,0c0,0,0,0,0,0c-0.1,0-0.1,0-0.2,0.1c0,0-0.1,0-0.1,0c0,0-0.1,0-0.1,0.1c0,0-0.1,0-0.1,0.1c0,0-0.1,0-0.1,0.1
			c0,0-0.1,0-0.1,0.1c0,0-0.1,0-0.1,0.1c0,0-0.1,0.1-0.1,0.1c0,0-0.1,0.1-0.1,0.1c0,0-0.1,0.1-0.1,0.1c0,0-0.1,0.1-0.1,0.1
			c0,0-0.1,0.1-0.1,0.1c0,0-0.1,0.1-0.1,0.1c0,0-0.1,0.1-0.1,0.1c0,0,0,0.1-0.1,0.1c0,0,0,0.1-0.1,0.1c0,0,0,0.1-0.1,0.1
			c0,0,0,0.1-0.1,0.1c0,0,0,0.1,0,0.1c0,0,0,0.1,0,0.1c0,0,0,0.1,0,0.1c0,0,0,0.1,0,0.1c0,0,0,0.1,0,0.1c0,0,0,0.1,0,0.1
			c0,0,0,0.1,0,0.1c0,0,0,0,0,0c0,0,0,0.1,0,0.1c0,0,0,0,0,0c0,0,0,0.1,0,0.1c0,0,0,0.1,0,0.1c0,0,0,0.1,0,0.1c0,0,0,0.1,0,0.1
			c0,0,0,0,0,0c0,0,0,0,0,0c0,0.1,0,0.1,0.1,0.2c0,0,0,0.1,0.1,0.1c0,0,0,0.1,0.1,0.1c0,0,0,0.1,0.1,0.1c0,0,0,0.1,0.1,0.1
			c0,0,0,0.1,0.1,0.1c0,0,0.1,0.1,0.1,0.1c0,0,0.1,0.1,0.1,0.1c0,0,0.1,0.1,0.1,0.1c0,0,0.1,0.1,0.1,0.1c0,0,0.1,0.1,0.1,0.1
			c0,0,0.1,0.1,0.1,0.1c0,0,0.1,0.1,0.1,0.1c0,0,0.1,0,0.1,0.1c0,0,0.1,0,0.1,0.1c0,0,0.1,0,0.1,0.1c0,0,0.1,0,0.1,0.1
			c0,0,0.1,0,0.1,0c0,0,0.1,0,0.1,0c0,0,0.1,0,0.1,0c0,0,0.1,0,0.1,0c0,0,0.1,0,0.1,0c0,0,0.1,0,0.1,0c0,0,0.1,0,0.1,0
			c0,0,0.1,0,0.1,0c0,0,0,0,0.1,0c0,0,0.1,0,0.1,0c0,0,0,0,0,0c0,0,0.1,0,0.1,0c0,0,0.1,0,0.1,0c0,0,0.1,0,0.1,0c0,0,0.1,0,0.1,0
			c0,0,0,0,0,0c0,0,0,0,0,0c0.1,0,0.1,0,0.2-0.1c0,0,0.1,0,0.1,0c0,0,0.1,0,0.1-0.1c0,0,0.1,0,0.1-0.1c0,0,0.1,0,0.1-0.1
			c0,0,0.1,0,0.1-0.1c0,0,0.1,0,0.1-0.1c0,0,0.1-0.1,0.1-0.1c0,0,0.1-0.1,0.1-0.1c0,0,0.1-0.1,0.1-0.1c0,0,0.1-0.1,0.1-0.1
			c0,0,0.1-0.1,0.1-0.1c0,0,0.1-0.1,0.1-0.1c0,0,0.1-0.1,0.1-0.1c0,0,0-0.1,0.1-0.1c0,0,0-0.1,0.1-0.1c0,0,0-0.1,0.1-0.1
			c0,0,0-0.1,0.1-0.1c0,0,0-0.1,0-0.1c0,0,0-0.1,0-0.1c0,0,0-0.1,0-0.1c0,0,0-0.1,0-0.1c0,0,0-0.1,0-0.1c0,0,0-0.1,0-0.1
			c0,0,0-0.1,0-0.1c0,0,0,0,0,0c0,0,0-0.1,0-0.1c0,0,0,0,0,0c0,0,0-0.1,0-0.1c0,0,0-0.1,0-0.1c0,0,0-0.1,0-0.1c0,0,0-0.1,0-0.1
			c0,0,0,0,0,0c0,0,0,0,0,0c0-0.1,0-0.1-0.1-0.2c0,0,0-0.1-0.1-0.1c0,0,0-0.1-0.1-0.1c0,0,0-0.1-0.1-0.1c0,0,0-0.1-0.1-0.1
			c0,0-0.1-0.1-0.1-0.1c0,0-0.1-0.1-0.1-0.1c0,0-0.1-0.1-0.1-0.1c0,0-0.1-0.1-0.1-0.1c0,0-0.1-0.1-0.1-0.1c0,0-0.1-0.1-0.1-0.1
			c0,0-0.1-0.1-0.1-0.1c0,0-0.1-0.1-0.1-0.1c0,0-0.1,0-0.1-0.1c0,0-0.1,0-0.1-0.1c0,0-0.1,0-0.1-0.1c0,0-0.1,0-0.1-0.1
			c0,0-0.1,0-0.1,0c0,0-0.1,0-0.1,0c0,0-0.1,0-0.1,0c0,0-0.1,0-0.1,0c0,0-0.1,0-0.1,0c0,0-0.1,0-0.1,0c0,0-0.1,0-0.1,0
			C240.9,300.7,240.9,300.7,240.8,300.7C240.8,300.7,240.8,300.7,240.8,300.7L240.8,300.7z M240.8,300.7"/>
		<path class="st1" d="M240.8,300.7c0,0-0.1,0-0.1,0c0,0,0,0,0,0c0,0-0.1,0-0.1,0c0,0-0.1,0-0.1,0c0,0-0.1,0-0.1,0c0,0-0.1,0-0.1,0
			c0,0,0,0,0,0c0,0,0,0,0,0c-0.1,0-0.1,0-0.2,0.1c0,0-0.1,0-0.1,0c0,0-0.1,0-0.1,0.1c0,0-0.1,0-0.1,0.1c0,0-0.1,0-0.1,0.1
			c0,0-0.1,0-0.1,0.1c0,0-0.1,0-0.1,0.1c0,0-0.1,0.1-0.1,0.1c0,0-0.1,0.1-0.1,0.1c0,0-0.1,0.1-0.1,0.1c0,0-0.1,0.1-0.1,0.1
			c0,0-0.1,0.1-0.1,0.1c0,0-0.1,0.1-0.1,0.1c0,0-0.1,0.1-0.1,0.1c0,0,0,0.1-0.1,0.1c0,0,0,0.1-0.1,0.1c0,0,0,0.1-0.1,0.1
			c0,0,0,0.1-0.1,0.1c0,0,0,0.1,0,0.1c0,0,0,0.1,0,0.1c0,0,0,0.1,0,0.1c0,0,0,0.1,0,0.1c0,0,0,0.1,0,0.1c0,0,0,0.1,0,0.1
			c0,0,0,0.1,0,0.1c0,0,0,0,0,0c0,0,0,0.1,0,0.1c0,0,0,0,0,0c0,0,0,0.1,0,0.1c0,0,0,0.1,0,0.1c0,0,0,0.1,0,0.1c0,0,0,0.1,0,0.1
			c0,0,0,0,0,0c0,0,0,0,0,0c0,0.1,0,0.1,0.1,0.2c0,0,0,0.1,0.1,0.1c0,0,0,0.1,0.1,0.1c0,0,0,0.1,0.1,0.1c0,0,0,0.1,0.1,0.1
			c0,0,0,0.1,0.1,0.1c0,0,0.1,0.1,0.1,0.1c0,0,0.1,0.1,0.1,0.1c0,0,0.1,0.1,0.1,0.1c0,0,0.1,0.1,0.1,0.1c0,0,0.1,0.1,0.1,0.1
			c0,0,0.1,0.1,0.1,0.1c0,0,0.1,0.1,0.1,0.1c0,0,0.1,0,0.1,0.1c0,0,0.1,0,0.1,0.1c0,0,0.1,0,0.1,0.1c0,0,0.1,0,0.1,0.1
			c0,0,0.1,0,0.1,0c0,0,0.1,0,0.1,0c0,0,0.1,0,0.1,0c0,0,0.1,0,0.1,0c0,0,0.1,0,0.1,0c0,0,0.1,0,0.1,0c0,0,0.1,0,0.1,0
			c0,0,0.1,0,0.1,0c0,0,0,0,0.1,0c0,0,0.1,0,0.1,0c0,0,0,0,0,0c0,0,0.1,0,0.1,0c0,0,0.1,0,0.1,0c0,0,0.1,0,0.1,0c0,0,0.1,0,0.1,0
			c0,0,0,0,0,0c0,0,0,0,0,0c0.1,0,0.1,0,0.2-0.1c0,0,0.1,0,0.1,0c0,0,0.1,0,0.1-0.1c0,0,0.1,0,0.1-0.1c0,0,0.1,0,0.1-0.1
			c0,0,0.1,0,0.1-0.1c0,0,0.1,0,0.1-0.1c0,0,0.1-0.1,0.1-0.1c0,0,0.1-0.1,0.1-0.1c0,0,0.1-0.1,0.1-0.1c0,0,0.1-0.1,0.1-0.1
			c0,0,0.1-0.1,0.1-0.1c0,0,0.1-0.1,0.1-0.1c0,0,0.1-0.1,0.1-0.1c0,0,0-0.1,0.1-0.1c0,0,0-0.1,0.1-0.1c0,0,0-0.1,0.1-0.1
			c0,0,0-0.1,0.1-0.1c0,0,0-0.1,0-0.1c0,0,0-0.1,0-0.1c0,0,0-0.1,0-0.1c0,0,0-0.1,0-0.1c0,0,0-0.1,0-0.1c0,0,0-0.1,0-0.1
			c0,0,0-0.1,0-0.1c0,0,0,0,0,0c0,0,0-0.1,0-0.1c0,0,0,0,0,0c0,0,0-0.1,0-0.1c0,0,0-0.1,0-0.1c0,0,0-0.1,0-0.1c0,0,0-0.1,0-0.1
			c0,0,0,0,0,0c0,0,0,0,0,0c0-0.1,0-0.1-0.1-0.2c0,0,0-0.1-0.1-0.1c0,0,0-0.1-0.1-0.1c0,0,0-0.1-0.1-0.1c0,0,0-0.1-0.1-0.1
			c0,0-0.1-0.1-0.1-0.1c0,0-0.1-0.1-0.1-0.1c0,0-0.1-0.1-0.1-0.1c0,0-0.1-0.1-0.1-0.1c0,0-0.1-0.1-0.1-0.1c0,0-0.1-0.1-0.1-0.1
			c0,0-0.1-0.1-0.1-0.1c0,0-0.1-0.1-0.1-0.1c0,0-0.1,0-0.1-0.1c0,0-0.1,0-0.1-0.1c0,0-0.1,0-0.1-0.1c0,0-0.1,0-0.1-0.1
			c0,0-0.1,0-0.1,0c0,0-0.1,0-0.1,0c0,0-0.1,0-0.1,0c0,0-0.1,0-0.1,0c0,0-0.1,0-0.1,0c0,0-0.1,0-0.1,0c0,0-0.1,0-0.1,0
			C240.9,300.7,240.9,300.7,240.8,300.7C240.8,300.7,240.8,300.7,240.8,300.7L240.8,300.7z M240.8,300.7"/>
		<path class="st1" d="M240.8,300.7c0,0-0.1,0-0.1,0c0,0,0,0,0,0c0,0-0.1,0-0.1,0c0,0-0.1,0-0.1,0c0,0-0.1,0-0.1,0c0,0-0.1,0-0.1,0
			c0,0,0,0,0,0c0,0,0,0,0,0c-0.1,0-0.1,0-0.2,0.1c0,0-0.1,0-0.1,0c0,0-0.1,0-0.1,0.1c0,0-0.1,0-0.1,0.1c0,0-0.1,0-0.1,0.1
			c0,0-0.1,0-0.1,0.1c0,0-0.1,0-0.1,0.1c0,0-0.1,0.1-0.1,0.1c0,0-0.1,0.1-0.1,0.1c0,0-0.1,0.1-0.1,0.1c0,0-0.1,0.1-0.1,0.1
			c0,0-0.1,0.1-0.1,0.1c0,0-0.1,0.1-0.1,0.1c0,0-0.1,0.1-0.1,0.1c0,0,0,0.1-0.1,0.1c0,0,0,0.1-0.1,0.1c0,0,0,0.1-0.1,0.1
			c0,0,0,0.1-0.1,0.1c0,0,0,0.1,0,0.1c0,0,0,0.1,0,0.1c0,0,0,0.1,0,0.1c0,0,0,0.1,0,0.1c0,0,0,0.1,0,0.1c0,0,0,0.1,0,0.1
			c0,0,0,0.1,0,0.1c0,0,0,0,0,0c0,0,0,0.1,0,0.1c0,0,0,0,0,0c0,0,0,0.1,0,0.1c0,0,0,0.1,0,0.1c0,0,0,0.1,0,0.1c0,0,0,0.1,0,0.1
			c0,0,0,0,0,0c0,0,0,0,0,0c0,0.1,0,0.1,0.1,0.2c0,0,0,0.1,0.1,0.1c0,0,0,0.1,0.1,0.1c0,0,0,0.1,0.1,0.1c0,0,0,0.1,0.1,0.1
			c0,0,0,0.1,0.1,0.1c0,0,0.1,0.1,0.1,0.1c0,0,0.1,0.1,0.1,0.1c0,0,0.1,0.1,0.1,0.1c0,0,0.1,0.1,0.1,0.1c0,0,0.1,0.1,0.1,0.1
			c0,0,0.1,0.1,0.1,0.1c0,0,0.1,0.1,0.1,0.1c0,0,0.1,0,0.1,0.1c0,0,0.1,0,0.1,0.1c0,0,0.1,0,0.1,0.1c0,0,0.1,0,0.1,0.1
			c0,0,0.1,0,0.1,0c0,0,0.1,0,0.1,0c0,0,0.1,0,0.1,0c0,0,0.1,0,0.1,0c0,0,0.1,0,0.1,0c0,0,0.1,0,0.1,0c0,0,0.1,0,0.1,0
			c0,0,0.1,0,0.1,0c0,0,0,0,0.1,0c0,0,0.1,0,0.1,0c0,0,0,0,0,0c0,0,0.1,0,0.1,0c0,0,0.1,0,0.1,0c0,0,0.1,0,0.1,0c0,0,0.1,0,0.1,0
			c0,0,0,0,0,0c0,0,0,0,0,0c0.1,0,0.1,0,0.2-0.1c0,0,0.1,0,0.1,0c0,0,0.1,0,0.1-0.1c0,0,0.1,0,0.1-0.1c0,0,0.1,0,0.1-0.1
			c0,0,0.1,0,0.1-0.1c0,0,0.1,0,0.1-0.1c0,0,0.1-0.1,0.1-0.1c0,0,0.1-0.1,0.1-0.1c0,0,0.1-0.1,0.1-0.1c0,0,0.1-0.1,0.1-0.1
			c0,0,0.1-0.1,0.1-0.1c0,0,0.1-0.1,0.1-0.1c0,0,0.1-0.1,0.1-0.1c0,0,0-0.1,0.1-0.1c0,0,0-0.1,0.1-0.1c0,0,0-0.1,0.1-0.1
			c0,0,0-0.1,0.1-0.1c0,0,0-0.1,0-0.1c0,0,0-0.1,0-0.1c0,0,0-0.1,0-0.1c0,0,0-0.1,0-0.1c0,0,0-0.1,0-0.1c0,0,0-0.1,0-0.1
			c0,0,0-0.1,0-0.1c0,0,0,0,0,0c0,0,0-0.1,0-0.1c0,0,0,0,0,0c0,0,0-0.1,0-0.1c0,0,0-0.1,0-0.1c0,0,0-0.1,0-0.1c0,0,0-0.1,0-0.1
			c0,0,0,0,0,0c0,0,0,0,0,0c0-0.1,0-0.1-0.1-0.2c0,0,0-0.1-0.1-0.1c0,0,0-0.1-0.1-0.1c0,0,0-0.1-0.1-0.1c0,0,0-0.1-0.1-0.1
			c0,0-0.1-0.1-0.1-0.1c0,0-0.1-0.1-0.1-0.1c0,0-0.1-0.1-0.1-0.1c0,0-0.1-0.1-0.1-0.1c0,0-0.1-0.1-0.1-0.1c0,0-0.1-0.1-0.1-0.1
			c0,0-0.1-0.1-0.1-0.1c0,0-0.1-0.1-0.1-0.1c0,0-0.1,0-0.1-0.1c0,0-0.1,0-0.1-0.1c0,0-0.1,0-0.1-0.1c0,0-0.1,0-0.1-0.1
			c0,0-0.1,0-0.1,0c0,0-0.1,0-0.1,0c0,0-0.1,0-0.1,0c0,0-0.1,0-0.1,0c0,0-0.1,0-0.1,0c0,0-0.1,0-0.1,0c0,0-0.1,0-0.1,0
			C240.9,300.7,240.9,300.7,240.8,300.7C240.8,300.7,240.8,300.7,240.8,300.7L240.8,300.7z M240.8,300.7"/>
		<path class="st1" d="M240.8,300.7c0,0-0.1,0-0.1,0c0,0,0,0,0,0c0,0-0.1,0-0.1,0c0,0-0.1,0-0.1,0c0,0-0.1,0-0.1,0c0,0-0.1,0-0.1,0
			c0,0,0,0,0,0c0,0,0,0,0,0c-0.1,0-0.1,0-0.2,0.1c0,0-0.1,0-0.1,0c0,0-0.1,0-0.1,0.1c0,0-0.1,0-0.1,0.1c0,0-0.1,0-0.1,0.1
			c0,0-0.1,0-0.1,0.1c0,0-0.1,0-0.1,0.1c0,0-0.1,0.1-0.1,0.1c0,0-0.1,0.1-0.1,0.1c0,0-0.1,0.1-0.1,0.1c0,0-0.1,0.1-0.1,0.1
			c0,0-0.1,0.1-0.1,0.1c0,0-0.1,0.1-0.1,0.1c0,0-0.1,0.1-0.1,0.1c0,0,0,0.1-0.1,0.1c0,0,0,0.1-0.1,0.1c0,0,0,0.1-0.1,0.1
			c0,0,0,0.1-0.1,0.1c0,0,0,0.1,0,0.1c0,0,0,0.1,0,0.1c0,0,0,0.1,0,0.1c0,0,0,0.1,0,0.1c0,0,0,0.1,0,0.1c0,0,0,0.1,0,0.1
			c0,0,0,0.1,0,0.1c0,0,0,0,0,0c0,0,0,0.1,0,0.1c0,0,0,0,0,0c0,0,0,0.1,0,0.1c0,0,0,0.1,0,0.1c0,0,0,0.1,0,0.1c0,0,0,0.1,0,0.1
			c0,0,0,0,0,0c0,0,0,0,0,0c0,0.1,0,0.1,0.1,0.2c0,0,0,0.1,0.1,0.1c0,0,0,0.1,0.1,0.1c0,0,0,0.1,0.1,0.1c0,0,0,0.1,0.1,0.1
			c0,0,0,0.1,0.1,0.1c0,0,0.1,0.1,0.1,0.1c0,0,0.1,0.1,0.1,0.1c0,0,0.1,0.1,0.1,0.1c0,0,0.1,0.1,0.1,0.1c0,0,0.1,0.1,0.1,0.1
			c0,0,0.1,0.1,0.1,0.1c0,0,0.1,0.1,0.1,0.1c0,0,0.1,0,0.1,0.1c0,0,0.1,0,0.1,0.1c0,0,0.1,0,0.1,0.1c0,0,0.1,0,0.1,0.1
			c0,0,0.1,0,0.1,0c0,0,0.1,0,0.1,0c0,0,0.1,0,0.1,0c0,0,0.1,0,0.1,0c0,0,0.1,0,0.1,0c0,0,0.1,0,0.1,0c0,0,0.1,0,0.1,0
			c0,0,0.1,0,0.1,0c0,0,0,0,0.1,0c0,0,0.1,0,0.1,0c0,0,0,0,0,0c0,0,0.1,0,0.1,0c0,0,0.1,0,0.1,0c0,0,0.1,0,0.1,0c0,0,0.1,0,0.1,0
			c0,0,0,0,0,0c0,0,0,0,0,0c0.1,0,0.1,0,0.2-0.1c0,0,0.1,0,0.1,0c0,0,0.1,0,0.1-0.1c0,0,0.1,0,0.1-0.1c0,0,0.1,0,0.1-0.1
			c0,0,0.1,0,0.1-0.1c0,0,0.1,0,0.1-0.1c0,0,0.1-0.1,0.1-0.1c0,0,0.1-0.1,0.1-0.1c0,0,0.1-0.1,0.1-0.1c0,0,0.1-0.1,0.1-0.1
			c0,0,0.1-0.1,0.1-0.1c0,0,0.1-0.1,0.1-0.1c0,0,0.1-0.1,0.1-0.1c0,0,0-0.1,0.1-0.1c0,0,0-0.1,0.1-0.1c0,0,0-0.1,0.1-0.1
			c0,0,0-0.1,0.1-0.1c0,0,0-0.1,0-0.1c0,0,0-0.1,0-0.1c0,0,0-0.1,0-0.1c0,0,0-0.1,0-0.1c0,0,0-0.1,0-0.1c0,0,0-0.1,0-0.1
			c0,0,0-0.1,0-0.1c0,0,0,0,0,0c0,0,0-0.1,0-0.1c0,0,0,0,0,0c0,0,0-0.1,0-0.1c0,0,0-0.1,0-0.1c0,0,0-0.1,0-0.1c0,0,0-0.1,0-0.1
			c0,0,0,0,0,0c0,0,0,0,0,0c0-0.1,0-0.1-0.1-0.2c0,0,0-0.1-0.1-0.1c0,0,0-0.1-0.1-0.1c0,0,0-0.1-0.1-0.1c0,0,0-0.1-0.1-0.1
			c0,0-0.1-0.1-0.1-0.1c0,0-0.1-0.1-0.1-0.1c0,0-0.1-0.1-0.1-0.1c0,0-0.1-0.1-0.1-0.1c0,0-0.1-0.1-0.1-0.1c0,0-0.1-0.1-0.1-0.1
			c0,0-0.1-0.1-0.1-0.1c0,0-0.1-0.1-0.1-0.1c0,0-0.1,0-0.1-0.1c0,0-0.1,0-0.1-0.1c0,0-0.1,0-0.1-0.1c0,0-0.1,0-0.1-0.1
			c0,0-0.1,0-0.1,0c0,0-0.1,0-0.1,0c0,0-0.1,0-0.1,0c0,0-0.1,0-0.1,0c0,0-0.1,0-0.1,0c0,0-0.1,0-0.1,0c0,0-0.1,0-0.1,0
			C240.9,300.7,240.9,300.7,240.8,300.7C240.8,300.7,240.8,300.7,240.8,300.7L240.8,300.7z M240.8,300.7"/>
		<path class="st1" d="M240.8,300.7c0,0-0.1,0-0.1,0c0,0,0,0,0,0c0,0-0.1,0-0.1,0c0,0-0.1,0-0.1,0c0,0-0.1,0-0.1,0c0,0-0.1,0-0.1,0
			c0,0,0,0,0,0c0,0,0,0,0,0c-0.1,0-0.1,0-0.2,0.1c0,0-0.1,0-0.1,0c0,0-0.1,0-0.1,0.1c0,0-0.1,0-0.1,0.1c0,0-0.1,0-0.1,0.1
			c0,0-0.1,0-0.1,0.1c0,0-0.1,0-0.1,0.1c0,0-0.1,0.1-0.1,0.1c0,0-0.1,0.1-0.1,0.1c0,0-0.1,0.1-0.1,0.1c0,0-0.1,0.1-0.1,0.1
			c0,0-0.1,0.1-0.1,0.1c0,0-0.1,0.1-0.1,0.1c0,0-0.1,0.1-0.1,0.1c0,0,0,0.1-0.1,0.1c0,0,0,0.1-0.1,0.1c0,0,0,0.1-0.1,0.1
			c0,0,0,0.1-0.1,0.1c0,0,0,0.1,0,0.1c0,0,0,0.1,0,0.1c0,0,0,0.1,0,0.1c0,0,0,0.1,0,0.1c0,0,0,0.1,0,0.1c0,0,0,0.1,0,0.1
			c0,0,0,0.1,0,0.1c0,0,0,0,0,0c0,0,0,0.1,0,0.1c0,0,0,0,0,0c0,0,0,0.1,0,0.1c0,0,0,0.1,0,0.1c0,0,0,0.1,0,0.1c0,0,0,0.1,0,0.1
			c0,0,0,0,0,0c0,0,0,0,0,0c0,0.1,0,0.1,0.1,0.2c0,0,0,0.1,0.1,0.1c0,0,0,0.1,0.1,0.1c0,0,0,0.1,0.1,0.1c0,0,0,0.1,0.1,0.1
			c0,0,0,0.1,0.1,0.1c0,0,0.1,0.1,0.1,0.1c0,0,0.1,0.1,0.1,0.1c0,0,0.1,0.1,0.1,0.1c0,0,0.1,0.1,0.1,0.1c0,0,0.1,0.1,0.1,0.1
			c0,0,0.1,0.1,0.1,0.1c0,0,0.1,0.1,0.1,0.1c0,0,0.1,0,0.1,0.1c0,0,0.1,0,0.1,0.1c0,0,0.1,0,0.1,0.1c0,0,0.1,0,0.1,0.1
			c0,0,0.1,0,0.1,0c0,0,0.1,0,0.1,0c0,0,0.1,0,0.1,0c0,0,0.1,0,0.1,0c0,0,0.1,0,0.1,0c0,0,0.1,0,0.1,0c0,0,0.1,0,0.1,0
			c0,0,0.1,0,0.1,0c0,0,0,0,0.1,0c0,0,0.1,0,0.1,0c0,0,0,0,0,0c0,0,0.1,0,0.1,0c0,0,0.1,0,0.1,0c0,0,0.1,0,0.1,0c0,0,0.1,0,0.1,0
			c0,0,0,0,0,0c0,0,0,0,0,0c0.1,0,0.1,0,0.2-0.1c0,0,0.1,0,0.1,0c0,0,0.1,0,0.1-0.1c0,0,0.1,0,0.1-0.1c0,0,0.1,0,0.1-0.1
			c0,0,0.1,0,0.1-0.1c0,0,0.1,0,0.1-0.1c0,0,0.1-0.1,0.1-0.1c0,0,0.1-0.1,0.1-0.1c0,0,0.1-0.1,0.1-0.1c0,0,0.1-0.1,0.1-0.1
			c0,0,0.1-0.1,0.1-0.1c0,0,0.1-0.1,0.1-0.1c0,0,0.1-0.1,0.1-0.1c0,0,0-0.1,0.1-0.1c0,0,0-0.1,0.1-0.1c0,0,0-0.1,0.1-0.1
			c0,0,0-0.1,0.1-0.1c0,0,0-0.1,0-0.1c0,0,0-0.1,0-0.1c0,0,0-0.1,0-0.1c0,0,0-0.1,0-0.1c0,0,0-0.1,0-0.1c0,0,0-0.1,0-0.1
			c0,0,0-0.1,0-0.1c0,0,0,0,0,0c0,0,0-0.1,0-0.1c0,0,0,0,0,0c0,0,0-0.1,0-0.1c0,0,0-0.1,0-0.1c0,0,0-0.1,0-0.1c0,0,0-0.1,0-0.1
			c0,0,0,0,0,0c0,0,0,0,0,0c0-0.1,0-0.1-0.1-0.2c0,0,0-0.1-0.1-0.1c0,0,0-0.1-0.1-0.1c0,0,0-0.1-0.1-0.1c0,0,0-0.1-0.1-0.1
			c0,0-0.1-0.1-0.1-0.1c0,0-0.1-0.1-0.1-0.1c0,0-0.1-0.1-0.1-0.1c0,0-0.1-0.1-0.1-0.1c0,0-0.1-0.1-0.1-0.1c0,0-0.1-0.1-0.1-0.1
			c0,0-0.1-0.1-0.1-0.1c0,0-0.1-0.1-0.1-0.1c0,0-0.1,0-0.1-0.1c0,0-0.1,0-0.1-0.1c0,0-0.1,0-0.1-0.1c0,0-0.1,0-0.1-0.1
			c0,0-0.1,0-0.1,0c0,0-0.1,0-0.1,0c0,0-0.1,0-0.1,0c0,0-0.1,0-0.1,0c0,0-0.1,0-0.1,0c0,0-0.1,0-0.1,0c0,0-0.1,0-0.1,0
			C240.9,300.7,240.9,300.7,240.8,300.7C240.8,300.7,240.8,300.7,240.8,300.7L240.8,300.7z M240.8,300.7"/>
		<path class="st2" d="M307.5,435.9c0,4.1-7,8-19.5,10.9c-12.5,2.9-29.5,4.5-47.2,4.5c-17.7,0-34.6-1.6-47.2-4.5
			c-12.5-2.9-19.5-6.8-19.5-10.9c0-8.5,29.9-15.4,66.7-15.4C277.6,420.5,307.5,427.4,307.5,435.9L307.5,435.9z M307.5,435.9"/>
		<path class="st3" d="M221.7,397.1c-2.2,15.7-11.1,37.2-18,36.4c-7-0.8-9.5-23.8-7.2-39.4c2.2-15.7,10.1-17.9,15.3-17.2
			C216.9,377.5,223.9,381.5,221.7,397.1L221.7,397.1z M221.7,397.1"/>
		<path class="st4" d="M212.2,373.6c-3.4-0.4-7.9,0.2-11.6,3.3c-3.7,3.1-6.5,8.4-7.7,16.7c-1.2,8.2-1.1,18,0.2,26.2
			c0.6,4.1,1.5,7.7,2.9,10.7c1.4,3,3.4,5.8,7.2,6.3c3.8,0.5,6.5-1.8,8.7-4.3c2.2-2.5,4.1-5.8,5.8-9.6c3.5-7.6,6.3-17,7.5-25.2
			c1.2-8.3,0-14.1-2.7-18C219.8,375.6,215.6,374,212.2,373.6L212.2,373.6z M211.3,380.1c1.8,0.2,3.7,0.9,5.2,3
			c1.5,2.2,2.7,6.2,1.7,13.6c-1.1,7.5-3.8,16.6-7,23.5c-1.6,3.5-3.3,6.4-4.9,8.1c-1.1,1.3-2,1.7-2.2,1.8c-0.2-0.2-0.9-0.8-1.6-2.3
			c-1-2.1-1.8-5.3-2.4-9c-1.2-7.4-1.2-16.9-0.2-24.4c1-7.3,3.4-11,5.4-12.7C207.5,380,209.5,379.9,211.3,380.1L211.3,380.1z
			 M211.3,380.1"/>
		<path class="st3" d="M285.1,394.1c2.2,15.7-0.2,38.6-7.2,39.4c-7,0.8-15.8-20.7-18-36.4c-2.2-15.7,4.8-19.7,9.9-20.3
			C275,376.2,282.9,378.4,285.1,394.1L285.1,394.1z M285.1,394.1"/>
		<path class="st4" d="M269.3,373.6c-3.4,0.4-7.5,2.1-10.3,6c-2.7,3.9-3.9,9.7-2.7,18c1.2,8.2,4,17.7,7.5,25.2
			c1.8,3.8,3.7,7.1,5.8,9.6c2.2,2.5,4.9,4.8,8.7,4.3c3.8-0.5,5.8-3.3,7.2-6.3c1.4-3,2.3-6.6,2.9-10.7c1.3-8.2,1.3-18,0.2-26.2
			c-1.2-8.3-3.9-13.6-7.7-16.7S272.7,373.2,269.3,373.6L269.3,373.6z M270.3,380.1c1.8-0.2,3.8,0,5.9,1.7c2.1,1.7,4.4,5.4,5.4,12.7
			c1.1,7.5,1,16.9-0.2,24.4c-0.6,3.7-1.5,6.9-2.4,9c-0.7,1.6-1.4,2.1-1.6,2.3c-0.2-0.1-1-0.5-2.2-1.8c-1.5-1.8-3.3-4.7-4.9-8.1
			c-3.2-6.9-5.9-16-7-23.5c-1-7.3,0.2-11.4,1.7-13.6C266.5,381,268.5,380.3,270.3,380.1L270.3,380.1z M270.3,380.1"/>
		<path class="st3" d="M153.7,307c16.5,4.1,17.9,11.6,16.5,16.3c-1.3,4.6-6.6,10.5-23.1,6.5c-4.2-1-8.8-2.5-13.2-4.2
			c-8.5-3.3-15.4-8.8-16.8-18.3c-0.6-4.6-0.1-8.1,2-9.2c2.8-1.5,7.9,1.3,13.5,6C139.7,304.4,147.3,305.4,153.7,307L153.7,307z
			 M153.7,307"/>
		<path class="st4" d="M173.6,324.1c0.9-3,0.8-7.2-2.1-11.1c-2.9-3.8-8.2-7.1-17-9.2c-6.3-1.5-13.5-2.6-20.4-3
			c-2.6-2.2-5.2-3.9-7.7-5.1c-2.8-1.3-6.1-2.2-9.1-0.6c-2.3,1.2-3.4,3.4-3.8,5.6c-0.4,2.1-0.4,4.4,0,6.9c1.5,10.9,9.7,17.4,18.9,21
			c4.6,1.8,9.3,3.3,13.7,4.4c8.8,2.2,15.1,1.8,19.7-0.2C170.4,330.8,172.8,327.1,173.6,324.1L173.6,324.1z M166.8,322.4
			c-0.5,1.6-1.4,3.3-4,4.4c-2.5,1.1-7.1,1.7-14.8-0.2c-4-1-8.5-2.4-12.8-4.1c-7.8-3-13.4-7.4-14.6-15.7c-0.3-2.1-0.3-3.8-0.1-4.9
			c0.1-0.7,0.3-0.9,0.4-1c0.2,0,0.9,0,2.3,0.7c1.9,0.9,4.4,2.6,7,4.9l0.9,0.8l1.3,0.1c6.8,0.4,14.2,1.4,20.3,2.9
			c7.8,1.9,11.4,4.5,13,6.6C167.3,318.9,167.2,320.8,166.8,322.4L166.8,322.4z M166.8,322.4"/>
		<path class="st3" d="M327.9,307c-16.5,4.1-17.9,11.6-16.5,16.3c1.3,4.6,6.6,10.5,23.1,6.5c4.2-1,8.8-2.5,13.2-4.2
			c8.5-3.3,15.4-8.8,16.8-18.3c0.6-4.6,0.1-8.1-2-9.2c-2.8-1.5-8,1.3-13.5,6C341.8,304.4,334.2,305.4,327.9,307L327.9,307z
			 M327.9,307"/>
		<path class="st4" d="M307.9,324.1c-0.9-3-0.8-7.2,2.1-11.1c2.9-3.8,8.2-7.1,17-9.2c6.3-1.5,13.5-2.6,20.4-3
			c2.6-2.2,5.2-3.9,7.7-5.1c2.8-1.3,6.1-2.2,9.1-0.6c2.3,1.2,3.4,3.4,3.8,5.6c0.4,2.1,0.4,4.4,0,6.9c-1.5,10.9-9.7,17.4-18.9,21
			c-4.6,1.8-9.3,3.3-13.7,4.4c-8.8,2.2-15.1,1.8-19.7-0.2C311.1,330.8,308.8,327.1,307.9,324.1L307.9,324.1z M314.8,322.4
			c0.5,1.6,1.4,3.3,4,4.4c2.5,1.1,7.1,1.7,14.8-0.2c4-1,8.5-2.4,12.8-4.1c7.8-3,13.4-7.4,14.6-15.7c0.3-2.1,0.3-3.8,0.1-4.9
			c-0.1-0.7-0.3-0.9-0.4-1c-0.2,0-0.9,0-2.3,0.7c-1.9,0.9-4.4,2.6-7,4.9l-0.9,0.8l-1.3,0.1c-6.8,0.4-14.2,1.4-20.3,2.9
			c-7.8,1.9-11.4,4.5-13,6.6C314.3,318.9,314.3,320.8,314.8,322.4L314.8,322.4z M314.8,322.4"/>
		<path class="st4" d="M240.8,203.6c-55.3,0-99.5,46.5-99.5,103c0,56.5,44.2,103,99.5,103s99.5-46.5,99.5-103
			C340.2,250.1,296,203.6,240.8,203.6L240.8,203.6z M240.8,214.1c48.3,0,88.1,41,88.1,92.5s-39.8,92.5-88.1,92.5
			c-48.3,0-88.1-41-88.1-92.5S192.5,214.1,240.8,214.1L240.8,214.1z M240.8,214.1"/>
		<path class="st4" d="M234.5,151.3c0,0-1.6,0-3.6,0.2h0c-3,0.4-7.7,1.3-12.3,4.1c-4.6,2.8-9,7.6-10.9,14.6l-0.8,2.9l2.3,2.1
			c7.6,6.9,13.1,15.6,16,25.4c3.6,12.3,2.4,24.8-2.4,35.9l10.5,4c5.8-13.1,7.1-27.9,2.9-42.5l0,0l0,0c-3.1-10.5-8.8-19.9-16.5-27.7
			c1.3-2.8,3.1-4.6,5.2-5.8c2.3-1.4,4.9-2.1,6.9-2.4c5.6,6.8,9.9,14.6,12.4,23.1c5,17.2,2.3,34.5-6.2,49l10,5
			c9.8-16.8,12.9-36.9,7.2-56.7l0,0l0,0c-3.2-10.9-8.8-20.8-16.4-29.2l-1.7-1.8L234.5,151.3z M234.5,151.3"/>
		<path class="st5" d="M231.6,156.7c-5,0.6-15.3,3.3-18.4,14.8c8.3,7.6,14.4,17.1,17.5,27.8c3.9,13.5,2.7,27.1-2.7,39.2l14.9-1.8
			c9.1-15.6,12.1-34.4,6.7-52.9c-3-10.1-8.2-19.4-15.3-27.2C234.3,156.5,233.3,156.5,231.6,156.7L231.6,156.7z M231.6,156.7"/>
		<path class="st6" d="M239.7,190.1c-3.2,0.4-6.8,1.7-10.7,4.3c0.6,1.6,1.2,3.2,1.7,4.9c3.9,13.5,2.7,27.1-2.7,39.2l14.9-1.8
			c7.8-13.3,11.1-28.9,8.5-44.6C251.4,192,246.7,189.1,239.7,190.1L239.7,190.1z M239.7,190.1"/>
		<path class="st4" d="M234.4,155.2c0,0-1.2,0-2.9,0.2c-2.6,0.3-6.6,1.2-10.5,3.5c-3.8,2.3-7.5,6.2-9.1,12.3l-0.2,0.7l0.6,0.5
			c8.1,7.4,14.1,16.7,17.1,27.2c3.8,13.2,2.6,26.6-2.6,38.4l2.6,1c5.4-12.3,6.7-26.3,2.7-40h0c-3.1-10.6-9.1-20.1-17.2-27.7
			c1.6-5,4.5-8.1,7.7-10.1c3.3-2,7-2.8,9.3-3.1c1.2-0.1,1.5-0.1,1.8-0.1c6.7,7.6,11.7,16.5,14.6,26.2c5.3,18.2,2.4,36.6-6.6,51.9
			l2.5,1.2c9.3-15.9,12.3-35,6.8-53.8c-3-10.3-8.4-19.7-15.6-27.7l-0.4-0.5L234.4,155.2z M234.4,155.2"/>
		<path class="st7" d="M334.6,306.6c0,25.9-9.9,50.8-27.5,69.1c-17.6,18.3-41.4,28.6-66.3,28.6c-24.9,0-48.7-10.3-66.3-28.6
			c-17.6-18.3-27.5-43.2-27.5-69.1c0-25.9,9.9-50.8,27.5-69.1c17.6-18.3,41.4-28.6,66.3-28.6c24.9,0,48.7,10.3,66.3,28.6
			C324.7,255.8,334.6,280.6,334.6,306.6L334.6,306.6z M334.6,306.6"/>
		<path class="st3" d="M228.5,213.4c-9.2,0-18.4,1.5-27.1,4.5c-16.2,7.8-30,20.4-39.6,36.1c-9.6,15.7-14.7,34-14.7,52.6
			c0,6.5,0.6,13,1.9,19.4c5.9,16.4,16.7,30.5,30.9,40.5c14.3,10,31.3,15.4,48.7,15.4c22.4,0,43.9-8.9,59.8-24.7
			c15.9-15.8,24.8-37.2,24.8-59.5c0-22.3-8.9-43.8-24.8-59.5C272.4,222.3,250.9,213.4,228.5,213.4L228.5,213.4z M228.5,213.4"/>
		<path class="st8" d="M256.2,292.9c-9.9,34.3-40.2,56.6-67.5,49.8c-27.4-6.8-41.5-40-31.5-74.3c4.8-16.5,14.6-31,27.2-40.3
			c12.7-9.3,27.2-12.8,40.3-9.5c13.1,3.3,23.8,12.9,29.8,26.8C260.3,259.4,261,276.5,256.2,292.9L256.2,292.9z M256.2,292.9"/>
		<path class="st4" d="M240.8,207.5c-52.7,0-95.2,44.4-95.2,99.1c0,54.6,42.5,99.1,95.2,99.1s95.2-44.4,95.2-99.1
			C336,252,293.4,207.5,240.8,207.5L240.8,207.5z M240.8,210.1c50.9,0,92.4,43.1,92.4,96.4c0,53.4-41.4,96.4-92.4,96.4
			s-92.4-43.1-92.4-96.4C148.4,253.2,189.9,210.1,240.8,210.1L240.8,210.1z M240.8,210.1"/>
		<path class="st1" d="M202.6,272.7c-1.6,5.3-4.7,10.1-8.9,13.1c-4.1,3-8.8,4.1-13.1,3.1c-4.3-1.1-7.7-4.2-9.7-8.7
			c-1.9-4.5-2.1-10.1-0.6-15.4c3.2-11.1,13.1-18.4,21.9-16.2C201.2,250.7,205.8,261.5,202.6,272.7L202.6,272.7z M202.6,272.7"/>
		<path class="st7" d="M262.4,358.5c0,1.7-0.7,3.4-2.1,4.6c-1.3,1.2-3.1,1.9-5,1.9s-3.7-0.7-5-1.9c-1.3-1.2-2.1-2.9-2.1-4.6
			c0-3.6,3.2-6.6,7.1-6.6C259.2,351.9,262.4,354.9,262.4,358.5L262.4,358.5z M262.4,358.5"/>
		<path class="st7" d="M303.7,353.3c0,3.3-1.4,6.4-3.9,8.7c-2.5,2.3-5.9,3.6-9.5,3.6c-3.6,0-7-1.3-9.5-3.6c-2.5-2.3-3.9-5.5-3.9-8.7
			c0-6.8,6-12.4,13.4-12.4C297.7,340.9,303.7,346.5,303.7,353.3L303.7,353.3z M303.7,353.3"/>
		<path class="st8" d="M282,255.9c0,1.7-0.7,3.4-2.1,4.6c-1.3,1.2-3.1,1.9-5,1.9c-1.9,0-3.7-0.7-5-1.9c-1.3-1.2-2.1-2.9-2.1-4.6
			c0-3.6,3.2-6.6,7.1-6.6C278.8,249.3,282,252.3,282,255.9L282,255.9z M282,255.9"/>
		<path class="st1" d="M199.1,258.1c-2,2.3-3.2,5.2-3.2,8.4v6.8c0,7.5,6.5,13.5,14.6,13.5c8.1,0,14.6-6,14.6-13.5v-5.2L199.1,258.1z
			 M199.1,258.1"/>
		<path class="st9" d="M195.9,267.3v5.9c0,7.5,6.5,13.5,14.6,13.5c8.1,0,14.6-6,14.6-13.5v-5.2l0,0c-0.4,7.1-6.8,12.8-14.6,12.8
			C202.4,280.8,195.9,274.8,195.9,267.3L195.9,267.3z M195.9,267.3"/>
		<path class="st4" d="M199.1,256.8c-0.4,0-0.9,0.2-1.1,0.5c-2.2,2.5-3.5,5.7-3.5,9.2v6.8c0,8.2,7.2,14.8,16.1,14.8
			c8.9,0,16.1-6.6,16.1-14.8v-5.2c0-0.5-0.3-1-0.9-1.2l-26.1-10C199.5,256.8,199.3,256.8,199.1,256.8L199.1,256.8z M199.6,259.7
			l24.2,9.3v4.3c0,6.8-5.9,12.2-13.2,12.2c-7.4,0-13.2-5.4-13.2-12.2v-6.8C197.3,263.9,198.2,261.6,199.6,259.7L199.6,259.7z
			 M199.6,259.7"/>
		<path class="st1" d="M282.5,258.1l-26.1,10v5.2c0,7.5,6.5,13.5,14.6,13.5c8.1,0,14.6-6,14.6-13.5v-6.8
			C285.6,263.3,284.5,260.4,282.5,258.1L282.5,258.1z M282.5,258.1"/>
		<path class="st9" d="M285.6,267.3c0,7.5-6.5,13.5-14.6,13.5c-7.8,0-14.2-5.6-14.6-12.8l0,0v5.2c0,7.5,6.5,13.5,14.6,13.5
			c8.1,0,14.6-6,14.6-13.5L285.6,267.3z M285.6,267.3"/>
		<path class="st4" d="M282.4,256.8c-0.2,0-0.4,0-0.5,0.1l-26.1,10c-0.5,0.2-0.9,0.7-0.9,1.2v5.2c0,8.2,7.2,14.8,16.1,14.8
			c8.9,0,16.1-6.6,16.1-14.8v-6.8c0-3.5-1.3-6.7-3.5-9.2C283.3,256.9,282.9,256.7,282.4,256.8L282.4,256.8z M282,259.7
			c1.4,1.9,2.2,4.3,2.2,6.8v6.8c0,6.8-5.9,12.2-13.2,12.2c-7.4,0-13.2-5.4-13.2-12.2v-4.3L282,259.7z M282,259.7"/>
		<path class="st10" d="M207.9,297.5c-3.8,0-6.9,2.8-6.9,6.3v7.2c0,20.3,17.8,36.7,39.8,36.7c22,0,39.8-16.4,39.8-36.7v-7.2
			c0-3.5-3.1-6.3-6.9-6.3H207.9z M207.9,297.5"/>
		<path class="st1" d="M207.9,297.5c-3.8,0-6.9,2.8-6.9,6.3v5.2l8.5,7.9l8.5-7.9l11.4,10.5l11.4-10.5l11.4,10.5l11.4-10.5l8.5,7.9
			l8.5-7.9v-5.2c0-3.5-3.1-6.3-6.9-6.3H207.9z M207.9,297.5"/>
		<path class="st11" d="M273.7,297.5h-21.5c0,0,4.2,9.5,0,22.1l11.4-10.5l8.5,7.9l8.5-7.9v-5.2C280.5,300.3,277.5,297.5,273.7,297.5
			L273.7,297.5z M273.7,297.5"/>
		<path class="st12" d="M272,297.5c0,0,3.2,8.5,0,19.4l8.5-7.9v-5.2c0-3.5-3.1-6.3-6.9-6.3H272z M272,297.5"/>
		<path class="st13" d="M240.8,322.5c-12,0-22.7,4.9-30,12.6c7.3,7.7,18,12.6,30,12.6c12,0,22.7-4.9,30-12.6
			C263.5,327.4,252.7,322.5,240.8,322.5L240.8,322.5z M240.8,322.5"/>
		<path class="st11" d="M209.5,297.5c0,0-3.2,8.5,0,19.4l-8.5-7.9v-5.2c0-3.5,3.1-6.3,6.9-6.3H209.5z M209.5,297.5"/>
		<path class="st4" d="M207.9,296.2c-4.6,0-8.3,3.4-8.3,7.7v7.2c0,21,18.5,38,41.2,38c22.7,0,41.2-17,41.2-38v-7.2
			c0-4.2-3.7-7.7-8.3-7.7H207.9z M207.9,298.8h65.8c3,0,5.4,2.2,5.4,5v7.2c0,19.6-17.2,35.4-38.4,35.4c-21.2,0-38.4-15.8-38.4-35.4
			v-7.2C202.4,301,204.8,298.8,207.9,298.8L207.9,298.8z M207.9,298.8"/>
		<path class="st0" d="M236.4,332.4c0,2.4-3,4.3-6.6,4.3c-1.8,0-3.4-0.5-4.7-1.3c-1.2-0.8-1.9-1.9-1.9-3c0-1.1,0.7-2.2,1.9-3
			c1.2-0.8,2.9-1.3,4.7-1.3C233.4,328.1,236.4,330.1,236.4,332.4L236.4,332.4z M236.4,332.4"/>
		<path class="st4" d="M218,307.2l-8.5,7.9l-7.5-6.9l-2,1.9l9.5,8.8l8.5-7.9l11.4,10.5l11.4-10.5l11.4,10.5l11.4-10.5l8.5,7.9
			l9.5-8.8l-2-1.9l-7.5,6.9l-8.5-7.9l-11.4,10.5l-11.4-10.5l-11.4,10.5L218,307.2z M218,307.2"/>
	</g>
	<g>
		<g>
			<path class="st3" d="M88.1,120.1c0,5.9-0.6,9.3-1.9,10.2c-0.5,0.3-0.9,0.4-1.3,0.1c-0.4-0.2-0.8-0.5-1.2-0.9
				c-0.4-0.3-0.7-0.6-1.1-0.9c-0.4-0.3-0.8-0.2-1.2,0.1c-0.5,0.3-1.1,1.1-1.9,2.2c-0.8,1.1-1.4,1.8-1.8,2.1c-0.7,0.6-1.4,0.8-2,0.8
				c-0.6,0-1.2,0.2-1.6,0.5c-0.5,0.4-1.1,1.2-1.7,2.4c-0.6,1.2-1,1.8-1.2,2c-0.6,0.5-1.6,1.2-2.8,1.9c-1.2,0.7-2,1.3-2.5,1.7
				c-0.9,0.8-1.3,2.5-1.3,5.2c0,3.3,0,6.6,0,10c0,0.5-0.1,1.1-0.2,2c-0.1,0.8-0.3,1.7-0.5,2.6c-0.2,0.9-0.3,1.8-0.5,2.7
				c-0.1,0.9-0.2,1.5-0.2,2c0,2.7,3,1.3,9.2-3.7c1.1-0.9,2.2-1.9,3.2-2.9c1.1-1,2-2,2.8-2.9c0.8-0.9,1.7-1.9,2.7-2.9
				c0.7-0.5,1,1.4,1,5.8c0,4.8-1.1,8-3.2,9.7c-0.4,0.3-0.8,0.5-1.1,0.4c-0.4,0-0.7-0.1-1.1-0.1c-0.4-0.1-0.7-0.1-1.1-0.1
				c-0.4,0-0.7,0.2-1.1,0.5c-0.4,0.3-0.7,0.7-0.9,1.3c-0.2,0.6-0.4,1.1-0.6,1.7c-0.2,0.6-0.4,1.1-0.6,1.7c-0.2,0.6-0.5,1-0.9,1.3
				c-0.5,0.4-1,0.6-1.8,0.7c-0.7,0.1-1.4,0.2-2.2,0.3c-0.7,0.1-1.5,0.2-2.2,0.3c-0.7,0.1-1.2,0.3-1.6,0.7c-1.5,1.3-2.2,4.1-2.2,8.3
				c0,0.8,0,2,0.1,3.7c0.1,1.6,0.1,2.8,0.1,3.7c0,0.8-0.1,2.2-0.4,4c-0.3,1.9-0.6,3.8-0.9,5.9c-0.3,2-0.6,3.9-0.9,5.7
				c-0.3,1.7-0.4,2.9-0.4,3.4c0,1.7,1.6,1,5-1.9c3.4-2.9,6.5-5.9,9.3-8.9c2.8-3,5.7-5.6,8.7-7.7c2.2-1.6,3.3-2,3.3-1.1
				c0,3.2-0.2,5.8-0.5,7.7c-0.3,2-1.1,3.4-2.4,4.3c-0.5,0.4-1,0.6-1.4,0.5c-0.4,0-0.8-0.1-1.1-0.2c-0.4-0.1-0.7-0.2-1-0.3
				c-0.3-0.1-0.7,0-1.1,0.3c-0.7,0.5-1.4,1.4-2.1,2.7c-0.8,1.3-1.5,2.7-2.3,4.2c-0.8,1.5-1.5,2.9-2.2,4.2c-0.7,1.3-1.4,2.2-1.9,2.7
				c-0.3,0.3-0.7,0.3-1,0.1c-0.4-0.2-0.8-0.4-1.2-0.6c-0.5-0.2-0.9-0.3-1.4-0.4c-0.5-0.1-1,0.1-1.5,0.5c-4.8,4.2-7.6,8.2-8.6,11.8
				c0-0.4-0.1-1.2-0.2-2.4c-0.2-1.2-0.3-2.4-0.6-3.8c-0.2-1.4-0.4-2.8-0.6-4.3c-0.2-1.5-0.2-2.7-0.2-3.7c0-0.8,0-1.6,0-2.3
				c0.1-0.6,0.1-1,0.1-1.4c0-0.4,0-0.7,0-0.9c0-0.7-0.1-1.7-0.4-2.8c-0.2-1.1-0.5-2.3-0.9-3.5c-0.3-1.2-0.6-2.4-0.9-3.5
				c-0.2-1.2-0.4-2.1-0.4-2.8c0-0.5,0-1.2,0.1-2.1c0.1-0.9,0.1-1.8,0.2-2.8c0.1-1,0.1-1.9,0.2-2.8c0.1-0.9,0.1-1.6,0.1-2.1
				c0-0.8-0.1-2-0.4-3.4c-0.2-1.4-0.5-2.9-0.8-4.5c-0.3-1.5-0.5-3-0.8-4.4c-0.2-1.4-0.4-2.5-0.4-3.5c0-1,0.1-2.5,0.4-4.6
				c0.2-2.1,0.5-4.3,0.8-6.6c0.3-2.3,0.6-4.5,0.8-6.6c0.2-2.1,0.4-3.6,0.4-4.6c0-0.6,0-1.4-0.1-2.6c-0.1-1.1-0.2-2.3-0.3-3.6
				c-0.1-1.3-0.2-2.4-0.3-3.5c-0.1-1.1-0.1-1.9-0.1-2.4c0-0.4,0-0.7,0-1.1c0.1-0.6,0.4-1.5,1.1-2.6c0.7-1.1,1.3-1.9,1.8-2.5
				c0.2-0.2,0.4-0.3,0.8-0.4c0.3-0.1,0.7-0.1,1.1-0.2c0.4,0,0.8-0.1,1.2-0.2c0.4-0.1,0.7-0.3,0.9-0.5c0.7-0.6,1.4-1.7,2.2-3.2
				c0.8-1.5,1.4-2.5,2.1-3.1c1.9-1.7,3.1-2.5,3.7-2.5c0.8-0.7,2-1.7,3.7-3.3c1.7-1.5,3.5-3,5.4-4.6c1.9-1.5,3.7-3,5.5-4.4
				c1.7-1.4,3-2.4,3.9-3c1.4-1,2.3-0.3,2.6,2C88,112.7,88.1,115.9,88.1,120.1z"/>
			<path class="st3" d="M142.3,82c0,2-1.2,6.1-3.5,12.5c-1.1,3.2-1.7,6.7-1.7,10.4c0,0.3,0.1,0.8,0.2,1.5c0.1,0.6,0.2,1.2,0.2,1.6
				c0,0.4-0.1,1.1-0.2,1.9c-0.2,0.9-0.3,1.8-0.6,2.9c-0.2,1-0.4,2-0.6,2.9c-0.1,0.9-0.2,1.6-0.2,2.1c0,0.9-0.3,2.1-0.8,3.7
				c-0.5,1.6-1.1,3.3-1.7,5c-0.6,1.8-1.2,3.4-1.7,5c-0.5,1.6-0.8,2.9-0.8,3.9c0,2.4,0,4.6-0.1,6.6c-0.1,2-0.3,3.8-0.7,5.5
				c-0.1,0.6-0.5,1.6-1,3.1c-0.5,1.5-1.1,3.2-1.6,5c-0.6,1.8-1.1,3.6-1.5,5.3c-0.4,1.7-0.7,3-0.7,3.8c0,0.4,0,0.9,0.1,1.4
				c0.1,0.5,0.1,1,0.1,1.3c0,0.7-0.3,1.4-0.8,2.1c-0.5,0.7-1.1,1.4-1.8,2.2c-0.7,0.8-1.4,1.7-2.1,2.7c-0.7,1-1.3,2.2-1.7,3.6
				c-0.2,0.4-0.6,1.2-1.2,2.3c-0.6,1.1-1.3,2.3-2,3.6c-0.8,1.3-1.5,2.6-2.1,3.9c-0.6,1.3-1.1,2.2-1.3,2.8c-0.8-0.5-1.9-1.4-3.2-2.4
				c-1.3-1.1-2.6-2.7-3.7-4.9c-0.1,0-0.4-0.2-1.1-0.6c-0.6-0.4-1.3-0.8-2.1-1.5c-0.7-0.6-1.4-1.4-2-2.3c-0.6-0.9-0.9-2-0.9-3.2
				c0-0.7-0.3-1.4-0.8-2.1c-0.5-0.7-1.1-1.4-1.7-2.2c-0.6-0.8-1.1-1.7-1.7-2.7c-0.5-1-0.8-2.3-0.8-4c0-0.5,0-1.2,0.1-2
				c0.1-0.9,0.1-1.8,0.2-2.7c0.1-0.9,0.1-1.9,0.2-2.7c0.1-0.9,0.1-1.5,0.1-2c0-1-0.3-2.1-0.9-3.4c-0.6-1.3-1.2-2.5-2-3.8
				c-0.7-1.3-1.4-2.5-1.9-3.8c-0.6-1.2-0.9-2.3-0.9-3.2c0-1.6,0-3.1,0-4.7c0-0.7,0-1.6,0.1-2.9c0-1.3,0.1-2.7,0.2-4.1
				c0.1-1.4,0.1-2.8,0.2-4c0-1.3,0.1-2.1,0.1-2.6c0-0.9-0.2-2-0.6-3.3c-0.4-1.3-0.8-2.6-1.3-3.8c-0.4-1.3-0.9-2.5-1.3-3.5
				c-0.4-1.1-0.6-1.8-0.6-2.3c0-1.6,0.7-3,2.2-4c0.6-0.4,1.3-0.8,1.9-1c0.7-0.2,1.4-0.4,2.1-0.6c0.7-0.2,1.5-0.4,2.2-0.7
				c0.8-0.3,1.4-0.6,2.1-1c1.1-0.7,2.1-1.4,3.2-2.1c1.4-0.9,2.3-0.9,2.7-0.2c0.4,0.7,0.6,2.9,0.6,6.5c0,0.6-0.1,1.4-0.3,2.6
				c-0.2,1.1-0.4,2.3-0.6,3.5c-0.2,1.2-0.4,2.4-0.6,3.5c-0.2,1.1-0.3,2-0.3,2.6c0,0.8,0.2,1.5,0.7,2.2c0.5,0.6,0.9,1.2,1.5,1.9
				c0.5,0.6,1,1.3,1.5,2c0.5,0.7,0.7,1.6,0.7,2.5c0,0.7-0.1,1.7-0.2,3.1c-0.1,1.4-0.3,2.9-0.5,4.5c-0.2,1.6-0.4,3.1-0.5,4.6
				c-0.1,1.4-0.2,2.5-0.2,3.3c0.1,0,0.2,0.5,0.5,1.7c0.2,1.2,0.5,2.6,0.8,4.4c0.3,1.8,0.6,3.7,0.8,5.8c0.2,2.1,0.4,4.1,0.4,6.1
				c0,8,2,13.3,6.1,16.2c0.6-1.6,1.1-3.7,1.7-6.3c0.6-2.6,1.1-5.3,1.6-8.1c0.5-2.8,0.8-5.7,1.1-8.5c0.3-2.9,0.4-5.4,0.4-7.6
				c0-1.9,0.2-3.7,0.6-5.5c0.4-1.8,0.9-3.5,1.4-5.1c0.5-1.6,0.9-3.2,1.4-4.8c0.4-1.5,0.7-3,0.7-4.3c0-0.6-0.1-1.4-0.2-2.6
				c-0.1-1.2-0.2-2.4-0.4-3.7c-0.1-1.3-0.3-2.5-0.4-3.7c-0.1-1.2-0.2-2.1-0.2-2.7c0-0.4,0.1-1.1,0.4-2.1c0.3-1,0.5-2,0.8-3.1
				c0.3-1.1,0.5-2.1,0.8-3.2c0.3-1,0.4-1.7,0.4-2.2c-1.1-2.6-1.6-5.1-1.6-7.4c0-3.9,0.4-6.7,1.1-8.4c0.8-1.7,1.9-3,3.3-3.7
				c0.9-0.5,2.2-0.7,3.6-0.8c1.5-0.1,2.7-0.3,3.6-0.8c0.5-0.2,1.3-0.8,2.4-1.7c1.1-0.9,1.9-1.5,2.4-1.7C141,78,142.3,78.9,142.3,82z
				"/>
			<path class="st3" d="M164.3,76c-0.2,1.3-0.2,2.5-0.2,3.8c0,1.2,0,2.5-0.1,3.9c-1.2,2.7-1.8,5.5-1.8,8.3c0,0.5,0.1,1.1,0.2,2
				c0.1,0.8,0.2,1.7,0.4,2.6c0.2,0.9,0.3,1.9,0.4,2.8c0.1,0.9,0.2,1.6,0.2,2.2c0,0.7-0.1,1.7-0.4,2.8c-0.3,1.2-0.6,2.5-1,4.1
				c-0.7,2.9-1.1,5.9-1.3,9.2c-0.2,3.3-0.3,6.6-0.5,9.9c-0.1,3.3-0.3,6.5-0.5,9.6c-0.2,3.1-0.6,5.9-1.3,8.3
				c-0.8,3.1-1.3,5.8-1.5,7.9c-0.2,2.1-0.4,4.1-0.5,5.8c-0.1,1.7-0.3,3.4-0.5,5.1c-0.2,1.7-0.8,3.7-1.6,5.9
				c-0.1-0.7-0.3-1.8-0.7-3.2c-0.4-1.4-0.8-2.9-1.3-4.4c-0.5-1.6-0.9-3.1-1.2-4.6c-0.4-1.5-0.6-2.7-0.6-3.7c0-0.2,0-0.4,0-0.6
				c0-0.2,0-0.6,0.1-1c0-0.5,0-0.9,0-1.4c0-0.7-0.2-1.7-0.5-3c-0.3-1.2-0.7-2.5-1.1-3.9c-0.4-1.4-0.8-2.7-1.1-4
				c-0.3-1.3-0.5-2.3-0.5-3c0-0.5,0-1.2,0.1-2c0.1-0.8,0.2-1.7,0.2-2.7c0.1-0.9,0.1-1.8,0.2-2.7c0.1-0.8,0.1-1.5,0.1-2
				c0-0.8-0.2-2-0.5-3.6c-0.3-1.6-0.6-3.2-1-4.9c-0.3-1.7-0.7-3.3-1-4.8c-0.3-1.5-0.5-2.7-0.4-3.6c0-1,0.1-2.4,0.3-4.4
				c0.2-1.9,0.4-4,0.6-6.1c0.2-2.1,0.4-4.2,0.6-6.1c0.2-1.9,0.3-3.3,0.3-4.2c0-0.6-0.1-1.5-0.2-2.6c-0.1-1.2-0.2-2.4-0.3-3.7
				c-0.1-1.3-0.2-2.5-0.3-3.7c-0.1-1.1-0.2-2-0.2-2.5c0-1.1,0.3-2.1,0.8-2.8c0.5-0.7,1.4-1.4,2.7-1.8c0.2-0.1,0.6-0.1,1,0
				c0.5,0.1,0.9,0.2,1.5,0.3c0.5,0.1,1,0.2,1.5,0.3c0.5,0.1,0.8,0.1,1,0c0.9-0.3,1.8-1.1,2.7-2.2c0.9-1.1,1.7-1.8,2.6-2.1
				c3.4-1.2,5.1-0.8,5.1,1C164.8,72.4,164.5,74.2,164.3,76z"/>
			<path class="st3" d="M212.5,142.8c0,3.1-0.2,5.6-0.7,7.4c-0.5,1.8-1.4,2.8-2.7,3c-0.6,0.1-1.2,0-1.7-0.2
				c-0.5-0.3-0.9-0.5-1.4-0.8c-0.4-0.3-0.9-0.6-1.3-0.8c-0.4-0.3-0.9-0.3-1.4-0.3c-0.8,0.1-1.6,0.6-2.5,1.5
				c-0.9,0.9-1.7,1.8-2.6,2.8c-0.9,1-1.8,2-2.7,2.9c-0.9,0.9-1.7,1.4-2.4,1.5c-0.2,0-0.6-0.1-1.1-0.5c-0.5-0.4-1-0.8-1.6-1.3
				c-0.6-0.4-1.2-0.8-1.8-1.2c-0.6-0.4-1.2-0.5-1.9-0.3c-5.8,1.4-9.3,3.7-10.6,6.7c0-0.4-0.1-1.2-0.3-2.5c-0.2-1.3-0.4-2.7-0.7-4.2
				c-0.3-1.5-0.5-3.1-0.7-4.7c-0.2-1.6-0.3-2.9-0.3-3.9c0-0.8,0-1.6,0-2.3c0.1-0.5,0.1-1,0.1-1.3c0-0.4,0-0.7,0-0.9
				c0-0.7-0.2-1.7-0.5-3c-0.3-1.3-0.7-2.6-1.1-4c-0.4-1.4-0.8-2.7-1.1-4.1c-0.3-1.3-0.5-2.3-0.5-3.1c0-0.5,0-1.2,0.1-2
				c0.1-0.8,0.2-1.7,0.2-2.7c0.1-0.9,0.2-1.8,0.2-2.7c0.1-0.8,0.1-1.5,0.1-2c0-0.8-0.2-2-0.5-3.6c-0.3-1.6-0.6-3.2-1-4.9
				c-0.3-1.7-0.7-3.3-1-4.9c-0.3-1.5-0.5-2.8-0.5-3.7c0-1,0.2-2.4,0.5-4.4c0.3-1.9,0.7-4,1-6.1c0.4-2.1,0.7-4.2,1-6.1
				c0.3-1.9,0.5-3.4,0.5-4.4c0-0.6-0.1-1.5-0.2-2.7c-0.1-1.2-0.2-2.5-0.3-3.8c-0.1-1.3-0.2-2.6-0.3-3.7c-0.1-1.2-0.2-2-0.2-2.5
				c0-2.2,1.2-3.7,3.7-4.4c0.2-0.1,0.6,0,1,0.1c0.5,0.1,0.9,0.3,1.4,0.5c0.5,0.2,1,0.4,1.4,0.5c0.5,0.1,0.8,0.2,1,0.1
				c1-0.3,1.9-0.9,2.8-1.9c0.9-1,1.7-1.6,2.6-1.9c3.5-0.8,5.3-0.3,5.3,1.5c0-0.1-0.1,0.3-0.2,1c-0.1,0.8-0.2,1.8-0.4,3
				c-0.1,1.3-0.2,2.7-0.4,4.3c-0.1,1.6-0.2,3.1-0.2,4.6c-1.2,2.6-1.9,5.6-2,8.9c0.1,0,0.1,3,0.1,9.2c-0.1,0.7-0.2,1.6-0.4,2.7
				c-0.2,1.2-0.5,2.5-1,4.1c-0.4,1.3-0.7,3.1-1,5.2c-0.3,2.2-0.5,4.5-0.6,7.1c-0.2,2.6-0.3,5.2-0.3,8c-0.1,2.7-0.1,5.3-0.1,7.8
				c0,0.8-0.2,2.1-0.5,3.8c-0.3,1.7-0.7,3.5-1.1,5.3c-0.4,1.8-0.8,3.5-1.1,5.1c-0.3,1.6-0.5,2.7-0.5,3.1c0,1.7,2,2,6.2,1.1
				c3.9-0.9,7.6-2,11.1-3.4c3.5-1.4,7-2.3,10.7-2.9C211.2,141.6,212.5,141.9,212.5,142.8z"/>
			<path class="st3" d="M293.6,89.9c0,0.9-0.2,1.6-0.7,2.2c-0.5,0.6-1,1.2-1.6,1.7c-0.6,0.6-1.1,1.2-1.6,1.9
				c-0.5,0.7-0.7,1.6-0.7,2.8c0,0.7,0.2,1.6,0.7,3c0.4,1.3,0.9,2.7,1.4,4.2c0.5,1.5,1,2.9,1.4,4.2c0.4,1.3,0.6,2.3,0.6,3
				c0,0.9-0.7,1.6-2,2.1c-1.7,0.4-2.7,1.4-3.1,2.9c-0.4,1.5-0.6,2.9-0.6,4.1c0,0.4,0.1,1.1,0.2,2.1c0.1,1,0.2,1.7,0.2,2.1
				c0,0.7-0.3,1.5-0.8,2.3c-0.5,0.8-1.1,1.6-1.8,2.4c-0.7,0.8-1.3,1.6-1.8,2.4c-0.5,0.8-0.8,1.5-0.8,2.1c0,0.6,0.1,1.4,0.3,2.4
				s0.3,1.8,0.3,2.4c0,1-0.3,1.8-0.8,2.3c-0.6,0.6-1.2,1-1.9,1.4c-0.7,0.4-1.3,0.7-1.9,1.1c-0.6,0.4-0.8,0.8-0.8,1.4
				c0,0.7,0.3,1.7,0.8,3c0.5,1.3,0.8,2.2,0.8,2.8c0,0.9-0.7,1.3-2.1,1.2c-0.7-0.1-1.7-0.3-3.1-0.6c-1.3-0.4-2.4-0.6-3.2-0.6
				c-0.7,0-1.4,0.3-2.1,1.1c-0.7,0.8-1.4,1.1-2.3,1.1c-1.6-0.1-2.8-1.6-3.6-4.7c-0.6-2.3-1.5-3.7-2.6-4.3c-1.1-0.5-2.2-0.8-3.3-0.9
				c-1.1-0.1-2-0.2-2.8-0.5c-0.8-0.3-1.2-1.3-1.2-3.1c0-0.6,0.1-1.5,0.3-2.7c0.2-1.2,0.3-2.2,0.3-2.8c0-0.7-0.1-1.3-0.4-2
				c-0.2-0.7-0.5-1.5-0.9-2.5c-0.4-1-0.8-2.2-1.2-3.7c-0.4-1.5-0.8-3.4-1.1-5.7c-0.1-0.1-0.4-0.3-1-0.7c-0.6-0.4-1.2-1-1.9-1.8
				c-0.7-0.8-1.3-1.7-1.8-2.9c-0.6-1.1-0.8-2.5-0.8-4.2c0-0.6,0.1-1.5,0.2-2.7c0.1-1.2,0.3-2.5,0.4-3.9c0.2-1.4,0.3-2.6,0.4-3.8
				c0.1-1.2,0.2-2.1,0.2-2.8c0-0.9-0.3-1.6-0.8-2.2c-0.5-0.6-1.1-1.1-1.8-1.6c-0.7-0.5-1.3-1-1.8-1.5c-0.5-0.6-0.8-1.3-0.8-2.3
				c0-0.7,0.1-1.6,0.4-2.7c0.3-1.2,0.6-2.4,1-3.7c0.4-1.3,0.7-2.5,1-3.6c0.3-1.1,0.4-2,0.4-2.7c0-0.2-0.2-0.5-0.5-0.8
				c-0.3-0.3-0.7-0.7-1-1c-0.4-0.4-0.7-0.7-1-1.1c-0.3-0.4-0.5-0.8-0.5-1.3c0-0.6,0.2-1.4,0.5-2.5c0.4-1.1,0.8-2.3,1.3-3.4
				c0.5-1.2,1.1-2.3,1.7-3.3c0.6-1,1.1-1.8,1.6-2.2c0.9-1.3,1.7-2.7,2.6-4.2c0.9-1.5,1.8-2.8,2.9-4c1-1.2,2.1-2.1,3.3-2.9
				c1.2-0.8,2.5-1.1,4-1.1c1,0,2.3,0,4.2-0.1c1.8-0.1,3.7-0.2,5.7-0.3c2-0.1,3.9-0.1,5.6-0.2c1.8,0,3.1,0,4.1,0.1
				c2.5,0.2,4.7,2,6.5,5.3c1.5,2.9,2.7,5,3.7,6.2c1,1.3,1.8,2.2,2.4,2.8c0.6,0.6,1,1.1,1.2,1.4c0.2,0.3,0.4,0.9,0.4,1.8
				c0,0.3-0.1,0.8-0.3,1.6c-0.2,0.7-0.4,1.5-0.7,2.3c-0.3,0.8-0.5,1.6-0.7,2.4c-0.2,0.8-0.3,1.4-0.3,1.9c0,0.6,0.2,1.5,0.5,2.7
				c0.4,1.2,0.8,2.5,1.2,3.9c0.5,1.4,0.9,2.8,1.2,4.1C293.5,88,293.6,89.1,293.6,89.9z M277.9,107.6c0-0.3-0.1-0.9-0.4-1.6
				c-0.2-0.8-0.5-1.6-0.8-2.5c-0.3-0.9-0.5-1.7-0.8-2.6c-0.2-0.8-0.4-1.5-0.4-1.9c0-0.5,0.1-0.9,0.4-1.1c0.2-0.3,0.5-0.5,0.7-0.7
				c0.2-0.2,0.5-0.4,0.7-0.6c0.2-0.2,0.4-0.5,0.4-0.9c0-0.8-0.4-2.3-1.1-4.5c-0.7-2.1-1.1-4-1.3-5.6c-0.2-1.7-0.3-3-0.4-4.1
				c-0.1-1.1-0.3-1.9-0.7-2.5c-0.4-0.6-1.1-0.9-2.1-1c-0.4,0-0.7,0.1-1,0.4c-0.3,0.3-0.5,0.6-0.8,1c-0.2,0.4-0.5,0.7-0.7,1
				c-0.2,0.3-0.3,0.5-0.4,0.5c-0.2-1-0.5-2-0.7-3c-0.6-1-1.5-1.6-2.6-1.6c-1.7-0.1-3,0.7-4,2.4c-1,1.7-1.5,4.4-1.5,8.1
				c0,2.9-0.2,5.1-0.7,6.7c-0.4,1.6-0.7,2.5-0.7,2.6c0,0.6,0.1,1.4,0.2,2.5c0.2,1.1,0.3,2.3,0.5,3.5c0.2,1.2,0.4,2.4,0.5,3.6
				c0.2,1.2,0.2,2,0.2,2.5c0,0.6-0.1,1.4-0.4,2.6c-0.2,1.1-0.4,2-0.4,2.7c0,0.5,0.1,1.4,0.4,2.7c0.2,1.3,0.5,2.7,0.9,4.2
				c0.4,1.5,0.7,2.9,1.1,4.2c0.4,1.3,0.7,2.2,0.9,2.7c0,0-0.1,0.1-0.1,0.1c0,0.4,0.2,1.2,0.5,2.4c0.3,1.2,0.7,2.4,1.2,3.7
				c0.5,1.3,1,2.4,1.5,3.5c0.6,1,1,1.5,1.4,1.6c3.2,0.2,5.2-3.2,6.1-10.2c0.6-4.8,1.2-9.7,1.8-14.5c0.2-0.3,0.6-0.9,1.2-1.9
				C277.6,110.8,277.9,109.4,277.9,107.6z"/>
			<path class="st3" d="M339,153.7c0,3.1-0.2,5.5-0.7,7.1c-0.5,1.6-1.3,2.2-2.6,1.8c-0.6-0.2-1.1-0.5-1.6-1
				c-0.5-0.5-0.9-0.9-1.3-1.4c-0.4-0.5-0.8-1-1.3-1.4c-0.4-0.5-0.9-0.7-1.3-0.9c-0.8-0.2-1.6-0.1-2.4,0.4c-0.8,0.5-1.7,1-2.6,1.6
				c-0.9,0.6-1.8,1.2-2.7,1.6c-0.9,0.5-1.7,0.6-2.4,0.4c-0.2-0.1-0.6-0.4-1-1c-0.5-0.6-1-1.3-1.6-2c-0.6-0.7-1.2-1.4-1.8-2
				c-0.6-0.6-1.2-1-1.9-1.2c-5.8-1.3-9.4-0.6-10.7,1.9c0-0.4-0.1-1.3-0.3-2.6c-0.2-1.3-0.4-2.8-0.7-4.5c-0.3-1.6-0.5-3.3-0.7-5
				c-0.2-1.7-0.3-3-0.3-4c0-0.8,0-1.6,0-2.3c0.1-0.5,0.1-0.9,0.1-1.3c0-0.4,0-0.7,0-0.9c0-0.7-0.2-1.8-0.5-3.2
				c-0.3-1.4-0.7-2.9-1.1-4.5c-0.4-1.6-0.8-3.1-1.1-4.6c-0.3-1.4-0.5-2.5-0.5-3.3c0-0.5,0-1.1,0.1-1.9c0.1-0.8,0.2-1.7,0.2-2.5
				c0.1-0.9,0.2-1.7,0.2-2.5c0.1-0.8,0.1-1.5,0.1-1.9c0-0.8-0.2-2.1-0.5-3.8c-0.3-1.7-0.6-3.5-1-5.4c-0.4-1.9-0.7-3.6-1-5.3
				c-0.3-1.7-0.5-3-0.5-3.9c0-1,0.2-2.4,0.5-4.2c0.3-1.8,0.7-3.7,1.1-5.6c0.4-1.9,0.7-3.8,1.1-5.6c0.3-1.8,0.5-3.2,0.5-4.2
				c0-0.6-0.1-1.5-0.2-2.7c-0.1-1.2-0.2-2.6-0.4-3.9c-0.1-1.4-0.2-2.7-0.4-3.9c-0.1-1.2-0.2-2.1-0.2-2.6c0-2.2,1.3-3.1,3.8-2.7
				c0.2,0,0.6,0.2,1.1,0.6c0.5,0.3,1,0.7,1.5,1.1c0.5,0.4,1,0.8,1.5,1.1c0.5,0.3,0.8,0.5,1.1,0.6c1,0.2,2,0,2.8-0.7
				c0.9-0.6,1.7-0.9,2.6-0.7c3.5,0.8,5.3,2.1,5.3,3.9c0-0.1-0.1,0.2-0.2,0.9c-0.1,0.7-0.2,1.7-0.3,2.9c-0.1,1.2-0.2,2.6-0.3,4.1
				c-0.1,1.5-0.2,3-0.2,4.5c-1.2,2-1.9,4.7-2,8c0.1,0,0.1,3.1,0.1,9.3c-0.1,0.6-0.2,1.5-0.4,2.6c-0.2,1.1-0.5,2.3-1,3.7
				c-0.4,1.1-0.7,2.7-1,4.8c-0.3,2-0.5,4.3-0.6,6.8c-0.2,2.5-0.3,5.1-0.4,7.8c-0.1,2.7-0.1,5.3-0.1,7.7c0,0.8-0.2,2-0.5,3.6
				c-0.4,1.6-0.7,3.2-1.1,4.8c-0.4,1.6-0.8,3.2-1.1,4.6c-0.4,1.4-0.5,2.4-0.5,2.9c0,1.7,2.1,3,6.2,3.9c3.9,0.9,7.6,1.4,11,1.6
				c3.4,0.2,6.9,0.8,10.5,1.9C337.7,151.9,339,152.8,339,153.7z"/>
			<path class="st3" d="M354.7,81.4c-0.2,1.2-0.2,2.4-0.2,3.6c0,1.2,0,2.5-0.1,3.8c-1.2,1.8-1.8,4.2-1.8,7.1c0,0.5,0.1,1.2,0.2,2.1
				c0.1,0.9,0.2,1.9,0.4,2.9c0.2,1,0.3,2.1,0.4,3c0.1,1,0.2,1.8,0.2,2.3c0,0.7-0.1,1.6-0.4,2.6c-0.3,1-0.6,2.1-1,3.5
				c-0.7,2.4-1.1,5.1-1.3,8.2c-0.2,3.1-0.3,6.3-0.5,9.6c-0.1,3.2-0.3,6.3-0.5,9.3c-0.2,3-0.6,5.4-1.3,7.4c-0.8,2.6-1.2,4.9-1.5,6.9
				c-0.2,2-0.4,3.8-0.5,5.4c-0.1,1.6-0.3,3.2-0.5,4.7c-0.2,1.5-0.8,3.1-1.6,4.8c-0.1-0.8-0.3-2-0.7-3.7c-0.4-1.7-0.9-3.5-1.3-5.4
				c-0.5-1.9-0.9-3.7-1.3-5.5c-0.4-1.8-0.6-3.1-0.6-4.1c0-0.2,0-0.4,0-0.6c0-0.2,0-0.6,0.1-0.9c0-0.5,0-0.9,0-1.4
				c0-0.7-0.2-1.8-0.5-3.3c-0.3-1.5-0.7-3-1.1-4.7c-0.4-1.7-0.8-3.2-1.1-4.7c-0.3-1.5-0.5-2.6-0.5-3.3c0-0.5,0-1.1,0.1-1.9
				c0.1-0.8,0.2-1.6,0.2-2.5c0.1-0.9,0.2-1.7,0.2-2.5c0.1-0.8,0.1-1.4,0.1-1.9c0-0.8-0.2-2.1-0.5-3.9c-0.3-1.8-0.6-3.6-1-5.5
				c-0.3-1.9-0.7-3.7-1-5.5c-0.3-1.7-0.5-3.1-0.5-4c0-1,0.1-2.4,0.3-4.2c0.2-1.8,0.4-3.7,0.6-5.6c0.2-2,0.4-3.9,0.6-5.6
				c0.2-1.8,0.3-3.1,0.3-4c0-0.6-0.1-1.5-0.2-2.8c-0.1-1.3-0.2-2.6-0.3-4c-0.1-1.4-0.2-2.7-0.3-3.9c-0.1-1.2-0.2-2.1-0.2-2.6
				c0-1.1,0.3-1.9,0.8-2.3c0.5-0.4,1.5-0.3,2.8,0.1c0.2,0.1,0.6,0.3,1,0.7c0.5,0.4,1,0.8,1.5,1.4c0.5,0.5,1,1,1.5,1.4
				c0.5,0.4,0.8,0.6,1,0.7c0.9,0.3,1.8,0.2,2.7-0.3c0.9-0.5,1.7-0.6,2.6-0.3c3.4,1.2,5.1,2.8,5.1,4.6
				C355.1,78.2,354.9,79.8,354.7,81.4z"/>
			<path class="st3" d="M411.5,109.1c0,2-1.1,4.9-3.2,8.9c-1,2-1.6,4.9-1.6,8.7c0,0.3,0.1,0.9,0.2,1.6c0.1,0.8,0.2,1.4,0.2,1.8
				c0,0.4-0.1,1-0.2,1.7c-0.1,0.7-0.3,1.5-0.5,2.3c-0.2,0.8-0.4,1.6-0.5,2.3c-0.1,0.7-0.2,1.3-0.2,1.8c0,0.9-0.2,1.9-0.7,2.9
				c-0.5,1-1,2.1-1.6,3.2c-0.6,1.1-1.1,2.2-1.6,3.2c-0.5,1.1-0.7,2.1-0.7,3.1c0,2.4,0,4.5-0.1,6.5c-0.1,1.9-0.3,3.5-0.6,4.8
				c-0.1,0.4-0.5,1.1-0.9,2.1c-0.5,1-1,2.1-1.6,3.2c-0.6,1.2-1.1,2.4-1.5,3.7c-0.4,1.3-0.6,2.3-0.6,3.1c0,0.4,0,0.9,0.1,1.5
				c0.1,0.6,0.1,1.1,0.1,1.4c0,0.7-0.2,1.2-0.7,1.3c-0.5,0.1-1.1,0.2-1.8,0.3c-0.7,0.1-1.4,0.2-2.1,0.5c-0.7,0.3-1.3,0.8-1.7,1.8
				c-0.2,0.2-0.6,0.5-1.2,1c-0.6,0.4-1.3,0.9-2,1.4c-0.8,0.5-1.5,1-2.1,1.6c-0.6,0.6-1.1,1-1.3,1.4c-0.8-1.4-1.9-3.4-3.3-5.9
				c-1.4-2.5-2.7-5.5-3.8-9c-0.1-0.1-0.4-0.7-1.1-1.8c-0.7-1.1-1.4-2.3-2.1-3.7c-0.8-1.4-1.5-2.9-2.1-4.5c-0.6-1.6-0.9-2.9-0.9-4.2
				c0-0.7-0.3-1.7-0.8-3c-0.6-1.2-1.1-2.6-1.8-4c-0.6-1.5-1.2-3-1.8-4.6c-0.6-1.6-0.8-3.2-0.8-4.8c0-0.5,0-1.1,0.1-1.9
				c0.1-0.8,0.1-1.6,0.2-2.5c0.1-0.9,0.1-1.7,0.2-2.5c0.1-0.8,0.1-1.4,0.1-1.9c0-1-0.3-2.4-0.9-4.3c-0.6-1.9-1.3-3.9-2.1-6
				c-0.8-2.1-1.5-4.1-2.1-6c-0.6-1.9-1-3.3-1-4.2c0-1.6,0-3.1,0-4.7c0-0.7,0-1.6,0.1-2.9c0-1.3,0.1-2.6,0.2-3.9
				c0.1-1.4,0.1-2.7,0.2-3.9c0-1.2,0.1-2.1,0.1-2.6c0-0.9-0.2-2.2-0.7-4c-0.4-1.7-0.9-3.5-1.4-5.3c-0.5-1.8-1-3.5-1.4-5
				c-0.5-1.5-0.7-2.5-0.7-3c0-1.6,0.8-2.1,2.5-1.5c0.7,0.3,1.4,0.7,2.1,1.2c0.7,0.5,1.5,1.1,2.3,1.7c0.8,0.6,1.6,1.2,2.4,1.8
				c0.8,0.6,1.6,1,2.2,1.3c1.1,0.5,2.3,1,3.4,1.5c1.5,0.7,2.4,1.6,2.9,2.8c0.4,1.2,0.7,3.6,0.7,7.2c0,0.6-0.1,1.3-0.3,2.3
				c-0.2,0.9-0.4,1.9-0.6,2.9c-0.2,1-0.4,1.9-0.6,2.9c-0.2,0.9-0.3,1.7-0.3,2.3c0,0.8,0.2,1.8,0.7,2.9c0.5,1.1,1,2.3,1.5,3.5
				c0.5,1.2,1.1,2.4,1.5,3.6c0.5,1.2,0.7,2.3,0.7,3.3c0,0.7-0.1,1.6-0.2,2.8c-0.1,1.2-0.3,2.5-0.5,3.9c-0.2,1.4-0.4,2.7-0.5,4
				c-0.1,1.3-0.2,2.3-0.2,3c0.1,0,0.2,0.8,0.5,2.2c0.3,1.4,0.5,3.2,0.9,5.3c0.3,2.1,0.6,4.4,0.9,6.8c0.3,2.4,0.4,4.6,0.4,6.5
				c0,8,2.1,15.5,6.2,22.8c0.6-1,1.2-2.5,1.7-4.4c0.6-1.9,1.1-4.1,1.6-6.4c0.5-2.3,0.8-4.8,1.1-7.3c0.3-2.6,0.4-4.9,0.4-7.1
				c0-1.9,0.2-3.5,0.6-4.8c0.4-1.3,0.9-2.6,1.3-3.7c0.5-1.1,0.9-2.2,1.3-3.3c0.4-1.1,0.6-2.3,0.6-3.6c0-0.6-0.1-1.5-0.2-2.8
				c-0.1-1.3-0.2-2.7-0.4-4.1c-0.1-1.4-0.3-2.8-0.4-4.1c-0.1-1.3-0.2-2.3-0.2-2.9c0-0.4,0.1-1,0.4-1.7c0.2-0.7,0.5-1.5,0.7-2.3
				c0.2-0.8,0.5-1.6,0.7-2.3c0.2-0.8,0.4-1.3,0.4-1.8c-1.1-3.8-1.6-6.9-1.6-9.2c0-3.9,0.4-6.2,1.1-7.2c0.7-0.9,1.8-1,3.2-0.2
				c0.9,0.5,2.1,1.5,3.5,3c1.4,1.5,2.6,2.5,3.5,3.1c0.5,0.3,1.3,0.6,2.3,0.8c1,0.3,1.8,0.5,2.3,0.9
				C410.3,103.7,411.5,106,411.5,109.1z"/>
			<path class="st3" d="M453.5,152.2c0,5.9-0.6,8.3-1.7,7.1c-0.4-0.4-0.8-1.1-1.2-2c-0.4-0.9-0.7-1.8-1.1-2.7
				c-0.3-0.9-0.7-1.8-1-2.7c-0.3-0.9-0.7-1.5-1.1-1.8c-0.4-0.4-1-0.7-1.8-0.9c-0.7-0.2-1.3-0.5-1.7-0.8c-0.7-0.6-1.3-1.5-1.9-2.5
				c-0.6-1-1.1-1.7-1.6-2.1c-0.5-0.4-1.1-0.6-1.7-0.5c-0.6,0.1-1,0.1-1.2-0.1c-0.6-0.6-1.6-1.5-2.7-2.8c-1.2-1.3-2-2.1-2.5-2.5
				c-0.9-0.7-1.4,0.2-1.4,2.9c0,3.3,0,6.6,0,10c0,0.5-0.1,1-0.2,1.6c-0.1,0.6-0.3,1.2-0.5,1.8c-0.2,0.6-0.4,1.2-0.5,1.9
				c-0.1,0.6-0.2,1.2-0.2,1.7c0,2.7,3.1,6.5,9.2,11.7c1.1,0.9,2.1,1.8,3.1,2.5c1,0.7,1.9,1.3,2.7,1.8c0.8,0.5,1.6,1,2.6,1.5
				c0.6,0.6,0.9,3.1,0.9,7.4c0,4.8-1,6.3-3,4.5c-0.4-0.3-0.7-0.8-1.1-1.4c-0.3-0.6-0.7-1.2-1-1.9c-0.3-0.7-0.7-1.3-1-1.9
				c-0.3-0.6-0.7-1.1-1.1-1.4c-0.4-0.3-0.7-0.4-0.9-0.2c-0.2,0.2-0.4,0.4-0.6,0.6c-0.2,0.2-0.4,0.5-0.6,0.6
				c-0.2,0.2-0.5,0.1-0.9-0.2c-0.4-0.4-1-1.1-1.7-2.2c-0.7-1.1-1.4-2.2-2.2-3.4c-0.7-1.2-1.5-2.3-2.2-3.3c-0.7-1.1-1.3-1.8-1.7-2.1
				c-1.5-1.2-2.3,0.3-2.3,4.6c0,0.8,0,2.1,0.1,3.8c0.1,1.7,0.1,3,0.1,3.8c0,0.8-0.1,1.9-0.4,3.4c-0.3,1.4-0.6,2.9-0.9,4.3
				c-0.4,1.4-0.7,2.8-0.9,4.1c-0.3,1.3-0.4,2.2-0.4,2.7c0,1.7,1.8,3.9,5.2,6.7c3.5,2.8,6.6,5.1,9.3,6.8c2.8,1.7,5.5,3.9,8.2,6.5
				c2,1.9,3,3.4,3,4.3c0,3.2-0.2,5.5-0.5,6.9c-0.3,1.4-1,1.6-2.2,0.5c-0.5-0.5-0.9-1-1.3-1.7c-0.4-0.7-0.7-1.4-1.1-2
				c-0.3-0.7-0.7-1.3-1-2c-0.3-0.6-0.7-1.1-1-1.4c-0.6-0.6-1.3-0.8-2-0.8c-0.7,0-1.5,0.2-2.2,0.4c-0.8,0.2-1.5,0.3-2.2,0.4
				c-0.7,0.1-1.3-0.1-1.9-0.6c-0.3-0.3-0.7-0.8-1-1.6c-0.4-0.8-0.8-1.7-1.2-2.6c-0.5-1-0.9-1.9-1.4-2.8c-0.5-0.9-1-1.5-1.5-2
				c-4.9-3.9-8-4.8-9-2.9c0-0.4-0.1-1.3-0.3-2.8c-0.2-1.4-0.4-3-0.6-4.8c-0.2-1.8-0.4-3.5-0.6-5.3c-0.2-1.8-0.3-3.1-0.3-4.1
				c0-0.8,0-1.6,0-2.3c0.1-0.4,0.1-0.8,0.1-1.2c0-0.4,0-0.7,0-0.9c0-0.7-0.1-1.9-0.4-3.4c-0.3-1.5-0.6-3.2-1-5
				c-0.4-1.8-0.7-3.5-1-5.1c-0.3-1.6-0.4-2.8-0.4-3.5c0-0.5,0-1.1,0.1-1.9c0.1-0.8,0.1-1.6,0.2-2.4c0.1-0.9,0.1-1.7,0.2-2.4
				c0.1-0.8,0.1-1.4,0.1-1.9c0-0.8-0.1-2.2-0.4-4c-0.3-1.9-0.6-3.8-0.9-5.8c-0.3-2-0.6-3.9-0.9-5.8c-0.3-1.8-0.4-3.2-0.4-4.1
				c0-1,0.1-2.3,0.4-4c0.3-1.7,0.6-3.4,0.9-5.1c0.3-1.8,0.6-3.5,0.9-5.1c0.3-1.7,0.4-3,0.4-4c0-0.6-0.1-1.5-0.2-2.8
				c-0.1-1.3-0.2-2.7-0.3-4.1c-0.1-1.4-0.2-2.8-0.3-4c-0.1-1.3-0.2-2.1-0.2-2.6c0-0.4,0-0.7,0-1.1c0.1-0.5,0.5-0.8,1.2-0.7
				c0.7,0.1,1.4,0.3,2,0.8c0.2,0.1,0.5,0.5,0.9,1c0.4,0.5,0.8,1.1,1.2,1.8c0.4,0.7,0.8,1.3,1.2,1.8c0.4,0.5,0.7,0.9,1,1.1
				c0.7,0.6,1.5,0.7,2.3,0.5c0.8-0.2,1.5,0,2.2,0.5c2,1.6,3.2,2.9,3.8,3.8c0.8,0.6,2,1.6,3.7,3c1.7,1.4,3.5,2.8,5.3,4.4
				c1.8,1.6,3.5,3.1,5.2,4.6c1.6,1.4,2.8,2.6,3.6,3.3c1.3,1.3,2.1,3.3,2.4,6.2C453.4,144.4,453.5,148,453.5,152.2z"/>
		</g>
	</g>
	<rect x="983.4" y="800.6" style="fill:none;" width="2" height="0"/>
</g>
</svg>
