<?xml version="1.0" encoding="UTF-8" standalone="no"?>
<!-- Generator: Adobe Illustrator 25.4.1, SVG Export Plug-In . SVG Version: 6.00 Build 0)  -->

<svg
   version="1.1"
   id="Ñëîé_1"
   x="0px"
   y="0px"
   viewBox="0 0 500 500"
   xml:space="preserve"
   sodipodi:docname="retrograde.svg"
   width="500"
   height="500"
   inkscape:version="1.1.1 (3bf5ae0d25, 2021-09-20)"
   xmlns:inkscape="http://www.inkscape.org/namespaces/inkscape"
   xmlns:sodipodi="http://sodipodi.sourceforge.net/DTD/sodipodi-0.dtd"
   xmlns="http://www.w3.org/2000/svg"
   xmlns:svg="http://www.w3.org/2000/svg"><defs
   id="defs97" /><sodipodi:namedview
   id="namedview95"
   pagecolor="#ffffff"
   bordercolor="#666666"
   borderopacity="1.0"
   inkscape:pageshadow="2"
   inkscape:pageopacity="0.0"
   inkscape:pagecheckerboard="0"
   showgrid="false"
   width="500px"
   inkscape:zoom="1.0775"
   inkscape:cx="173.08585"
   inkscape:cy="174.01392"
   inkscape:window-width="1920"
   inkscape:window-height="1051"
   inkscape:window-x="2391"
   inkscape:window-y="-9"
   inkscape:window-maximized="1"
   inkscape:current-layer="Ñëîé_1" />
<style
   type="text/css"
   id="style2">
	.st0{fill:#47BDC6;}
	.st1{fill:#EAE6D3;}
	.st2{fill:#F36849;}
</style>
<g
   id="g92"
   transform="scale(3.7009623,4.995005)">
	<g
   id="g30">
		<g
   id="g12">
			<path
   class="st0"
   d="m 81.1,22.4 -1.5,2.4 c 1.6,3.8 2.6,8 2.6,12.4 0,17.4 -14.2,31.6 -31.6,31.6 -3.4,0 -6.8,-0.6 -10,-1.6 -0.8,0.5 -1.6,1.1 -2.5,1.6 4,1.5 8.2,2.4 12.5,2.4 18.7,0 33.9,-15.2 33.9,-33.9 0,-5.4 -1.2,-10.4 -3.4,-14.9 z"
   id="path4" />
			<path
   class="st0"
   d="M 19,37.3 C 19.8,19.5 36.5,5.6 50,5.6 c 0.2,0 0.4,0 0.6,0 4.4,0.1 8.5,1.1 12.2,2.7 L 65.3,6.8 C 60.9,4.7 55.9,3.4 50.7,3.3 35.7,2.9 17.6,17.6 16.7,37.2 16.5,41.6 17.3,46 18.9,50.1 19.5,49.2 20,48.4 20.5,47.6 19.3,44.2 18.8,40.8 19,37.3 Z"
   id="path6" />
			<path
   class="st0"
   d="m 52.7,63.8 c -0.5,0 -0.9,0 -1.4,0.1 H 50.6 49.9 L 48.4,63.8 H 47.7 L 47,63.7 c -0.4,-0.1 -0.9,-0.1 -1.3,-0.2 -0.5,0.5 -1.3,1.1 -2.2,1.8 l 0.3,0.1 c 1,0.3 2.1,0.4 3.1,0.5 l 0.8,0.1 h 0.7 l 1.5,0.1 h 0.8 0.8 c 0.5,0 1,-0.1 1.5,-0.1 4,-0.3 7.7,-1.5 10.9,-3.3 3.2,-1.7 5.8,-4 7.9,-6.3 2.1,-2.4 3.6,-4.9 4.5,-7.2 0.1,-0.3 0.3,-0.6 0.4,-0.9 0.1,-0.3 0.2,-0.6 0.3,-0.9 0.2,-0.6 0.4,-1.1 0.5,-1.6 0.3,-1.1 0.5,-2 0.7,-2.9 0.1,-0.9 0.2,-1.7 0.3,-2.4 0.1,-0.7 0,-1.3 0.1,-1.8 0,-1 0,-1.5 0,-1.5 0,0 0,0.5 -0.1,1.5 -0.1,0.5 -0.1,1.1 -0.2,1.7 -0.1,0.7 -0.3,1.5 -0.4,2.3 -0.3,0.8 -0.5,1.8 -0.8,2.8 -0.2,0.5 -0.4,1 -0.6,1.5 -0.1,0.3 -0.2,0.5 -0.3,0.8 -0.1,0.3 -0.3,0.5 -0.4,0.8 -1.1,2.2 -2.7,4.5 -4.7,6.7 -2.1,2.2 -4.6,4.2 -7.7,5.7 -3.5,1.6 -7,2.5 -10.7,2.8 z"
   id="path8" />
			<path
   class="st0"
   d="m 39.9,12.1 c 0.3,-0.1 0.5,-0.2 0.8,-0.3 0.5,-0.2 1,-0.4 1.5,-0.6 1,-0.3 2,-0.6 2.8,-0.8 0.9,-0.2 1.7,-0.3 2.3,-0.4 0.7,-0.1 1.3,-0.1 1.7,-0.2 1,-0.1 1.5,-0.1 1.5,-0.1 0,0 -0.5,0 -1.5,0 -0.5,0 -1.1,0 -1.8,0.1 -0.7,0.1 -1.5,0.2 -2.4,0.3 -0.9,0.2 -1.9,0.4 -2.9,0.7 -0.5,0.2 -1.1,0.3 -1.6,0.5 -0.3,0.1 -0.6,0.2 -0.9,0.3 -0.3,0.1 -0.6,0.2 -0.9,0.4 -2.4,0.9 -4.8,2.5 -7.2,4.5 -2.4,2 -4.6,4.7 -6.3,7.9 -1.7,3.2 -2.9,6.9 -3.3,10.9 -0.3,3 -0.1,6.2 0.7,9.3 0.7,-1 1.3,-1.7 1.8,-2.3 -0.4,-2.3 -0.6,-4.6 -0.4,-7 0.3,-3.6 1.2,-7.1 2.8,-10.2 1.5,-3 3.5,-5.6 5.7,-7.7 2.2,-2 4.5,-3.6 6.7,-4.7 0.4,-0.4 0.6,-0.5 0.9,-0.6 z"
   id="path10" />
		</g>
		<g
   id="g22">
			<path
   class="st1"
   d="m 49.1,25.2 c 4.8,-5.1 9,-9.2 12.7,-12.6 1.2,-1.1 2.4,-2.1 3.5,-3.1 0.1,-0.1 0.3,-0.2 0.4,-0.4 v 0 L 67,7.7 67.2,7.5 v 0 l -0.3,0.2 -2.4,1.4 -29,17.6 12.1,0.1 c 0.5,-0.6 1,-1.1 1.5,-1.6 z"
   id="path14" />
			<path
   class="st1"
   d="m 78.7,22 c -0.1,0.1 -0.2,0.2 -0.3,0.3 -1,1.2 -2,2.4 -3.2,3.7 -3.3,3.7 -7.5,7.9 -12.6,12.7 -0.5,0.5 -1,1 -1.6,1.5 l 0.1,12.1 17.7,-29.1 1.4,-2.4 0.1,-0.1 -0.1,0.1 z"
   id="path16" />
			<path
   class="st1"
   d="m 72.2,11.1 c -0.1,0 -0.1,0 -0.2,0 -0.9,0 -1.8,0.4 -2.6,1 -0.1,0.1 -0.3,0.2 -0.4,0.3 -0.8,0.8 -1.3,2 -1.3,3.1 0,1.2 0.5,2.3 1.3,3.1 1.7,1.7 4.6,1.7 6.3,0 0.1,-0.1 0.2,-0.3 0.3,-0.4 0.6,-0.7 0.9,-1.6 0.9,-2.6 0,0 0,-0.1 0,-0.1 0,-1.2 -0.5,-2.3 -1.3,-3.1 -0.7,-0.9 -1.8,-1.3 -3,-1.3 z m 2.8,6.3 c -0.1,0.2 -0.3,0.4 -0.4,0.5 -1.3,1.3 -3.4,1.3 -4.7,0 -1.3,-1.3 -1.3,-3.4 0,-4.7 0.1,-0.1 0.3,-0.3 0.5,-0.4 1,-0.7 2.3,-0.8 3.4,-0.2 0.3,0.2 0.6,0.3 0.8,0.6 0.2,0.2 0.4,0.5 0.6,0.8 0.5,1 0.5,2.4 -0.2,3.4 z"
   id="path18" />
			<path
   class="st1"
   d="m 74.5,25.5 c 1.2,-1.3 2.2,-2.5 3.2,-3.7 0.1,-0.1 0.1,-0.2 0.2,-0.2 0.6,-0.7 1.1,-1.3 1.6,-2 7.2,-9 8.4,-13.8 8.3,-16.1 C 87.7,1.7 86.9,1 86.9,1 c 0,0 -0.1,-0.1 -0.1,-0.1 0,0 -0.6,-0.9 -2.5,-0.9 -0.1,0 -0.1,0 -0.2,0 -2.4,0 -7.2,1.3 -16,8.4 -0.6,0.5 -1.3,1 -2,1.6 0,0 -0.1,0.1 -0.1,0.1 -1.2,1 -2.4,2.1 -3.7,3.2 -3.5,3.2 -7.5,7.1 -12,11.9 -0.5,0.5 -1,1 -1.5,1.6 -3.4,3.7 -7.1,7.8 -11.1,12.5 -0.1,0.1 -0.2,0.2 -0.3,0.4 -0.1,0.1 -0.2,0.2 -0.3,0.4 -0.2,0.2 -0.4,0.5 -0.6,0.7 -2.7,3.2 -5.5,6.6 -8.5,10.3 -0.5,0.6 -1,1.3 -1.5,1.9 -0.6,0.8 -1.3,1.6 -2,2.4 -0.4,0.5 -0.8,1 -1.2,1.5 l 1.4,-1.3 2.2,-2 1.8,-1.6 11.7,-10.4 0.6,-0.5 0.3,-0.3 0.3,-0.3 0.9,-0.8 4.6,-4.1 9.3,-8.9 -8.8,9.4 -4,4.6 -0.6,0.8 -0.3,0.3 -0.3,0.3 -0.5,0.6 L 31,55.2 29.5,57 27.6,59.2 26,61 l -5.1,5.9 5.9,-5.1 1.8,-1.6 2.2,-1.9 1.8,-1.6 12.5,-10.9 0.6,-0.5 0.3,-0.3 0.3,-0.3 0.6,-0.6 4.6,-4 9.4,-8.8 -8.9,9.3 v 0 l -4.1,4.6 -0.8,0.9 -0.3,0.3 -0.3,0.3 -0.5,0.6 -10.3,11.9 -1.5,1.8 -1.9,2.1 -1.4,1.5 c 0.6,-0.5 1.1,-0.9 1.7,-1.3 0.8,-0.6 1.5,-1.2 2.3,-1.8 0.6,-0.5 1.3,-1 1.9,-1.5 3.7,-3 7.1,-5.8 10.3,-8.5 0.2,-0.2 0.5,-0.4 0.7,-0.6 0.1,-0.1 0.2,-0.2 0.4,-0.3 0.1,-0.1 0.2,-0.2 0.4,-0.3 4.7,-4 8.8,-7.7 12.5,-11.1 0.5,-0.5 1.1,-1 1.6,-1.5 C 67.4,33 71.3,29 74.5,25.5 Z m 1.4,-6.2 c -1,1 -2.4,1.5 -3.7,1.5 -1.3,0 -2.7,-0.5 -3.7,-1.5 -1,-1 -1.5,-2.3 -1.5,-3.7 0,-1.4 0.5,-2.7 1.5,-3.7 0.1,-0.1 0.2,-0.1 0.3,-0.2 0.7,-0.6 1.5,-1 2.4,-1.2 1.7,-0.3 3.5,0.1 4.8,1.4 1,1 1.5,2.3 1.5,3.7 0,0.3 0,0.7 -0.1,1 -0.2,0.9 -0.6,1.7 -1.2,2.4 -0.1,0.1 -0.2,0.2 -0.3,0.3 z"
   id="path20" />
		</g>
		<g
   id="g28">
			<path
   class="st2"
   d="m 47.2,52.4 c -3,2.5 -6.2,5.2 -9.6,8 -0.6,0.5 -1.3,1 -1.9,1.6 -0.8,0.6 -1.5,1.2 -2.3,1.9 -0.6,0.5 -1.3,1 -2,1.6 -1.1,0.9 -2.3,1.8 -3.5,2.7 -0.2,0.1 -0.4,0.1 -0.5,0 -0.1,-0.1 -0.1,-0.4 0,-0.5 l 2.7,-3 1.6,-1.8 1.9,-2.1 1.6,-1.7 10.6,-11.9 0.6,-0.6 c 0,-0.1 -0.1,-0.1 -0.1,-0.2 l -0.6,0.5 -12.5,10.4 -1.8,1.6 -2.2,1.9 -1.8,1.6 -10.2,8.8 c -0.1,0.1 -0.2,0.1 -0.3,0.1 -0.1,0 -0.2,0 -0.3,-0.1 -0.1,-0.1 -0.2,-0.4 0,-0.5 l 8.8,-10.2 1.6,-1.8 1.9,-2.2 1.6,-1.8 10.7,-12.4 0.5,-0.6 c -0.1,0 -0.1,-0.1 -0.2,-0.1 l -0.6,0.6 -11.9,10.5 -1.8,1.6 -2.2,2 -1.8,1.6 -2.9,2.6 c -0.2,0.1 -0.4,0.1 -0.5,0 -0.1,-0.1 -0.2,-0.4 0,-0.5 0.9,-1.1 1.7,-2.2 2.6,-3.3 0.5,-0.7 1,-1.3 1.5,-1.9 0.7,-0.8 1.3,-1.7 2,-2.5 0.5,-0.6 1,-1.3 1.6,-1.9 2.8,-3.4 5.4,-6.6 8,-9.6 0.2,-0.3 0.4,-0.5 0.7,-0.8 -0.3,0 -0.6,0 -0.8,0 -3.4,0 -6.6,1.3 -9,3.7 -0.3,0.3 -0.7,0.7 -1.1,1.3 -0.5,0.6 -1,1.4 -1.6,2.3 -0.6,0.9 -1.3,2 -2,3.1 -0.5,0.8 -1,1.6 -1.5,2.4 C 12.8,64.3 2.6,82.9 0,87.8 1.6,86.9 4.7,85.2 8.6,83.1 8.6,83 8.5,83 8.5,82.9 8.4,82.7 8.4,82.5 8.4,82.4 c -0.1,-0.6 -0.1,-1.3 0,-2 0.1,-0.8 0.4,-1.6 0.8,-2.3 0.4,-0.8 1,-1.4 1.6,-1.9 0.6,-0.5 1.4,-0.9 2.2,-1.3 0.9,-0.3 1.8,-0.5 2.8,-0.5 1.3,0 2.6,0.2 3.9,0.6 0.4,-0.3 0.8,-0.4 1.3,-0.4 h 1.5 1.6 c 4.1,-2.4 8.1,-4.7 11.5,-6.8 0.8,-0.5 1.7,-1 2.4,-1.5 1,-0.7 2,-1.3 2.8,-1.8 0.9,-0.6 1.7,-1.1 2.3,-1.6 0.6,-0.4 1,-0.8 1.3,-1.1 2.4,-2.4 3.7,-5.6 3.7,-9 0,-0.3 0,-0.6 0,-0.8 -0.4,-0.1 -0.7,0.2 -0.9,0.4 z"
   id="path24" />
			<path
   class="st2"
   d="M 75.1,14 C 75,13.7 74.8,13.5 74.5,13.2 74.3,13 74,12.8 73.7,12.6 72.6,12 71.3,12.1 70.3,12.8 70.1,12.9 70,13 69.8,13.2 c -1.3,1.3 -1.3,3.4 0,4.7 1.3,1.3 3.4,1.3 4.7,0 0.2,-0.2 0.3,-0.3 0.4,-0.5 0.8,-1 0.8,-2.4 0.2,-3.4 z"
   id="path26" />
		</g>
	</g>
	<g
   id="g52">
		<path
   class="st1"
   d="m 31.1,92.3 0.5,-1 2,-14.3 -0.2,-1 h 7.1 l 1.2,1.3 -1.1,7.4 -1.6,1.4 0.5,5.1 0.3,1.1 h -3.4 l 0.4,-1 -0.5,-4.9 -0.2,-0.3 h -0.9 l -0.2,0.4 -0.7,4.8 0.2,1 z m 6.7,-8.9 0.4,-0.3 0.6,-4.1 -0.3,-0.3 H 36.4 L 36,79 l -0.6,4.1 0.3,0.3 z"
   id="path32" />
		<path
   class="st1"
   d="M 41.5,92.3 42,91.2 44,77 43.8,76 H 52 l 0.1,3 -1.1,-0.3 h -4.2 l -0.4,0.3 -0.5,3.4 0.3,0.3 h 1.4 l 1.1,-0.3 -0.5,3.4 -1,-0.3 h -1.4 l -0.4,0.3 -0.5,3.5 0.3,0.3 h 4.2 l 1.2,-0.3 -0.9,3.1 h -8.2 z"
   id="path34" />
		<path
   class="st1"
   d="m 62.3,79 -1.1,-0.3 h -2 l -0.4,0.3 -1.7,12.3 0.2,1 h -3.4 l 0.5,-1 1.7,-12.3 -0.3,-0.3 h -2.1 l -1.1,0.3 0.9,-3.1 h 8.8 z"
   id="path36" />
		<path
   class="st1"
   d="m 61.6,92.3 0.5,-1 2,-14.3 -0.2,-1 H 71 l 1.2,1.3 -1.1,7.4 -1.6,1.4 0.5,5.1 0.3,1.1 h -3.4 l 0.4,-1 -0.5,-4.9 -0.2,-0.3 h -0.9 l -0.4,0.3 -0.7,4.8 0.2,1 H 61.6 Z M 68.3,83.4 68.7,83.1 69.3,79 69,78.7 h -2.1 l -0.4,0.3 -0.6,4.1 0.3,0.3 z"
   id="path38" />
		<path
   class="st1"
   d="M 82.4,77.3 80.5,91 79,92.4 H 73.6 L 72.3,91 74.2,77.3 75.8,76 h 5.4 z m -3.3,1.4 H 77 l -0.3,0.3 -1.4,10.3 0.3,0.3 h 2.1 L 78.1,89.3 79.4,79 Z"
   id="path40" />
		<path
   class="st1"
   d="M 82.5,91 84.4,77.3 86,76 h 5.4 l 1.2,1.3 -0.4,2.8 0.2,1 H 89 l 0.5,-1 0.2,-1.1 -0.3,-0.3 h -2.1 l -0.4,0.3 -1.4,10.3 0.3,0.3 h 2.1 l 0.3,-0.3 0.4,-2.9 H 87.8 L 87.6,83.6 H 92 l -0.5,1.1 -0.8,6.3 -1.5,1.4 h -5.4 z"
   id="path42" />
		<path
   class="st1"
   d="M 92.5,92.3 93,91.3 95,77 94.8,76 h 7.1 l 1.2,1.3 -1.1,7.4 -1.6,1.4 0.5,5.1 0.3,1.1 h -3.4 l 0.4,-1 -0.5,-4.9 -0.2,-0.3 h -0.9 l -0.4,0.3 -0.7,4.8 0.2,1 h -3.2 z m 6.7,-8.9 0.4,-0.3 0.6,-4.1 -0.3,-0.3 h -2.1 l -0.4,0.3 -0.6,4.1 0.3,0.3 z"
   id="path44" />
		<path
   class="st1"
   d="m 113.1,92.3 h -3.4 l 0.3,-0.6 -0.2,-2.5 -0.3,-0.3 h -2.7 l -0.4,0.3 -1,2.5 0.2,0.6 h -3.4 l 0.7,-1.1 5.4,-14.3 -0.2,-0.9 h 3.7 l -0.4,0.9 1.3,14.3 z m -5.4,-6.2 h 1.6 l 0.3,-0.2 -0.3,-5.2 -1.8,5.2 z"
   id="path46" />
		<path
   class="st1"
   d="m 116.4,76 h 7.1 l 1.2,1.3 -1.9,13.7 -1.6,1.4 h -7.1 l 0.5,-1.1 2,-14.3 z m 1.2,13.3 0.3,0.3 h 2.1 l 0.4,-0.3 1.4,-10.3 -0.3,-0.3 h -2.1 L 119,79 Z"
   id="path48" />
		<path
   class="st1"
   d="m 124.5,92.3 0.5,-1.1 2,-14.3 -0.2,-1 h 8.2 l 0.1,3 -1.1,-0.3 h -4.2 l -0.4,0.3 -0.5,3.4 0.3,0.3 h 1.4 l 1.1,-0.3 -0.5,3.4 -1,-0.3 h -1.4 l -0.4,0.3 -0.5,3.5 0.3,0.3 h 4.2 l 1.2,-0.3 -0.9,3.1 z"
   id="path50" />
	</g>
	<g
   id="g90">
		<path
   class="st2"
   d="m 34.6,94.3 -0.7,5.2 -0.6,0.5 h -2.1 l -0.5,-0.5 0.7,-5.2 0.6,-0.5 h 2.1 z m -1.3,0.5 h -0.8 l -0.1,0.1 -0.5,3.9 0.1,0.2 h 0.8 l 0.1,-0.1 0.5,-3.9 z"
   id="path54" />
		<path
   class="st2"
   d="m 35.8,100 h -1.3 l 0.2,-0.4 0.8,-5.4 -0.1,-0.4 h 1.2 l 1,3.8 0.5,-3.4 -0.1,-0.4 h 1.3 l -0.3,0.4 -0.8,5.4 0.1,0.4 h -1.2 l -1,-3.8 -0.5,3.4 z"
   id="path56" />
		<path
   class="st2"
   d="M 43.9,99.6 V 100 H 42.5 L 42.6,99.6 42.5,96 41.3,99.6 V 100 H 39.9 L 40,99.6 39.6,94.4 39.5,93.8 h 1.3 l -0.1,0.2 0.2,3.8 1.3,-3.7 v -0.3 h 1.3 l -0.1,0.3 0.2,3.7 1.3,-3.8 -0.1,-0.2 h 1.3 l -0.3,0.6 z"
   id="path58" />
		<path
   class="st2"
   d="m 48.8,100 h -1.3 l 0.1,-0.2 -0.1,-0.9 -0.1,-0.1 h -1 l -0.1,0.1 -0.4,0.9 0.1,0.2 h -1.3 l 0.3,-0.4 2,-5.4 -0.1,-0.4 h 1.4 l -0.2,0.4 0.5,5.4 z m -2.1,-2.4 h 0.6 l 0.1,-0.1 -0.1,-2 z"
   id="path60" />
		<path
   class="st2"
   d="m 49.2,100 0.2,-0.4 0.8,-5.4 -0.2,-0.4 h 2.7 l 0.5,0.5 -0.4,2.8 -0.6,0.5 0.2,1.9 0.1,0.4 H 51.2 L 51.3,99.5 51.1,97.6 51,97.5 h -0.3 l -0.1,0.1 -0.3,1.8 0.1,0.4 h -1.2 z m 2.5,-3.4 0.1,-0.1 0.2,-1.6 v -0.1 h -0.8 l -0.2,0.1 -0.2,1.6 0.1,0.1 z"
   id="path62" />
		<path
   class="st2"
   d="m 54,93.8 h 2.7 l 0.5,0.5 -0.7,5.2 -0.6,0.5 h -2.7 l 0.2,-0.4 0.8,-5.4 z m 0.4,5 0.1,0.1 h 0.8 l 0.1,-0.1 0.5,-3.9 -0.1,-0.1 H 55 v 0.1 z"
   id="path64" />
		<path
   class="st2"
   d="M 63.2,94.9 62.8,94.8 H 62 l -0.1,0.1 -0.7,4.7 0.1,0.4 H 60 l 0.2,-0.4 0.7,-4.7 -0.1,-0.1 H 60 l -0.4,0.1 0.4,-1.2 h 3.3 z"
   id="path66" />
		<path
   class="st2"
   d="m 66.9,94.3 -0.7,5.2 -0.6,0.5 h -2.1 l -0.5,-0.5 0.7,-5.2 0.6,-0.5 h 2.1 z m -1.2,0.5 h -0.8 l -0.1,0.1 -0.5,3.9 0.1,0.1 h 0.8 l 0.1,-0.1 0.5,-3.9 z"
   id="path68" />
		<path
   class="st2"
   d="m 71.2,99.6 0.1,0.4 H 70 l 0.2,-0.4 0.2,-1.8 -0.8,-3.6 -0.2,-0.5 H 71 l -0.2,0.3 0.4,2.3 1,-2.3 -0.1,-0.2 h 1.5 l -0.4,0.5 -1.8,3.6 z"
   id="path70" />
		<path
   class="st2"
   d="m 73.1,100 0.2,-0.4 0.8,-5.4 -0.1,-0.4 h 3.1 v 1.1 l -0.4,-0.1 h -1.6 l -0.1,0.1 -0.2,1.3 0.1,0.1 h 0.5 l 0.4,-0.1 -0.2,1.3 -0.4,-0.1 h -0.5 l -0.1,0.1 -0.2,1.3 0.1,0.1 h 1.6 l 0.4,-0.1 -0.4,1.2 z"
   id="path72" />
		<path
   class="st2"
   d="m 80.8,95.7 h -1.3 l 0.2,-0.4 0.1,-0.4 -0.1,-0.1 h -0.8 l -0.1,0.1 -0.2,1.3 0.1,0.1 H 80 l 0.4,0.5 -0.4,2.6 -0.6,0.5 h -2.1 l -0.3,-0.4 0.1,-1 V 98 h 1.3 l -0.2,0.4 -0.1,0.4 0.1,0.1 H 79 l 0.1,-0.1 0.2,-1.3 -0.1,-0.1 h -1.4 l -0.5,-0.5 0.4,-2.6 0.6,-0.5 h 2.1 l 0.4,0.5 -0.1,1.1 z"
   id="path74" />
		<path
   class="st2"
   d="m 85,94.9 -0.4,-0.1 h -0.8 l -0.1,0.1 -0.7,4.7 0.1,0.4 h -1.3 l 0.2,-0.4 0.7,-4.7 -0.1,-0.1 h -0.8 l -0.4,0.1 0.4,-1.2 H 85 Z"
   id="path76" />
		<path
   class="st2"
   d="m 84.7,100 0.2,-0.4 0.8,-5.4 -0.1,-0.4 h 3.1 v 1.1 l -0.4,-0.1 h -1.6 l -0.1,0.1 -0.2,1.3 0.1,0.1 H 87 l 0.4,-0.1 -0.2,1.3 -0.4,-0.1 h -0.5 l -0.1,0.1 -0.2,1.3 0.1,0.1 h 1.6 l 0.4,-0.1 -0.4,1.2 z"
   id="path78" />
		<path
   class="st2"
   d="m 88.4,100 0.2,-0.4 0.8,-5.4 -0.1,-0.4 H 92 l 0.5,0.5 -0.4,2.8 -0.6,0.5 0.2,1.9 0.1,0.4 h -1.3 l 0.1,-0.4 -0.2,-1.9 -0.1,-0.1 H 90 l -0.1,0.1 -0.3,1.8 0.1,0.4 h -1.3 z m 2.6,-3.4 0.1,-0.1 0.2,-1.6 -0.1,-0.1 h -0.8 l -0.1,0.1 -0.2,1.6 0.1,0.1 z"
   id="path80" />
		<path
   class="st2"
   d="m 94.7,99.6 0.1,0.4 h -1.3 l 0.2,-0.4 0.2,-1.8 -0.8,-3.6 -0.2,-0.5 h 1.5 l -0.2,0.3 0.4,2.3 1,-2.3 -0.1,-0.2 H 97 l -0.4,0.5 -1.8,3.6 z"
   id="path82" />
		<path
   class="st2"
   d="m 96.6,100 0.2,-0.4 0.8,-5.4 -0.1,-0.4 h 3.1 v 1.1 l -0.4,-0.1 h -1.6 l -0.1,0.1 -0.2,1.3 0.1,0.1 h 0.5 l 0.4,-0.1 -0.2,1.3 -0.4,-0.1 h -0.5 l -0.1,0.1 -0.2,1.3 0.1,0.2 h 1.6 l 0.4,-0.1 -0.4,1.2 h -3 z"
   id="path84" />
		<path
   class="st2"
   d="m 104.2,100 h -1.3 l 0.1,-0.2 -0.1,-0.9 -0.1,-0.1 h -1 l -0.1,0.1 -0.4,0.9 0.1,0.2 H 100 l 0.3,-0.4 2,-5.4 -0.1,-0.4 h 1.4 l -0.2,0.4 0.5,5.4 z m -2,-2.4 h 0.6 l 0.1,-0.1 -0.1,-2 z"
   id="path86" />
		<path
   class="st2"
   d="m 104.6,100 0.2,-0.4 0.8,-5.4 -0.1,-0.4 h 2.7 l 0.5,0.5 -0.4,2.8 -0.6,0.5 0.2,1.9 0.1,0.4 h -1.3 l 0.1,-0.4 -0.2,-1.9 -0.1,-0.1 h -0.3 l -0.1,0.1 -0.3,1.8 0.1,0.4 h -1.3 z m 2.5,-3.4 0.1,-0.1 0.2,-1.6 -0.1,-0.1 h -0.8 l -0.1,0.1 -0.2,1.6 0.1,0.1 z"
   id="path88" />
	</g>
</g>
</svg>
