<?xml version="1.0" encoding="utf-8"?>
<!-- Generator: Adobe Illustrator 25.4.1, SVG Export Plug-In . SVG Version: 6.00 Build 0)  -->
<svg version="1.1" xmlns="http://www.w3.org/2000/svg" xmlns:xlink="http://www.w3.org/1999/xlink" x="0px" y="0px"
	 viewBox="0 0 5669.3 5669.3" style="enable-background:new 0 0 5669.3 5669.3;" xml:space="preserve">
<style type="text/css">
	.st0{fill:url(#SVGID_1_);}
	.st1{fill:url(#SVGID_00000077307683297429361250000007501049449243263156_);}
	.st2{fill:url(#SVGID_00000034796665304336939160000006044440025762635195_);}
	.st3{fill:url(#SVGID_00000084512279062723860580000005012183113758784923_);}
	.st4{fill:url(#SVGID_00000064332238427628871410000007616049452061203129_);}
	.st5{fill:url(#SVGID_00000090278240463691413280000015515613094211707065_);}
	.st6{fill:url(#SVGID_00000101783039734257744520000008617937089031765405_);}
	.st7{fill:url(#SVGID_00000161612522415875562090000007428150272948917925_);}
	.st8{fill:url(#SVGID_00000035511798186402238520000000341335222930005170_);}
	.st9{fill:url(#SVGID_00000119817677461956203930000011625414529303456425_);}
	.st10{fill:url(#SVGID_00000085950207114286021010000014694304968067409326_);}
	.st11{fill:url(#SVGID_00000096774276020811652110000015793227514001362840_);}
</style>
<g id="Background">
	<rect width="5669.3" height="5669.3"/>
</g>
<g id="Ñëîé_1">
	<g>
		<linearGradient id="SVGID_1_" gradientUnits="userSpaceOnUse" x1="3027.6016" y1="1316.3772" x2="3545.752" y2="1834.5275">
			<stop  offset="0" style="stop-color:#1A2A6C"/>
			<stop  offset="0.5894" style="stop-color:#B21F1F"/>
			<stop  offset="1" style="stop-color:#FDBB2D"/>
		</linearGradient>
		<path class="st0" d="M3731.6,1523.6h-889.7c-28.6,0-51.8,23.2-51.8,51.8s23.2,51.8,51.8,51.8h889.7c28.6,0,51.8-23.2,51.8-51.8
			S3760.2,1523.6,3731.6,1523.6z"/>
		
			<linearGradient id="SVGID_00000085229295318340691500000011613969703302179755_" gradientUnits="userSpaceOnUse" x1="3027.6018" y1="1770.3036" x2="3545.7517" y2="2288.4536">
			<stop  offset="0" style="stop-color:#1A2A6C"/>
			<stop  offset="0.5894" style="stop-color:#B21F1F"/>
			<stop  offset="1" style="stop-color:#FDBB2D"/>
		</linearGradient>
		<path style="fill:url(#SVGID_00000085229295318340691500000011613969703302179755_);" d="M3731.6,1977.6h-889.7
			c-28.6,0-51.8,23.2-51.8,51.8c0,28.6,23.2,51.8,51.8,51.8h889.7c28.6,0,51.8-23.2,51.8-51.8
			C3783.4,2000.8,3760.2,1977.6,3731.6,1977.6z"/>
		
			<linearGradient id="SVGID_00000080202942870920615330000010827319966041500318_" gradientUnits="userSpaceOnUse" x1="3027.6018" y1="2224.1001" x2="3545.7517" y2="2742.2502">
			<stop  offset="0" style="stop-color:#1A2A6C"/>
			<stop  offset="0.5894" style="stop-color:#B21F1F"/>
			<stop  offset="1" style="stop-color:#FDBB2D"/>
		</linearGradient>
		<path style="fill:url(#SVGID_00000080202942870920615330000010827319966041500318_);" d="M3731.6,2431.4h-889.7
			c-28.6,0-51.8,23.2-51.8,51.8s23.2,51.8,51.8,51.8h889.7c28.6,0,51.8-23.2,51.8-51.8S3760.2,2431.4,3731.6,2431.4z"/>
		
			<linearGradient id="SVGID_00000040562398412876504670000011340791298661684137_" gradientUnits="userSpaceOnUse" x1="1733.1292" y1="1784.525" x2="2523.9246" y2="2575.3206">
			<stop  offset="0" style="stop-color:#1A2A6C"/>
			<stop  offset="0.5894" style="stop-color:#B21F1F"/>
			<stop  offset="1" style="stop-color:#FDBB2D"/>
		</linearGradient>
		<path style="fill:url(#SVGID_00000040562398412876504670000011340791298661684137_);" d="M2460.7,2160
			c-42-42-90.8-74.9-145.3-97.9c-1.1-0.5-2.2-0.9-3.3-1.4c7.5-6.2,14.7-12.7,21.7-19.7c57.2-57.2,88.8-133.3,88.8-214.3
			c0-80.9-31.5-157-88.8-214.3c-57.2-57.2-133.3-88.8-214.3-88.8c-80.9,0-157,31.5-214.3,88.8c-57.2,57.2-88.8,133.3-88.8,214.3
			c0,80.9,31.5,157,88.8,214.3c10.9,10.9,22.5,20.9,34.7,29.9c-46.6,22.3-88.8,52.2-125.7,89.1c-42,42-74.9,90.8-97.9,145.3
			c-23.8,56.4-35.9,116.3-35.9,177.9c0,28.6,23.2,51.8,51.8,51.8c28.6,0,51.8-23.2,51.8-51.8c0-194.9,158.6-353.5,353.5-353.5
			s353.5,158.6,353.5,353.5c0,28.6,23.2,51.8,51.8,51.8c28.6,0,51.8-23.2,51.8-51.8c0-61.7-12.1-121.6-35.9-177.9
			C2535.6,2250.8,2502.7,2201.9,2460.7,2160z M2119.5,2026.1c-110,0-199.4-89.5-199.4-199.4c0-110,89.5-199.4,199.4-199.4
			c110,0,199.4,89.5,199.4,199.4C2318.9,1936.6,2229.5,2026.1,2119.5,2026.1z"/>
		
			<linearGradient id="SVGID_00000139988219038141739650000007147566034403083700_" gradientUnits="userSpaceOnUse" x1="2964.7939" y1="680.3464" x2="3629.585" y2="1345.1373">
			<stop  offset="0" style="stop-color:#1A2A6C"/>
			<stop  offset="0.5894" style="stop-color:#B21F1F"/>
			<stop  offset="1" style="stop-color:#FDBB2D"/>
		</linearGradient>
		<path style="fill:url(#SVGID_00000139988219038141739650000007147566034403083700_);" d="M3514.8,775.3
			c82.7-35,178.4,3.8,213.3,86.5l80.9,191.3h112.5l-98-231.7c-27.7-65.5-79.3-116.4-145.3-143.1c-65.9-26.7-138.4-26.2-203.9,1.5
			L2592,1053.1h266L3514.8,775.3z"/>
		
			<linearGradient id="SVGID_00000042009191142175789890000012242428007312944530_" gradientUnits="userSpaceOnUse" x1="1636.7938" y1="910.6671" x2="3892.4761" y2="3166.3494">
			<stop  offset="0" style="stop-color:#1A2A6C"/>
			<stop  offset="0.5894" style="stop-color:#B21F1F"/>
			<stop  offset="1" style="stop-color:#FDBB2D"/>
		</linearGradient>
		<path style="fill:url(#SVGID_00000042009191142175789890000012242428007312944530_);" d="M4374.1,2122.9l-161.6-382v-418.1
			c0-71.2-27.7-138.1-78-188.4s-117.2-78-188.4-78H1601.4c-71.2,0-138.1,27.7-188.4,78c-50.3,50.3-78,117.2-78,188.4v262l-20,8.5
			c-65.5,27.7-116.4,79.3-143.1,145.3c-26.7,65.9-26.2,138.4,1.5,203.9l161.6,382v411.5c0,71.2,27.7,138.1,78,188.4
			c50.3,50.3,117.2,78,188.4,78h20.3l102.2,241.6c27.7,65.5,79.3,116.4,145.3,143.1c65.9,26.7,138.4,26.2,203.9-1.5l905.8-383.2
			h967.3c71.2,0,138.1-27.7,188.4-78c50.3-50.3,78-117.2,78-188.4v-255.5l20-8.5c65.5-27.7,116.4-79.3,143.1-145.3
			C4402.4,2260.8,4401.8,2188.4,4374.1,2122.9z M1335,2058.5l-66.1-156.4c-32-75.5-2.3-161.9,66.1-203V2058.5z M2032.7,3290.1
			c-82.7,35-178.4-3.8-213.3-86.5l-85.1-201.2h978.6L2032.7,3290.1z M4108.9,2735.9c0,89.8-73,162.8-162.8,162.8H1601.4
			c-89.8,0-162.8-73-162.8-162.8V1322.8c0-89.8,73-162.8,162.8-162.8h2344.7c89.8,0,162.8,73,162.8,162.8V2735.9z M4212.5,2366.2
			v-359.3l66.1,156.4C4310.6,2238.8,4281,2325.2,4212.5,2366.2z"/>
	</g>
	<g>
		<g>
			
				<linearGradient id="SVGID_00000002349576963602579450000008914395449755021743_" gradientUnits="userSpaceOnUse" x1="1521.2583" y1="4130.0532" x2="4387.9854" y2="4130.0532">
				<stop  offset="0" style="stop-color:#1A2A6C"/>
				<stop  offset="0.5894" style="stop-color:#B21F1F"/>
				<stop  offset="1" style="stop-color:#FDBB2D"/>
			</linearGradient>
			<path style="fill:url(#SVGID_00000002349576963602579450000008914395449755021743_);" d="M1699.3,4205.6H1626v203.6
				c0,18.1-14.5,33.5-31.5,33.5h-41.7c-17,0-31.5-15.4-31.5-33.5v-566.4c0-18.1,13.6-33.5,31.5-33.5c51.1-0.9,136.3-1.8,149.9-1.8
				c162.7,0,216.4,86,216.4,195.4c0,108.6-65.6,162.9-115,181l148.2,206.3c5.1,6.3,6.8,13.6,6.8,19.9c0,17.2-12.8,32.6-30.7,32.6
				h-39.2c-15.3,0-31.5-9-40.9-22.6L1699.3,4205.6z M1694.2,4101.6c60.5,0,114.2-32.6,114.2-97.7c0-49.8-25.6-92.3-110.8-92.3
				c-19.6,0-43.4,0.9-71.6,1.8v188.2H1694.2z"/>
			
				<linearGradient id="SVGID_00000103962864038505895220000012735808698989130942_" gradientUnits="userSpaceOnUse" x1="1521.2583" y1="4130.0532" x2="4387.9854" y2="4130.0532">
				<stop  offset="0" style="stop-color:#1A2A6C"/>
				<stop  offset="0.5894" style="stop-color:#B21F1F"/>
				<stop  offset="1" style="stop-color:#FDBB2D"/>
			</linearGradient>
			<path style="fill:url(#SVGID_00000103962864038505895220000012735808698989130942_);" d="M2023,4239.1
				c0-122.1,81.8-213.5,208.7-213.5s208.7,91.4,208.7,213.5c0,122.1-81.8,213.5-208.7,213.5S2023,4361.2,2023,4239.1z
				 M2127.8,4239.1c0,67.9,44.3,116.7,103.9,116.7c60.5,0,104.8-46.1,104.8-116.7c0-68.8-45.2-115.8-104.8-115.8
				C2173.8,4123.3,2127.8,4168.5,2127.8,4239.1z"/>
			
				<linearGradient id="SVGID_00000080913442958451512320000005526993739815628733_" gradientUnits="userSpaceOnUse" x1="1521.2583" y1="4130.0532" x2="4387.9854" y2="4130.0532">
				<stop  offset="0" style="stop-color:#1A2A6C"/>
				<stop  offset="0.5894" style="stop-color:#B21F1F"/>
				<stop  offset="1" style="stop-color:#FDBB2D"/>
			</linearGradient>
			<path style="fill:url(#SVGID_00000080913442958451512320000005526993739815628733_);" d="M2525.7,3842.8
				c0-18.1,14.5-33.5,31.5-33.5h34.9c17,0,31.5,15.4,31.5,33.5v445.2c0,46.1,11.1,66,33.2,66c4.3,0,9.4-0.9,13.6-1.8
				c10.2-2.7,18.7-5.4,26.4-5.4c9.4,0,17,4.5,23.9,18.1l9.4,19c2.6,4.5,3.4,9,3.4,13.6c0,11.8-6.8,22.6-20.4,31.7
				c-29,17.2-63,22.6-93.7,22.6c-61.3,0-93.7-38-93.7-121.2V3842.8z"/>
			
				<linearGradient id="SVGID_00000150080088162758622460000016568490905580263566_" gradientUnits="userSpaceOnUse" x1="1521.2583" y1="4130.0532" x2="4387.9854" y2="4130.0532">
				<stop  offset="0" style="stop-color:#1A2A6C"/>
				<stop  offset="0.5894" style="stop-color:#B21F1F"/>
				<stop  offset="1" style="stop-color:#FDBB2D"/>
			</linearGradient>
			<path style="fill:url(#SVGID_00000150080088162758622460000016568490905580263566_);" d="M2757.4,4239.1
				c0-122.1,81.8-213.5,208.7-213.5s208.7,91.4,208.7,213.5c0,122.1-81.8,213.5-208.7,213.5S2757.4,4361.2,2757.4,4239.1z
				 M2862.2,4239.1c0,67.9,44.3,116.7,103.9,116.7c60.5,0,104.8-46.1,104.8-116.7c0-68.8-45.2-115.8-104.8-115.8
				C2908.2,4123.3,2862.2,4168.5,2862.2,4239.1z"/>
			
				<linearGradient id="SVGID_00000058581995179647680710000007697392126543218816_" gradientUnits="userSpaceOnUse" x1="1521.2583" y1="4130.0532" x2="4387.9854" y2="4130.0532">
				<stop  offset="0" style="stop-color:#1A2A6C"/>
				<stop  offset="0.5894" style="stop-color:#B21F1F"/>
				<stop  offset="1" style="stop-color:#FDBB2D"/>
			</linearGradient>
			<path style="fill:url(#SVGID_00000058581995179647680710000007697392126543218816_);" d="M3392.9,4409.2
				c0,18.1-14.5,33.5-31.5,33.5h-41.7c-17,0-31.5-15.4-31.5-33.5v-566.4c0-18.1,14.5-33.5,31.5-33.5h48.6c15.3,0,31.5,9,40.9,22.6
				l188.3,273.2l179.8-273.2c8.5-13.6,24.7-22.6,40-22.6h41.7c17,0,31.5,15.4,31.5,33.5v566.4c0,18.1-14.5,33.5-31.5,33.5h-40.9
				c-17,0-31.5-15.4-31.5-33.5v-424.3l-155.9,232.5c-11.1,16.3-25.6,24.4-40,24.4c-14.5,0-29.8-8.1-40.9-24.4l-156.8-229.8V4409.2z"
				/>
			
				<linearGradient id="SVGID_00000023970999037273810890000011145175876101893293_" gradientUnits="userSpaceOnUse" x1="1521.2583" y1="4130.0532" x2="4387.9854" y2="4130.0532">
				<stop  offset="0" style="stop-color:#1A2A6C"/>
				<stop  offset="0.5894" style="stop-color:#B21F1F"/>
				<stop  offset="1" style="stop-color:#FDBB2D"/>
			</linearGradient>
			<path style="fill:url(#SVGID_00000023970999037273810890000011145175876101893293_);" d="M4295.1,4348.6
				c6.8-3.6,13.6-6.3,19.6-6.3c9.4,0,17.9,5.4,24.7,15.4l7.7,11.8c3.4,5.4,5.1,11.8,5.1,18.1c0,10.9-5.1,21.7-13.6,27.1
				c-40.9,27.1-86,38-128.6,38c-123.5,0-206.2-85.1-206.2-213.5c0-118.5,76.7-213.5,202.8-213.5c98.8,0,181.5,75.1,181.5,189.1
				c0,9,0,16.3-0.9,23.5c-0.9,15.4-17.9,32.6-33.2,32.6h-248.8c8.5,61.5,54.5,95,115,95C4251.7,4365.8,4273.8,4359.4,4295.1,4348.6z
				 M4290,4201.1c0-0.9,0-0.9,0-1.8c0-48.9-32.4-86.9-87.7-86.9c-58.8,0-90.3,35.3-100.5,88.7H4290z"/>
		</g>
	</g>
</g>
</svg>
